<svg width="20" height="20" viewBox="0 0 20 20" fill="none" xmlns="http://www.w3.org/2000/svg">
<path d="M18.3327 4.76647L14.4994 1.5498L13.4244 2.8248L17.2577 6.04147L18.3327 4.76647ZM6.56602 2.8248L5.49935 1.5498L1.66602 4.75814L2.74102 6.03314L6.56602 2.8248ZM10.416 6.66647H9.16602V11.6665L13.1244 14.0415L13.7494 13.0165L10.416 11.0415V6.66647ZM9.99934 3.33314C5.85767 3.33314 2.49935 6.69147 2.49935 10.8331C2.49935 14.9748 5.84934 18.3331 9.99934 18.3331C11.9885 18.3331 13.8961 17.543 15.3027 16.1364C16.7092 14.7299 17.4994 12.8223 17.4994 10.8331C17.4994 8.84402 16.7092 6.93636 15.3027 5.52984C13.8961 4.12331 11.9885 3.33314 9.99934 3.33314ZM9.99934 16.6665C6.77434 16.6665 4.16602 14.0581 4.16602 10.8331C4.16602 7.60814 6.77434 4.9998 9.99934 4.9998C13.2244 4.9998 15.8327 7.60814 15.8327 10.8331C15.8327 14.0581 13.2244 16.6665 9.99934 16.6665Z" fill="#7A7A7A"/>
</svg>
