<svg width="14" height="14" viewBox="0 0 14 14" fill="none" xmlns="http://www.w3.org/2000/svg">
<path d="M7 1.75C10.3827 1.75 13.125 3.88733 13.125 6.52458C13.125 9.16125 10.3827 11.2986 7 11.2986C6.66317 11.2988 6.32667 11.2773 5.99258 11.2344L3.42125 12.9162C3.129 13.0707 3.02575 13.0538 3.14592 12.6753L3.66625 10.5297C1.98625 9.67808 0.875 8.20225 0.875 6.52458C0.875 3.88792 3.61725 1.75 7 1.75ZM10.4457 6.45167L11.3033 5.621C11.3527 5.56961 11.3803 5.50103 11.3802 5.42969C11.3802 5.35836 11.3524 5.28984 11.3028 5.23857C11.2532 5.1873 11.1856 5.15729 11.1143 5.15485C11.043 5.15241 10.9736 5.17774 10.9206 5.2255L9.79592 6.314V5.4145C9.79592 5.34148 9.76691 5.27145 9.71527 5.21981C9.66364 5.16817 9.59361 5.13917 9.52058 5.13917C9.44756 5.13917 9.37753 5.16817 9.32589 5.21981C9.27426 5.27145 9.24525 5.34148 9.24525 5.4145V6.90608C9.23493 6.94863 9.23493 6.99303 9.24525 7.03558V7.875C9.24525 7.94802 9.27426 8.01805 9.32589 8.06969C9.37753 8.12133 9.44756 8.15033 9.52058 8.15033C9.59361 8.15033 9.66364 8.12133 9.71527 8.06969C9.76691 8.01805 9.79592 7.94802 9.79592 7.875V7.07992L10.045 6.839L10.878 8.02492C10.8988 8.05452 10.9252 8.07975 10.9558 8.09914C10.9863 8.11853 11.0204 8.13172 11.056 8.13795C11.0917 8.14418 11.1282 8.14333 11.1635 8.13545C11.1988 8.12756 11.2322 8.1128 11.2618 8.092C11.2914 8.0712 11.3167 8.04478 11.3361 8.01423C11.3555 7.98369 11.3686 7.94962 11.3749 7.91398C11.3811 7.87833 11.3802 7.84181 11.3724 7.8065C11.3645 7.77119 11.3497 7.73777 11.3289 7.70817L10.4457 6.45108V6.45167ZM8.72025 7.574H7.86858V5.42325C7.86532 5.3525 7.83492 5.28572 7.7837 5.2368C7.73248 5.18788 7.66437 5.16059 7.59354 5.16059C7.52271 5.16059 7.45461 5.18788 7.40338 5.2368C7.35216 5.28572 7.32176 5.3525 7.3185 5.42325V7.84933C7.3185 8.001 7.441 8.12467 7.59325 8.12467H8.72025C8.79327 8.12467 8.8633 8.09566 8.91494 8.04402C8.96657 7.99239 8.99558 7.92236 8.99558 7.84933C8.99558 7.77631 8.96657 7.70628 8.91494 7.65464C8.8633 7.60301 8.79327 7.574 8.72025 7.574ZM5.30367 6.937L5.70967 5.94125L6.08183 6.937H5.30367ZM6.77542 7.22167L6.77658 7.21233C6.77644 7.14297 6.74996 7.07625 6.7025 7.02567L6.09233 5.39233C6.06676 5.3145 6.01803 5.24632 5.95268 5.19691C5.88732 5.14751 5.80844 5.11922 5.72658 5.11583C5.64412 5.11547 5.56351 5.14023 5.49546 5.1868C5.42742 5.23338 5.37517 5.29958 5.34567 5.37658L4.37675 7.75367C4.36308 7.78714 4.35613 7.82298 4.35631 7.85915C4.35649 7.89531 4.36378 7.93108 4.37779 7.96442C4.39179 7.99776 4.41222 8.02801 4.43792 8.05346C4.46361 8.0789 4.49407 8.09903 4.52754 8.11271C4.56102 8.12638 4.59686 8.13333 4.63302 8.13315C4.66918 8.13297 4.70495 8.12567 4.73829 8.11167C4.77163 8.09767 4.80189 8.07724 4.82733 8.05154C4.85278 8.02585 4.87291 7.99539 4.88658 7.96192L5.07908 7.48767H6.28658L6.461 7.95433C6.47286 7.98922 6.4916 8.02136 6.51611 8.04887C6.54061 8.07638 6.57039 8.09869 6.60368 8.11448C6.63697 8.13027 6.67309 8.13922 6.7099 8.1408C6.74671 8.14237 6.78346 8.13655 6.81797 8.12366C6.85249 8.11078 6.88407 8.09109 6.91084 8.06578C6.93761 8.04047 6.95903 8.01004 6.97383 7.9763C6.98863 7.94256 6.9965 7.9062 6.99699 7.86936C6.99748 7.83252 6.99057 7.79595 6.97667 7.76183L6.77542 7.22167ZM4.83758 5.42617C4.83758 5.35324 4.80866 5.2833 4.75715 5.23168C4.70564 5.18006 4.63576 5.15099 4.56283 5.15083H2.66992C2.59689 5.15083 2.52686 5.17984 2.47523 5.23148C2.42359 5.28311 2.39458 5.35314 2.39458 5.42617C2.39458 5.49919 2.42359 5.56922 2.47523 5.62086C2.52686 5.67249 2.59689 5.7015 2.66992 5.7015H3.34658V7.88083C3.34658 7.95386 3.37559 8.02389 3.42723 8.07552C3.47886 8.12716 3.54889 8.15617 3.62192 8.15617C3.69494 8.15617 3.76497 8.12716 3.81661 8.07552C3.86824 8.02389 3.89725 7.95386 3.89725 7.88083V5.7015H4.56225C4.63527 5.7015 4.70531 5.67249 4.75694 5.62086C4.80858 5.56922 4.83758 5.49919 4.83758 5.42617Z" fill="#6B5B56"/>
</svg>
