<svg width="17" height="16" viewBox="0 0 17 16" fill="none" xmlns="http://www.w3.org/2000/svg">
<path d="M8.3125 0C12.9034 0 16.625 2.90067 16.625 6.47979C16.625 10.0581 12.9034 12.9588 8.3125 12.9588C7.85537 12.959 7.3987 12.9299 6.94529 12.8717L3.45562 15.1541C3.059 15.3639 2.91888 15.3409 3.08196 14.8271L3.78813 11.9154C1.50812 10.7595 0 8.75662 0 6.47979C0 2.90146 3.72163 0 8.3125 0ZM12.9889 6.38083L14.1526 5.2535C14.2198 5.18376 14.2572 5.09068 14.2571 4.99387C14.257 4.89706 14.2193 4.80407 14.152 4.73449C14.0847 4.66491 13.993 4.62418 13.8962 4.62087C13.7995 4.61756 13.7052 4.65194 13.6333 4.71675L12.107 6.194V4.97325C12.107 4.87415 12.0676 4.7791 11.9975 4.70903C11.9274 4.63895 11.8324 4.59958 11.7333 4.59958C11.6342 4.59958 11.5391 4.63895 11.4691 4.70903C11.399 4.7791 11.3596 4.87415 11.3596 4.97325V6.99754C11.3456 7.05529 11.3456 7.11554 11.3596 7.17329V8.3125C11.3596 8.4116 11.399 8.50665 11.4691 8.57672C11.5391 8.6468 11.6342 8.68617 11.7333 8.68617C11.8324 8.68617 11.9274 8.6468 11.9975 8.57672C12.0676 8.50665 12.107 8.4116 12.107 8.3125V7.23346L12.445 6.9065L13.5755 8.51596C13.6037 8.55614 13.6396 8.59037 13.681 8.61669C13.7225 8.64301 13.7687 8.66091 13.8171 8.66936C13.8655 8.67782 13.915 8.67666 13.963 8.66596C14.0109 8.65526 14.0562 8.63522 14.0964 8.607C14.1366 8.57877 14.1708 8.54291 14.1971 8.50145C14.2235 8.46 14.2414 8.41377 14.2498 8.3654C14.2583 8.31702 14.2571 8.26746 14.2464 8.21954C14.2357 8.17161 14.2157 8.12626 14.1875 8.08608L12.9889 6.38004V6.38083ZM10.6471 7.904H9.49129V4.98512C9.48687 4.8891 9.44561 4.79848 9.37609 4.73209C9.30657 4.6657 9.21415 4.62865 9.11802 4.62865C9.0219 4.62865 8.92947 4.6657 8.85995 4.73209C8.79043 4.79848 8.74917 4.8891 8.74475 4.98512V8.27767C8.74475 8.4835 8.911 8.65133 9.11763 8.65133H10.6471C10.7462 8.65133 10.8413 8.61196 10.9113 8.54189C10.9814 8.47181 11.0208 8.37677 11.0208 8.27767C11.0208 8.17856 10.9814 8.08352 10.9113 8.01344C10.8413 7.94337 10.7462 7.904 10.6471 7.904ZM6.01033 7.0395L6.56133 5.68812L7.06642 7.0395H6.01033ZM8.00771 7.42583L8.00929 7.41317C8.0091 7.31903 7.97317 7.22848 7.90875 7.15983L7.08067 4.94317C7.04595 4.83753 6.97983 4.74501 6.89113 4.67795C6.80244 4.6109 6.69539 4.57251 6.58429 4.56792C6.47238 4.56742 6.36297 4.60102 6.27063 4.66423C6.17828 4.72745 6.10737 4.81729 6.06733 4.92179L4.75238 8.14783C4.73382 8.19326 4.72439 8.24191 4.72463 8.29098C4.72487 8.34006 4.73478 8.3886 4.75378 8.43385C4.77278 8.4791 4.80051 8.52016 4.83539 8.55469C4.87026 8.58922 4.91159 8.61655 4.95702 8.6351C5.00245 8.65366 5.0511 8.66309 5.10017 8.66285C5.14925 8.66261 5.19779 8.6527 5.24304 8.6337C5.28829 8.61469 5.32935 8.58696 5.36388 8.55209C5.39841 8.51722 5.42573 8.47589 5.44429 8.43046L5.70554 7.78683H7.34429L7.581 8.42017C7.59709 8.46751 7.62252 8.51114 7.65579 8.54847C7.68905 8.5858 7.72946 8.61608 7.77464 8.63751C7.81982 8.65894 7.86883 8.67108 7.91879 8.67322C7.96875 8.67536 8.01862 8.66745 8.06546 8.64997C8.11231 8.63248 8.15517 8.60577 8.1915 8.57142C8.22783 8.53707 8.2569 8.49577 8.27698 8.44998C8.29707 8.40419 8.30776 8.35484 8.30842 8.30484C8.30908 8.25484 8.2997 8.20522 8.28083 8.15892L8.00771 7.42583ZM5.37779 4.98908C5.37779 4.89012 5.33853 4.79519 5.26863 4.72514C5.19872 4.65509 5.10388 4.61563 5.00492 4.61542H2.43596C2.33686 4.61542 2.24181 4.65478 2.17174 4.72486C2.10166 4.79494 2.06229 4.88998 2.06229 4.98908C2.06229 5.08819 2.10166 5.18323 2.17174 5.2533C2.24181 5.32338 2.33686 5.36275 2.43596 5.36275H3.35429V8.32042C3.35429 8.41952 3.39366 8.51456 3.46374 8.58464C3.53381 8.65471 3.62886 8.69408 3.72796 8.69408C3.82706 8.69408 3.9221 8.65471 3.99218 8.58464C4.06226 8.51456 4.10163 8.41952 4.10163 8.32042V5.36275H5.00413C5.10323 5.36275 5.19827 5.32338 5.26835 5.2533C5.33842 5.18323 5.37779 5.08819 5.37779 4.98908Z" fill="#EFDB4A"/>
</svg>
