<svg width="227" height="292" viewBox="0 0 227 292" fill="none" xmlns="http://www.w3.org/2000/svg">
<path d="M145.443 71.1719C165.147 71.1719 181.12 55.3173 181.12 35.7597C181.12 16.202 165.147 0.347412 145.443 0.347412C125.739 0.347412 109.766 16.202 109.766 35.7597C109.766 55.3173 125.739 71.1719 145.443 71.1719Z" fill="white"/>
<path d="M143.648 46.7861C143.312 46.619 143.03 46.3601 142.836 46.0395C142.641 45.7188 142.541 45.3496 142.548 44.9746L142.721 35.0482C142.727 34.7411 142.805 34.4395 142.947 34.1671C143.089 33.8947 143.292 33.6588 143.54 33.4778C143.788 33.2969 144.075 33.1757 144.378 33.1238C144.681 33.0719 144.991 33.0908 145.286 33.1788C146.097 33.4066 146.946 33.4662 147.781 33.3538C148.616 33.2415 149.419 32.9595 150.141 32.5253C150.807 32.1591 151.39 31.6604 151.855 31.06C152.32 30.4597 152.658 29.7703 152.846 29.0345C152.989 28.2849 152.98 27.5143 152.819 26.7683C152.659 26.0223 152.35 25.3162 151.911 24.6917C151.456 23.9843 150.865 23.3742 150.172 22.8971C149.479 22.42 148.698 22.0853 147.875 21.9124C144.69 21.3499 141.083 23.5668 140 26.8176C139.811 27.2915 139.447 27.6749 138.984 27.8888C138.521 28.1028 137.994 28.1311 137.51 27.9679C137.027 27.8046 136.624 27.4623 136.386 27.0114C136.147 26.5604 136.091 26.0352 136.228 25.5438C137.94 20.4813 143.474 17.0981 148.57 17.9997C149.918 18.2644 151.199 18.7986 152.337 19.5705C153.474 20.3423 154.443 21.3358 155.187 22.4914C155.929 23.5658 156.445 24.7797 156.704 26.0594C156.962 27.339 156.959 28.658 156.693 29.9362C156.384 31.2044 155.818 32.3955 155.03 33.4358C154.241 34.476 153.247 35.343 152.11 35.983C150.451 36.9611 148.551 37.4567 146.626 37.414L146.493 45.0408C146.482 45.5688 146.263 46.0711 145.884 46.4383C145.504 46.8056 144.995 47.0079 144.467 47.0012C144.181 46.9898 143.902 46.9164 143.648 46.7861Z" fill="#DB643E"/>
<path d="M146.311 50.9967C146.311 51.3239 146.214 51.6437 146.033 51.9158C145.851 52.1879 145.592 52.3999 145.29 52.5251C144.988 52.6503 144.655 52.6831 144.334 52.6193C144.013 52.5554 143.719 52.3979 143.487 52.1665C143.256 51.9351 143.098 51.6404 143.034 51.3194C142.971 50.9985 143.003 50.6659 143.129 50.3636C143.254 50.0613 143.466 49.8029 143.738 49.6211C144.01 49.4393 144.33 49.3423 144.657 49.3423C145.096 49.3423 145.517 49.5166 145.827 49.8268C146.137 50.1371 146.311 50.5579 146.311 50.9967Z" fill="#DB643E"/>
<path d="M109.691 63.6527C109.691 63.6527 110.08 63.6527 110.725 63.9009C111.625 64.2129 112.409 64.7896 112.975 65.5553C113.361 66.0867 113.623 66.6969 113.745 67.342C113.874 68.0787 113.788 68.8369 113.497 69.5258C113.196 70.3363 112.654 71.0354 111.944 71.529C111.234 72.0227 110.391 72.2872 109.526 72.2872C108.661 72.2872 107.818 72.0227 107.108 71.529C106.398 71.0354 105.856 70.3363 105.555 69.5258C105.255 68.8395 105.163 68.0802 105.291 67.342C105.406 66.6965 105.666 66.0855 106.052 65.5553C106.603 64.7693 107.383 64.1717 108.285 63.843C108.625 63.7392 108.97 63.6536 109.319 63.5865C109.319 63.5865 109.22 63.5865 109.038 63.5865C108.924 63.5905 108.81 63.6043 108.699 63.6279C108.545 63.6494 108.393 63.6826 108.244 63.7272C107.437 63.9827 106.713 64.4484 106.146 65.0765C105.579 65.7045 105.19 66.4722 105.018 67.3006C104.873 68.092 104.962 68.9084 105.274 69.6499C105.608 70.4721 106.167 71.1832 106.887 71.7013C107.639 72.3013 108.572 72.6281 109.534 72.6281C110.496 72.6281 111.429 72.3013 112.181 71.7013C112.891 71.1728 113.443 70.4606 113.778 69.6416C114.087 68.8992 114.171 68.082 114.018 67.2924C113.841 66.4641 113.446 65.6978 112.875 65.0726C112.304 64.4475 111.576 63.9859 110.767 63.7354C110.618 63.69 110.466 63.6568 110.312 63.6362C110.199 63.6259 110.085 63.6259 109.973 63.6362C109.791 63.6362 109.691 63.6362 109.691 63.6527Z" fill="#263238"/>
<path d="M99.2027 75.4649C99.2027 75.4649 99.4426 75.5063 99.8479 75.6469C100.406 75.858 100.888 76.2328 101.229 76.7223C101.497 77.071 101.667 77.4846 101.722 77.9206C101.777 78.3566 101.716 78.7994 101.544 79.2039C101.357 79.7027 101.023 80.1328 100.585 80.4364C100.148 80.74 99.6278 80.9026 99.0952 80.9026C98.5626 80.9026 98.0427 80.74 97.6051 80.4364C97.1676 80.1328 96.8331 79.7027 96.6467 79.2039C96.4723 78.8009 96.408 78.3588 96.4603 77.9228C96.5126 77.4869 96.6797 77.0726 96.9445 76.7223C97.2817 76.2268 97.7644 75.8482 98.3259 75.6387C98.723 75.4898 98.9711 75.4815 98.9628 75.4567C98.7357 75.4137 98.5011 75.4337 98.2845 75.5146C97.7672 75.6718 97.3016 75.9652 96.9364 76.3638C96.5711 76.7625 96.3197 77.252 96.2083 77.7811C96.1095 78.2874 96.1643 78.8116 96.3655 79.2866C96.5687 79.8474 96.9398 80.3321 97.4282 80.6746C97.9166 81.0171 98.4987 81.2008 99.0952 81.2008C99.6917 81.2008 100.274 81.0171 100.762 80.6746C101.251 80.3321 101.622 79.8474 101.825 79.2866C102.019 78.8098 102.071 78.2867 101.974 77.7811C101.879 77.3454 101.69 76.9359 101.42 76.5817C101.036 76.0724 100.495 75.7033 99.881 75.5311C99.6632 75.4563 99.4309 75.4337 99.2027 75.4649Z" fill="#263238"/>
<path d="M110.13 40.7394C110.13 40.7394 110.13 40.5408 110.13 40.1603C110.13 39.7798 110.055 39.2091 109.998 38.5059C109.998 38.1337 109.931 37.7201 109.89 37.2651C109.849 36.8102 109.89 36.3056 109.89 35.7597C109.89 35.2137 109.89 34.6264 109.89 34.006C109.888 33.6822 109.91 33.3587 109.956 33.0382C109.998 32.7073 110.031 32.3682 110.072 32.0125C110.422 28.5915 111.292 25.2441 112.653 22.0861C114.413 17.8906 116.969 14.0759 120.18 10.8528L121.537 9.50447C122.017 9.07433 122.538 8.67728 123.042 8.25541L123.812 7.62674C124.072 7.40557 124.349 7.20375 124.639 7.02289L126.343 5.88963C126.632 5.69937 126.914 5.50085 127.212 5.31887L128.13 4.82254L130.007 3.82991C130.644 3.50731 131.331 3.26742 132.001 3.00272L133.01 2.58912C133.184 2.51467 133.349 2.44022 133.523 2.38232L134.052 2.22515C135.48 1.74491 136.94 1.3635 138.42 1.08362C139.173 0.951273 139.925 0.76929 140.695 0.670026L143.036 0.463227C143.433 0.463227 143.863 0.372235 144.227 0.372235H145.418C146.245 0.372235 147.023 0.372233 147.833 0.421865C149.474 0.549965 151.105 0.787625 152.714 1.13325L153.938 1.38969L154.55 1.53031L155.154 1.72056L157.57 2.49813C158.397 2.79592 159.15 3.15988 159.944 3.49076C160.332 3.67274 160.771 3.81337 161.127 4.02844L162.268 4.64883C163.814 5.49358 165.304 6.43861 166.727 7.47785C167.416 8.02931 168.103 8.60008 168.786 9.19014L169.308 9.62028C169.473 9.76918 169.622 9.93461 169.787 10.0918L170.739 11.0348L171.698 11.9943L172.567 13.0531L173.443 14.112L173.874 14.6496C174.014 14.8316 174.13 15.0301 174.262 15.2204L175.801 17.5283L177.124 20.0099C180.555 26.8522 181.653 34.6291 180.251 42.1539C180.053 43.0721 179.862 43.982 179.664 44.8919L178.837 47.5306L178.622 48.1924L178.357 48.8211L177.811 50.0867L177.265 51.344L176.612 52.5352L175.958 53.7263L175.636 54.3136L175.255 54.8761L173.75 57.093C172.668 58.484 171.497 59.8021 170.242 61.0387L169.283 61.9404C168.977 62.2465 168.621 62.4946 168.298 62.7676C167.62 63.3053 166.975 63.876 166.297 64.422L164.179 65.8365L163.658 66.1922C163.476 66.2997 163.286 66.3907 163.104 66.49L161.995 67.0855C160.548 67.8605 159.05 68.5376 157.512 69.1122C156.751 69.3851 155.965 69.5919 155.204 69.8318L154.054 70.1793C153.674 70.2868 153.276 70.3364 152.896 70.4191L150.588 70.8658C149.819 70.9816 149.049 71.023 148.288 71.0975C146.787 71.2389 145.278 71.2776 143.772 71.2133H143.218C143.036 71.2133 142.854 71.2132 142.672 71.1553L141.58 71.0395C140.86 70.9485 140.132 70.8989 139.429 70.7748L137.353 70.3281L136.327 70.1131L135.335 69.807L133.391 69.1866C133.071 69.089 132.759 68.9702 132.456 68.8309L131.538 68.4339C130.934 68.1692 130.33 67.9293 129.743 67.6563L128.088 66.7381C124.114 64.5232 120.603 61.563 117.748 58.0195C117.434 57.6307 117.111 57.2585 116.814 56.878C116.516 56.4974 116.284 56.0508 115.986 55.6951L115.234 54.4956C115.11 54.3054 114.977 54.1234 114.87 53.9331C114.762 53.7429 114.663 53.5526 114.564 53.3624L113.389 51.1868C113.042 50.4837 112.793 49.7806 112.504 49.1354C112.372 48.8045 112.239 48.4902 112.107 48.1841C111.975 47.8892 111.864 47.5851 111.776 47.2742C111.594 46.6786 111.429 46.1161 111.263 45.6198C111.098 45.1235 110.949 44.6272 110.841 44.1805L110.593 42.9563C110.444 42.2283 110.337 41.6741 110.254 41.3019C110.171 40.9296 110.13 40.7394 110.13 40.7394C110.13 40.7394 110.13 40.9296 110.221 41.3101C110.312 41.6906 110.395 42.2531 110.527 42.9645C110.601 43.3368 110.676 43.7421 110.759 44.1971C110.841 44.652 111.023 45.1235 111.172 45.6446L111.669 47.299C111.757 47.6126 111.867 47.9195 111.999 48.2172L112.388 49.1768C112.669 49.822 112.918 50.5334 113.265 51.2365L114.423 53.4203C114.522 53.6188 114.63 53.8091 114.729 53.9993C114.828 54.1896 114.969 54.3716 115.093 54.5618L115.854 55.7116C116.119 56.1031 116.395 56.5002 116.681 56.9028C116.979 57.2833 117.302 57.6638 117.616 58.0526C120.46 61.6389 123.968 64.6439 127.948 66.9036L129.602 67.83C130.189 68.1113 130.802 68.3512 131.414 68.6572L132.332 69.046C132.636 69.1929 132.951 69.3146 133.275 69.41L135.235 70.0386L136.228 70.353L137.262 70.5763L139.355 71.023C140.058 71.1553 140.786 71.205 141.514 71.296L142.614 71.4201C142.796 71.4201 142.986 71.4697 143.168 71.478H143.722C145.24 71.5451 146.76 71.5092 148.272 71.3704C149.041 71.296 149.819 71.2629 150.596 71.1388L152.921 70.6921C153.31 70.6094 153.748 70.5598 154.095 70.4522L155.253 70.1048C156.023 69.8649 156.809 69.6581 157.578 69.3851C159.133 68.807 160.648 68.1244 162.111 67.342L163.219 66.7464C163.41 66.6471 163.6 66.5561 163.782 66.4403L164.311 66.0929L166.445 64.6701C167.132 64.1573 167.785 63.5865 168.464 63.0157C168.795 62.7345 169.159 62.4781 169.465 62.1885L170.399 61.2621C171.663 60.0123 172.845 58.6833 173.94 57.2833L175.462 55.0416L175.842 54.4874L176.173 53.8835L176.835 52.6924L177.497 51.4846L178.043 50.219L178.589 48.9451L178.862 48.3082L179.077 47.6465C179.366 46.7531 179.647 45.868 179.904 44.9746L180.499 42.2118C181.908 34.6216 180.798 26.7792 177.34 19.8775L176.008 17.3959C175.487 16.6184 174.974 15.8408 174.453 15.0715L174.064 14.4925L173.625 13.9548L172.74 12.8877L171.864 11.8206L170.896 10.8445L169.994 9.82708L169.506 9.3473L168.985 8.90889L166.9 7.18832C165.467 6.13871 163.963 5.188 162.4 4.34278L161.251 3.71411C160.862 3.49903 160.423 3.35841 160.051 3.17643C159.224 2.83728 158.471 2.47331 157.661 2.17552L155.179 1.34833L154.567 1.15807L153.955 1.02572L152.714 0.761018C151.094 0.415361 149.452 0.177708 147.8 0.0496297C146.973 -2.01841e-06 146.146 0.0496317 145.319 0H144.111C143.714 0 143.284 0.0579042 142.92 0.090992L140.562 0.306058C139.785 0.405322 139.024 0.587305 138.271 0.719656C136.78 1.00792 135.31 1.3948 133.87 1.87773L133.333 2.04317C133.159 2.10107 132.985 2.18379 132.82 2.24997L131.86 2.7132C131.19 3.00272 130.504 3.25088 129.859 3.5404L127.973 4.54957L127.046 5.04589L126.169 5.62493L124.465 6.76646C124.176 6.95118 123.899 7.1557 123.638 7.37858L122.869 8.01552C122.356 8.44566 121.835 8.84272 121.347 9.27286L120.023 10.6543C116.804 13.9077 114.245 17.7531 112.487 21.9786C111.142 25.1561 110.289 28.52 109.956 31.9546C109.956 32.302 109.882 32.6494 109.84 32.9803C109.797 33.301 109.778 33.6245 109.782 33.9481C109.782 34.5768 109.782 35.1641 109.782 35.71C109.782 36.256 109.782 36.7606 109.782 37.2155C109.782 37.6705 109.865 38.0923 109.907 38.4646C109.973 39.2008 110.031 39.7633 110.072 40.119C110.113 40.4747 110.13 40.7394 110.13 40.7394Z" fill="#263238"/>
<path d="M141.588 153.048C140.395 148.387 137.861 144.178 134.3 140.943C130.739 137.708 126.307 135.59 121.553 134.849C123.201 132.644 124.235 130.042 124.55 127.307C124.864 124.572 124.449 121.802 123.345 119.28C122.241 116.758 120.489 114.574 118.266 112.95C116.043 111.325 113.43 110.319 110.692 110.034C111.917 107.973 112.653 105.658 112.84 103.268C113.028 100.878 112.664 98.4763 111.776 96.2494C110.887 94.0225 109.499 92.0298 107.717 90.4253C105.936 88.8208 103.809 87.6475 101.502 86.9962C98.6727 86.169 95.5625 86.169 93.0809 84.6056C90.3594 82.8933 88.9946 79.7334 87.0424 77.1608C84.4636 73.9618 80.8986 71.706 76.9034 70.7454C72.9083 69.7848 68.7075 70.1732 64.9563 71.8502L58.2891 85.7967L79.2337 153.255C81.3926 160.203 83.684 167.375 88.5313 172.793C93.8585 178.732 101.766 181.892 109.674 182.819C117.359 183.745 125.557 182.67 131.926 178.261C135.82 175.459 138.81 171.579 140.526 167.099C142.243 162.619 142.612 157.735 141.588 153.048Z" fill="#263238"/>
<path d="M120.66 139.407C121.908 139.436 123.154 139.297 124.365 138.994C125.787 138.617 127.139 138.014 128.369 137.207C130.007 136.131 131.399 134.722 132.455 133.071C133.732 131.034 134.435 128.691 134.49 126.288C134.566 123.505 133.913 120.75 132.596 118.297C131.095 115.571 128.845 113.332 126.111 111.845C123.145 110.217 119.798 109.409 116.416 109.504H116.06L116.218 109.19C118.017 105.512 118.36 101.289 117.177 97.3692C115.97 93.4102 113.25 90.087 109.608 88.1212C108.75 87.6409 107.846 87.2447 106.912 86.9383C106.002 86.6241 105.062 86.4051 104.107 86.2848C102.238 86.0036 100.253 86.1856 98.4824 85.3584C97.6278 84.9497 96.899 84.3182 96.3731 83.5303C95.8682 82.7848 95.436 81.9926 95.0826 81.1645C94.4427 79.6079 93.6238 78.131 92.6424 76.7638C90.8514 74.3206 88.5071 72.3363 85.8015 70.9734C83.5644 69.8577 81.1251 69.205 78.6297 69.0543C76.7442 68.9484 74.8533 69.1099 73.0131 69.5341C71.8498 69.8019 70.7143 70.1785 69.6216 70.6591C69.2411 70.8163 68.9681 70.9734 68.7944 71.0562C68.6988 71.1058 68.5991 71.1473 68.4966 71.1802C68.5818 71.1161 68.6733 71.0607 68.7696 71.0148C68.9598 70.9155 69.2245 70.7501 69.5968 70.5846C70.68 70.0649 71.8137 69.6574 72.98 69.3687C74.8314 68.9071 76.7406 68.7203 78.6463 68.8145C81.1811 68.9409 83.6636 69.5826 85.9421 70.7005C88.7049 72.0684 91.1034 74.0728 92.9402 76.5487C93.9409 77.9315 94.7739 79.4282 95.4218 81.0073C96.1415 82.5624 97.0017 84.2499 98.6561 85.0027C100.311 85.7554 102.23 85.5983 104.165 85.8299C105.145 85.9558 106.109 86.1802 107.044 86.4999C108.001 86.813 108.927 87.2174 109.807 87.7076C113.549 89.7266 116.345 93.1382 117.591 97.2038C118.8 101.229 118.446 105.563 116.598 109.339L116.399 109.033C119.864 108.939 123.291 109.773 126.326 111.448C129.119 112.976 131.415 115.273 132.943 118.066C134.276 120.581 134.929 123.401 134.838 126.247C134.759 128.701 134.022 131.09 132.704 133.162C131.618 134.841 130.189 136.27 128.51 137.356C127.249 138.157 125.866 138.746 124.415 139.101C123.508 139.326 122.578 139.44 121.644 139.44H120.916L120.66 139.407Z" fill="#263238"/>
<path d="M36.5918 267.441C39.0734 265.1 40.2646 261.725 41.3068 258.474C44.4792 248.642 47.0945 238.639 49.1404 228.513L39.214 205.351L36.5918 267.441Z" fill="#DB643E"/>
<path d="M134.151 159.326L99.9138 152.783L36.2197 172.247L37.5267 222.16L48.487 273.545H137.138L140.57 209.256L134.151 159.326Z" fill="#DB643E"/>
<path d="M134.151 159.227C134.151 159.227 148.826 161.94 154.905 169.153C160.985 176.366 220.701 234.609 223.505 251.443L175.527 247.844L140.57 209.181L134.151 159.227Z" fill="#DB643E"/>
<path d="M139.851 203.573C139.718 203.115 139.621 202.648 139.561 202.175C139.404 201.265 139.197 199.95 139.015 198.304C138.519 194.032 138.342 189.73 138.486 185.433C138.571 183.063 138.784 180.699 139.123 178.352C139.407 176.436 139.824 174.543 140.372 172.685L140.711 171.56L141.083 170.576C141.273 170.045 141.494 169.526 141.745 169.021C141.93 168.58 142.154 168.156 142.415 167.755C142.273 168.211 142.099 168.656 141.894 169.087C141.704 169.509 141.522 170.038 141.315 170.659C141.207 170.965 141.091 171.296 140.976 171.643L140.661 172.768C140.162 174.623 139.781 176.507 139.52 178.41C139.201 180.745 138.999 183.094 138.916 185.449C138.779 189.73 138.911 194.015 139.313 198.279C139.462 199.933 139.619 201.232 139.727 202.15C139.807 202.62 139.849 203.096 139.851 203.573Z" fill="#263238"/>
<path d="M39.2138 230.101C39.3419 230.441 39.4361 230.793 39.495 231.152C39.6522 231.921 39.859 232.889 40.1072 234.047C40.62 236.586 41.2983 239.92 42.0511 243.609C42.8038 247.298 43.5318 250.715 44.086 253.147C44.3507 254.297 44.574 255.264 44.756 256.025C44.8619 256.373 44.9339 256.731 44.9711 257.092C44.8148 256.765 44.6875 256.425 44.5906 256.075C44.3755 255.405 44.1025 254.421 43.7634 253.221C43.1347 250.797 42.3654 247.431 41.6044 243.7C40.8434 239.97 40.2064 236.57 39.7763 234.105C39.5695 232.872 39.404 231.88 39.3048 231.185C39.2315 230.828 39.2009 230.465 39.2138 230.101Z" fill="#263238"/>
<path d="M101.775 216.99C101.267 215.089 100.897 213.154 100.666 211.2C100.292 209.273 100.065 207.321 99.988 205.36C100.497 207.26 100.867 209.196 101.097 211.15C101.461 213.078 101.688 215.03 101.775 216.99Z" fill="#FAFAFA"/>
<path d="M68.7695 227.181C69.2159 225.526 69.7968 223.91 70.5066 222.35C71.0895 220.735 71.8062 219.172 72.6491 217.677C72.2034 219.334 71.6224 220.953 70.912 222.516C70.3322 224.129 69.6155 225.69 68.7695 227.181Z" fill="#FAFAFA"/>
<path d="M91.3272 247.604C91.2196 247.671 89.7472 245.346 87.6048 242.732C85.4624 240.118 83.4688 238.191 83.5846 238.1C84.1017 238.416 84.5722 238.803 84.9826 239.25C86.0331 240.257 87.0194 241.329 87.9357 242.459C88.8555 243.587 89.7063 244.769 90.4834 246C90.8397 246.492 91.1238 247.032 91.3272 247.604Z" fill="#FAFAFA"/>
<path d="M119.403 233.095C118.549 234.121 117.584 235.048 116.524 235.858C115.558 236.783 114.496 237.601 113.356 238.299C114.218 237.279 115.186 236.353 116.243 235.536C117.206 234.612 118.266 233.794 119.403 233.095Z" fill="#FAFAFA"/>
<path d="M58.9176 256.397C55.2631 254.928 51.719 253.198 48.313 251.219C50.17 251.885 51.9754 252.687 53.7146 253.618C55.5158 254.413 57.2551 255.343 58.9176 256.397Z" fill="#FAFAFA"/>
<path d="M128.609 203.573C127.149 205.198 125.481 206.622 123.646 207.808C124.313 206.95 125.092 206.185 125.962 205.533C126.753 204.765 127.644 204.106 128.609 203.573Z" fill="#FAFAFA"/>
<path d="M122.289 178.575C122.948 175.447 123.89 172.385 125.102 169.426C124.843 171.004 124.442 172.554 123.902 174.059C123.497 175.608 122.957 177.119 122.289 178.575Z" fill="#FAFAFA"/>
<path d="M89.8963 195.847C86.9701 196.145 84.0212 196.145 81.095 195.847C84.0218 195.56 86.9696 195.56 89.8963 195.847Z" fill="#FAFAFA"/>
<path d="M45.8896 225.072C46.4533 223.233 47.1528 221.438 47.9825 219.703C48.6826 217.914 49.512 216.177 50.464 214.508C49.2112 218.141 47.682 221.672 45.8896 225.072Z" fill="#FAFAFA"/>
<path d="M149.355 206.774C148.482 204.025 147.886 201.196 147.576 198.328C148.449 201.077 149.045 203.907 149.355 206.774Z" fill="#FAFAFA"/>
<path d="M160.307 185.275C158.618 184.96 156.958 184.506 155.344 183.919C153.673 183.468 152.043 182.875 150.472 182.148C153.84 182.921 157.141 183.967 160.34 185.275H160.307Z" fill="#FAFAFA"/>
<path d="M165.982 209.239C165.946 208.045 166.054 206.851 166.304 205.682C166.409 204.495 166.659 203.326 167.049 202.2C166.975 204.58 166.617 206.944 165.982 209.239Z" fill="#FAFAFA"/>
<path d="M191.674 220.812C188.297 217.487 185.123 213.963 182.17 210.257C183.914 211.865 185.555 213.58 187.083 215.393C188.723 217.104 190.256 218.913 191.674 220.812Z" fill="#FAFAFA"/>
<path d="M172.632 232.111C171.23 230.605 169.939 228.999 168.769 227.305C167.486 225.698 166.312 224.006 165.254 222.243C166.645 223.75 167.925 225.356 169.084 227.049C170.38 228.654 171.566 230.345 172.632 232.111Z" fill="#FAFAFA"/>
<path d="M196.307 235.486C196.24 235.594 194.197 234.452 191.55 233.36C188.903 232.268 186.653 231.615 186.686 231.491C188.427 231.726 190.123 232.222 191.716 232.963C193.363 233.572 194.91 234.422 196.307 235.486Z" fill="#FAFAFA"/>
<path d="M71.1355 261.948C70.8487 259.046 70.8487 256.123 71.1355 253.221C71.4333 256.123 71.4333 259.047 71.1355 261.948Z" fill="#FAFAFA"/>
<path d="M131.372 246.24C130.422 245.516 129.561 244.683 128.807 243.758C127.957 242.926 127.204 241.999 126.566 240.995C127.517 241.716 128.378 242.549 129.13 243.477C129.984 244.306 130.736 245.233 131.372 246.24Z" fill="#FAFAFA"/>
<path d="M134.342 222.673C134.055 220.061 134.055 217.426 134.342 214.814C134.628 217.426 134.628 220.061 134.342 222.673Z" fill="#FAFAFA"/>
<path d="M100.319 241.012C99.4207 238.028 98.795 234.968 98.4497 231.871C99.3585 234.852 99.9844 237.913 100.319 241.012Z" fill="#FAFAFA"/>
<path d="M57.2304 237.413C55.6709 236.731 54.1736 235.914 52.7552 234.973C51.2605 234.163 49.8404 233.222 48.5117 232.161C50.0664 232.864 51.5604 233.694 52.9786 234.642C54.468 235.45 55.8899 236.377 57.2304 237.413Z" fill="#FAFAFA"/>
<path d="M67.2311 196.922C67.1796 197.588 67.0405 198.245 66.8175 198.874C65.9186 201.961 64.5486 204.891 62.756 207.56C62.4138 208.134 61.9996 208.662 61.5234 209.132C61.8002 208.529 62.1267 207.951 62.4995 207.403C63.1199 206.352 63.9471 204.88 64.733 203.192C65.5188 201.505 66.1226 199.933 66.528 198.783C66.7058 198.143 66.9411 197.52 67.2311 196.922Z" fill="#FAFAFA"/>
<path d="M113.471 186.45C112.688 185.159 111.805 183.932 110.833 182.777C109.756 181.724 108.597 180.759 107.367 179.89C108.805 180.465 110.099 181.352 111.154 182.486C112.21 183.62 113.001 184.974 113.471 186.45Z" fill="#FAFAFA"/>
<path d="M120.461 159.384C119.603 159.937 118.673 160.371 117.698 160.674C116.774 161.105 115.794 161.406 114.787 161.568C115.637 161.006 116.565 160.572 117.541 160.277C118.469 159.846 119.451 159.546 120.461 159.384Z" fill="#FAFAFA"/>
<path d="M100.889 146.447C100.889 146.447 112.47 138.224 107.077 120.514C104.388 111.704 97.4566 98.5024 91.4263 87.8895C86.0082 78.3271 73.5092 69.0791 60.3982 75.4816C60.3982 75.4816 30.7184 87.3518 40.0327 109.926L67.3384 170.741C69.4201 175.373 73.1912 179.035 77.8817 180.979C82.5721 182.924 87.8281 183.005 92.5761 181.205C97.477 179.347 101.449 175.633 103.632 170.868C105.815 166.103 106.033 160.669 104.24 155.744L100.889 146.447Z" fill="#EB996E"/>
<path d="M92.7499 105.31C93.0215 105.857 93.0688 106.488 92.8819 107.069C92.6949 107.65 92.2884 108.135 91.7491 108.42C91.4921 108.574 91.207 108.674 90.9107 108.715C90.6143 108.756 90.3127 108.738 90.0236 108.661C89.7345 108.584 89.4638 108.45 89.2274 108.266C88.991 108.083 88.7937 107.854 88.6471 107.593C88.3751 107.045 88.3276 106.413 88.5145 105.831C88.7014 105.248 89.108 104.762 89.6479 104.475C89.9054 104.322 90.191 104.222 90.4877 104.181C90.7843 104.141 91.0861 104.16 91.3753 104.238C91.6644 104.316 91.935 104.451 92.1711 104.635C92.4072 104.819 92.604 105.049 92.7499 105.31Z" fill="#263238"/>
<path d="M93.3955 99.4867C93.2715 99.892 91.0959 99.4867 88.8294 100.595C86.5629 101.704 85.4545 103.656 85.0739 103.49C84.892 103.432 84.9168 102.804 85.3883 101.927C86.0369 100.765 87.0316 99.8339 88.2338 99.2634C89.4106 98.6866 90.74 98.4983 92.0306 98.7257C92.9819 98.9242 93.47 99.3047 93.3955 99.4867Z" fill="#263238"/>
<path d="M71.3337 115.162C71.6057 115.71 71.6533 116.342 71.4663 116.925C71.2794 117.507 70.8728 117.993 70.3328 118.281C70.0762 118.433 69.7918 118.532 69.4964 118.572C69.2009 118.613 68.9003 118.594 68.6122 118.517C68.3241 118.44 68.0543 118.306 67.8185 118.124C67.5827 117.941 67.3857 117.713 67.2391 117.453C66.9687 116.906 66.921 116.276 67.1062 115.694C67.2913 115.112 67.6948 114.625 68.2318 114.335C68.4888 114.182 68.7738 114.082 69.0702 114.04C69.3665 113.999 69.6681 114.017 69.9572 114.094C70.2463 114.172 70.517 114.306 70.7534 114.489C70.9898 114.672 71.1871 114.901 71.3337 115.162Z" fill="#263238"/>
<path d="M72.5169 110C72.3845 110.406 70.2173 110 67.9507 111.109C65.6842 112.217 64.5758 114.161 64.1953 114.004C64.0133 113.946 64.0381 113.317 64.5096 112.432C65.16 111.277 66.1507 110.35 67.3469 109.777C68.5266 109.2 69.8587 109.012 71.152 109.239C72.1033 109.438 72.5831 109.818 72.5169 110Z" fill="#263238"/>
<path d="M87.1913 122.235C87.1169 122.11 88.4073 121.184 90.5497 119.753C91.1039 119.406 91.592 119.025 91.501 118.587C91.41 118.148 90.8889 117.594 90.2767 117.056C89.0525 115.915 87.7648 114.724 86.4137 113.483C80.9791 108.354 76.7438 104.036 76.9506 103.813C77.1574 103.59 81.7401 107.577 87.1747 112.697L90.9716 116.328C91.6796 116.849 92.1783 117.606 92.3778 118.463C92.3939 118.707 92.3538 118.952 92.2606 119.178C92.1674 119.405 92.0236 119.607 91.8401 119.77C91.5633 120.017 91.2545 120.225 90.922 120.39C88.6554 121.656 87.2327 122.326 87.1913 122.235Z" fill="#263238"/>
<path d="M100.89 146.447C93.2049 150.327 84.5944 151.999 76.0159 151.278C76.0159 151.278 86.8604 160.559 102.561 151.013L100.89 146.447Z" fill="#EB7741"/>
<path d="M89.9789 130.498C90.028 130.054 89.9417 129.606 89.7314 129.212C89.5211 128.817 89.1966 128.496 88.8004 128.289C88.4042 128.083 87.9549 128.001 87.5113 128.054C87.0677 128.107 86.6505 128.293 86.3144 128.588C86.1538 128.18 85.8611 127.838 85.4833 127.616C85.1055 127.394 84.6642 127.305 84.2299 127.363C83.7969 127.432 83.3862 127.602 83.0312 127.859C82.6762 128.117 82.3869 128.454 82.1867 128.844C81.8021 129.598 81.6747 130.458 81.824 131.291C81.9734 132.124 82.3913 132.886 83.0139 133.46C83.6631 134.006 84.4611 134.344 85.3047 134.431C86.1483 134.518 86.9986 134.35 87.7455 133.948C88.4749 133.526 89.0773 132.916 89.4892 132.18C89.9012 131.445 90.1075 130.613 90.0864 129.77" fill="#EB7741"/>
<path d="M89.8881 133.989C89.5158 134.163 88.4984 131.615 85.6032 130.68C82.708 129.746 80.1106 131.094 79.9452 130.747C79.8459 130.598 80.3588 130.01 81.492 129.522C82.9727 128.91 84.6218 128.84 86.1491 129.324C87.6177 129.789 88.8484 130.806 89.582 132.161C90.1032 133.187 90.0701 133.906 89.8881 133.989Z" fill="#263238"/>
<path d="M60.7209 108.942C60.6051 108.222 62.9708 107.287 65.3945 105.558C67.8182 103.829 69.5305 101.96 70.1675 102.307C70.4653 102.481 70.4073 103.25 69.8862 104.293C69.1618 105.637 68.1266 106.788 66.8669 107.651C65.6397 108.533 64.2234 109.117 62.731 109.355C61.5481 109.487 60.8119 109.281 60.7209 108.942Z" fill="#263238"/>
<path d="M81.9714 97.0962C82.0955 96.3848 83.9153 96.1036 85.7765 95.1606C87.6377 94.2176 89.0191 93.0347 89.6643 93.3738C89.9538 93.5476 89.9704 94.201 89.5403 95.0282C88.92 96.0846 88.0001 96.9331 86.8971 97.4662C85.7941 97.9993 84.5577 98.193 83.3446 98.0227C82.4181 97.849 81.9301 97.4354 81.9714 97.0962Z" fill="#263238"/>
<path d="M65.8496 168.252C64.6916 166.316 63.368 164.372 63.062 162.139C62.7559 159.905 63.4342 157.664 63.335 155.422C63.0785 149.772 58.1154 145.686 53.9298 141.889C49.7441 138.092 45.6578 132.542 47.6431 127.256C49.5787 122.144 56.3865 120.067 58.0492 114.848C59.414 110.588 56.7505 105.856 57.9417 101.538C59.2983 96.633 64.857 94.3665 68.1823 90.5118C72.3183 85.7389 75.2631 78.0459 71.4911 73.0166L68.811 72.33C67.1566 69.5837 63.3432 68.8062 60.2991 69.7988C57.2551 70.7914 54.881 73.1076 52.7882 75.5892C50.6954 78.0708 48.7267 80.6185 46.0714 82.397C41.5301 85.4411 34.8546 86.3427 32.8363 91.43C31.1819 95.6652 33.7545 100.976 31.2894 104.806C29.2959 107.891 24.8952 108.512 22.5377 111.332C20.7427 113.491 20.478 116.61 21.1728 119.331C21.8677 122.053 23.398 124.476 24.9117 126.85C18.2942 129.332 11.4119 132.078 6.76306 137.405C2.11422 142.733 0.61701 151.534 5.43129 156.712C7.57372 159.02 11.0397 161.444 9.8816 164.372C9.30682 165.436 8.47325 166.338 7.4579 166.994C5.1655 168.87 3.31056 171.225 2.02274 173.892C0.734926 176.56 0.0453354 179.477 0.00216078 182.439C-0.0410138 185.401 0.563286 188.336 1.7728 191.041C2.98231 193.745 4.76785 196.152 7.00459 198.094C9.24134 200.036 11.8753 201.466 14.7223 202.285C17.5693 203.103 20.5607 203.289 23.4874 202.831C26.414 202.373 29.2052 201.281 31.6658 199.632C34.1265 197.982 36.1972 195.815 37.7333 193.283C36.9061 196.947 39.702 200.727 43.201 202.067C46.7001 203.407 50.6458 202.994 54.3103 202.216C58.4462 201.331 62.7063 199.958 65.8248 197.063C69.6382 193.522 71.2678 188.046 70.9452 182.86C70.6225 177.673 68.5215 172.718 65.8496 168.252Z" fill="#263238"/>
<path d="M71.4164 80.5273C72.9798 84.0926 69.0672 91.8351 66.2134 94.4739C63.3596 97.1126 59.8605 99.4867 58.6776 103.192C56.8826 108.859 61.2998 115.162 59.3394 120.77C57.9662 124.724 53.5987 127.636 53.8137 131.813C54.0784 136.901 60.7539 139.184 62.5572 143.94C64.0875 148.002 62.9791 151.947 64.4763 156.017C65.4193 158.557 67.4956 161.138 69.2823 163.164C73.1701 167.581 76.0157 173.479 74.9899 179.468C73.5589 187.798 70.3742 194.962 65.1298 197.625L47.5932 174.331L46.2201 137.108L45.1282 118.496L51.8946 113.532L54.4259 95.2018L71.4164 80.5273Z" fill="#263238"/>
<path d="M29.6682 152.684L5.79539 229.505C5.79539 229.505 -4.62729 274.133 19.1463 273.148C42.9199 272.164 38.999 260.029 38.999 260.029L39.2389 168.276C39.2389 168.276 43.5982 160.542 43.5651 154.595C43.5651 147.977 45.112 128.993 45.112 128.993C45.112 128.993 51.0843 111.754 49.0081 110.993C45.0293 109.529 38.3538 128.538 38.3538 128.538C38.3538 128.538 40.2481 132.12 36.9972 141.889C33.7463 151.658 29.6682 152.684 29.6682 152.684Z" fill="#EB996E"/>
<path d="M68.7363 73.0331C68.7363 73.0331 68.8108 73.1075 68.9431 73.2647C69.1339 73.5009 69.3002 73.7559 69.4395 74.0257C69.9391 75.0854 70.2471 76.2253 70.3494 77.3924C70.5671 79.2307 70.4776 81.0925 70.0847 82.9015C69.6214 85.0605 68.1077 87.1285 66.2299 89.0724C64.3522 91.0163 61.9533 92.8196 59.8523 95.1771C58.7566 96.379 57.8677 97.7543 57.2218 99.2469C56.56 100.785 56.0885 102.473 55.3109 104.111C54.9285 104.953 54.4271 105.736 53.822 106.435C53.183 107.136 52.441 107.736 51.6217 108.214C50.0086 109.206 48.1971 109.868 46.6585 110.993C43.4903 113.202 41.4637 116.899 40.3801 120.812C39.2965 124.725 39.1227 128.819 38.8415 132.69C38.5602 136.562 38.2045 140.359 37.0051 143.775C35.9237 147.044 33.9287 149.934 31.2561 152.105C30.0239 153.049 28.6188 153.743 27.1201 154.148C25.7271 154.461 24.3043 154.622 22.8766 154.628C21.6005 154.641 20.3288 154.779 19.0798 155.041C17.9732 155.284 16.9356 155.773 16.044 156.472C15.2823 157.091 14.7329 157.933 14.4723 158.879C14.2242 159.756 14.1249 160.592 13.9346 161.361C13.8393 161.945 13.6164 162.5 13.2818 162.988C12.9473 163.475 12.5092 163.883 11.999 164.182C11.7215 164.32 11.4155 164.391 11.1056 164.389C11.0038 164.398 10.9014 164.398 10.7996 164.389C11.2005 164.407 11.5995 164.322 11.9576 164.14C12.443 163.835 12.8568 163.429 13.1708 162.949C13.4849 162.47 13.6918 161.928 13.7775 161.361C13.9429 160.625 14.0339 159.789 14.2738 158.879C14.5439 157.88 15.1229 156.991 15.9282 156.34C16.8415 155.61 17.9073 155.096 19.0467 154.834C20.3135 154.556 21.6047 154.404 22.9014 154.379C24.2939 154.363 25.6806 154.197 27.0374 153.883C28.4994 153.491 29.867 152.808 31.0576 151.873C33.6597 149.735 35.5945 146.896 36.6329 143.692C37.7031 140.108 38.2928 136.397 38.3865 132.657C38.6595 128.794 38.8001 124.716 39.9334 120.696C40.4729 118.71 41.2799 116.807 42.3322 115.038C43.3666 113.311 44.7465 111.815 46.3855 110.646C47.9986 109.488 49.8184 108.826 51.3983 107.858C52.1775 107.415 52.8857 106.857 53.4994 106.204C54.0845 105.536 54.5694 104.786 54.9387 103.978C55.6997 102.39 56.1712 100.67 56.8578 99.1394C57.5281 97.6206 58.4449 96.2231 59.571 95.0034C61.7134 92.6211 64.1123 90.8674 65.9983 88.9235C66.9197 88.0282 67.7508 87.0447 68.4799 85.987C69.1311 85.0569 69.6024 84.0132 69.8696 82.9098C70.2748 81.1284 70.3893 79.2931 70.2087 77.4751C70.1144 76.3346 69.835 75.2171 69.3815 74.1663C69.1976 73.7717 68.9818 73.3927 68.7363 73.0331Z" fill="#455A64"/>
<path d="M68.7366 73.0331C68.7366 73.0331 68.778 73.0827 68.8442 73.1903C68.9104 73.2978 69.0096 73.4963 69.1254 73.6948C69.3763 74.3996 69.408 75.1638 69.2164 75.8869C68.7284 77.806 66.7348 79.9153 64.2036 82.1322C62.9215 83.2407 61.5318 84.498 59.9353 85.7057C58.2213 86.9475 56.6362 88.3581 55.2037 89.9161C54.4703 90.7737 53.8732 91.739 53.4335 92.7782C53.0083 93.8889 52.6817 95.0349 52.4574 96.2028C52.2207 97.4388 51.8662 98.6493 51.3986 99.8177C50.8558 101.018 50.0434 102.076 49.0246 102.911C48.0072 103.724 46.8755 104.382 45.6662 104.864C44.4915 105.368 43.3087 105.765 42.1589 106.171C41.0091 106.576 39.8758 106.998 38.8501 107.461C37.8084 107.908 36.834 108.499 35.9549 109.215C34.3526 110.581 33.2306 112.425 32.7536 114.476C32.2242 116.386 31.9265 118.231 31.488 119.885C30.6608 123.194 28.6838 125.527 26.955 126.379C26.294 126.719 25.564 126.903 24.8208 126.917C24.6299 126.916 24.4392 126.902 24.2501 126.875H24.0598C24.0598 126.875 24.3245 126.875 24.8208 126.875C25.5411 126.829 26.2419 126.623 26.8723 126.271C28.5267 125.403 30.3961 123.128 31.1985 119.852C31.6204 118.198 31.8851 116.37 32.4145 114.418C32.901 112.287 34.0612 110.369 35.7233 108.95C36.6308 108.21 37.6356 107.597 38.7095 107.13C39.7848 106.625 40.9263 106.228 42.0761 105.815C43.2259 105.401 44.4006 104.988 45.5504 104.508C46.7251 104.046 47.8238 103.41 48.8095 102.622C49.7808 101.832 50.5541 100.827 51.0677 99.6853C51.5223 98.5429 51.8685 97.3604 52.1017 96.1532C52.3351 94.9622 52.6727 93.7941 53.1109 92.6624C53.5678 91.5834 54.1932 90.5838 54.9639 89.7011C56.4171 88.1259 58.0305 86.7064 59.7781 85.4658C61.3746 84.2747 62.7643 83.0421 64.063 81.942C66.6356 79.7664 68.596 77.7233 69.1089 75.8869C69.313 75.1958 69.313 74.4604 69.1089 73.7693L68.869 73.2564C68.81 73.1918 68.765 73.1158 68.7366 73.0331Z" fill="#455A64"/>
<path d="M59.8277 118.19C59.8747 118.516 59.8747 118.848 59.8277 119.174C59.703 120.116 59.3938 121.024 58.9177 121.846C58.1582 123.128 57.1583 124.252 55.9729 125.155C54.4588 126.389 53.1687 127.875 52.1595 129.547C49.6147 134.001 48.9196 139.277 50.2239 144.238C50.4056 144.937 50.6265 145.624 50.8856 146.298C51.1397 146.996 51.441 147.676 51.7873 148.333C52.4656 149.664 53.2845 150.971 54.1034 152.312C55.7578 154.959 57.4784 157.895 57.801 161.32C57.9767 163.005 57.6727 164.705 56.9242 166.225C56.1731 167.664 55.1893 168.97 54.0125 170.088C52.8958 171.213 51.7211 172.222 50.654 173.273C49.6005 174.299 48.6063 175.384 47.6761 176.524C45.9413 178.617 44.5457 180.97 43.5402 183.497C42.6592 185.695 42.2451 188.053 42.3242 190.42C42.4014 192.37 42.8477 194.287 43.6394 196.07C44.7244 198.604 46.618 200.707 49.0245 202.051L48.8011 201.943L48.1476 201.604C47.8664 201.439 47.5438 201.207 47.155 200.942C46.7231 200.609 46.314 200.247 45.9307 199.859C44.899 198.78 44.0597 197.532 43.4492 196.169C42.626 194.361 42.1517 192.413 42.0512 190.429C41.9516 188.02 42.3545 185.617 43.2341 183.373C44.235 180.806 45.6305 178.412 47.3701 176.275C48.3036 175.113 49.3063 174.008 50.3728 172.967C51.4564 171.9 52.6145 170.882 53.6816 169.774C54.825 168.684 55.7833 167.416 56.5189 166.018C57.2289 164.566 57.5156 162.944 57.3461 161.336C57.1698 159.721 56.7252 158.148 56.0308 156.679C55.3495 155.253 54.5787 153.872 53.7229 152.543C52.8957 151.203 52.0685 149.888 51.3902 148.523C51.0438 147.855 50.7426 147.164 50.4886 146.455C50.2229 145.766 49.9992 145.062 49.8186 144.346C48.5057 139.287 49.2461 133.914 51.8783 129.398C52.9142 127.706 54.2384 126.208 55.7909 124.973C56.9742 124.089 57.9791 122.988 58.7523 121.73C59.2303 120.931 59.5557 120.05 59.7118 119.133C59.8442 118.496 59.8028 118.19 59.8277 118.19Z" fill="#455A64"/>
<path d="M50.3975 291.669C51.721 291.669 98.7884 287.98 98.7884 287.98L50.3975 291.669Z" fill="white"/>
<path d="M98.7718 287.98C98.6119 288.02 98.4484 288.045 98.2837 288.054L96.8775 288.203L91.6993 288.666L74.5846 290.04L57.4699 291.28L52.2834 291.611L50.8689 291.677C50.7068 291.697 50.5429 291.697 50.3809 291.677C50.5398 291.631 50.7036 291.603 50.8689 291.595L52.2834 291.446L57.4617 290.983L74.568 289.618L91.6744 288.377L96.861 288.046L98.2755 287.98C98.4403 287.96 98.6069 287.96 98.7718 287.98Z" fill="#263238"/>
<path d="M42.6221 288.476C43.9539 288.476 91.0213 284.779 91.0213 284.779L42.6221 288.476Z" fill="white"/>
<path d="M91.0213 284.779C90.8624 284.825 90.6986 284.853 90.5332 284.861L89.127 285.01L83.9405 285.474L66.8341 286.838L49.7111 288.087L44.5246 288.41L43.1184 288.476C42.9534 288.493 42.7871 288.493 42.6221 288.476C42.784 288.43 42.9504 288.403 43.1184 288.394L44.5246 288.245L49.7111 287.781L66.8175 286.408L83.9239 285.167L89.1105 284.845L90.525 284.779C90.6897 284.757 90.8566 284.757 91.0213 284.779Z" fill="#263238"/>
<path d="M190.251 245.578L142.564 253.403C142.564 253.403 117.632 248.663 114.439 249.209C108.227 250.293 93.2627 263.826 93.2627 263.826C92.2701 270.154 100.972 266.531 100.972 266.531C100.972 266.531 101.047 267.962 103.454 269.203C105.555 270.278 109.724 268.276 109.724 268.276C109.724 268.276 108.665 269.674 111.999 271.072C115.332 272.47 119.807 270.021 119.807 270.021C119.807 270.021 120.568 272.611 123.943 272.594C127.318 272.578 135.342 270.063 135.342 270.063C146.46 276.168 152.879 271.312 152.879 271.312L191.36 274.621L224.911 272.875C224.911 272.875 232.703 257.316 217.681 239.697L190.251 245.578Z" fill="#EB996E"/>
<path d="M125.342 255.546C124.977 255.619 124.605 255.653 124.233 255.645L121.214 255.744L116.731 255.835C115.874 255.774 115.013 255.855 114.183 256.075C113.763 256.224 113.372 256.442 113.025 256.72C112.661 257.018 112.297 257.332 111.925 257.647C108.947 260.128 106.233 262.386 104.248 263.999L101.891 265.885C101.611 266.13 101.309 266.349 100.989 266.539C101.235 266.25 101.512 265.989 101.816 265.761L104.091 263.768C106.018 262.113 108.707 259.814 111.685 257.307L112.793 256.381C113.554 255.778 114.494 255.446 115.465 255.438H121.255L124.275 255.479C124.632 255.471 124.988 255.493 125.342 255.546Z" fill="#EB7741"/>
<path d="M128.551 259.946C128.31 260.043 128.057 260.104 127.798 260.128C127.31 260.211 126.599 260.327 125.714 260.451C123.952 260.716 121.495 261.046 118.749 261.402L118.856 261.352L118.252 261.824C115.944 263.66 113.835 265.298 112.297 266.465C111.527 267.052 110.899 267.515 110.46 267.829C110.246 268.014 110.006 268.168 109.749 268.284C109.925 268.062 110.131 267.864 110.361 267.697C110.766 267.341 111.362 266.87 112.106 266.225C113.595 264.992 115.671 263.321 117.988 261.493L118.583 261.022L118.633 260.98H118.691C121.445 260.641 123.902 260.352 125.681 260.153L127.773 259.954C128.031 259.921 128.292 259.918 128.551 259.946Z" fill="#EB7741"/>
<path d="M135.872 264.901C135.057 265.096 134.226 265.221 133.39 265.273C131.843 265.455 129.692 265.67 127.318 265.885H127.409C125.35 267.101 123.472 268.177 122.099 268.938C121.377 269.387 120.619 269.774 119.832 270.096C120.49 269.557 121.193 269.076 121.933 268.657C123.265 267.829 125.118 266.713 127.178 265.497H127.227C129.61 265.282 131.76 265.116 133.316 265.017C134.163 264.906 135.018 264.868 135.872 264.901Z" fill="#EB7741"/>
<path d="M56.106 292H156.998C158.378 292.001 159.705 291.513 160.701 290.637C161.697 289.761 162.286 288.565 162.345 287.3L165.379 223.556C165.417 222.89 165.307 222.223 165.056 221.597C164.804 220.971 164.417 220.398 163.917 219.914C163.416 219.43 162.814 219.044 162.146 218.78C161.479 218.516 160.759 218.38 160.032 218.38H53.2862C52.5637 218.381 51.8488 218.515 51.1844 218.776C50.5199 219.036 49.9196 219.417 49.4194 219.896C48.9191 220.374 48.5292 220.94 48.2731 221.56C48.0169 222.181 47.8998 222.842 47.9286 223.504L50.7597 287.238C50.8036 288.513 51.3858 289.723 52.3834 290.611C53.381 291.5 54.7159 291.998 56.106 292Z" fill="#E0E0E0"/>
<path d="M56.2328 291.797H56.0193C55.7747 291.791 55.5308 291.77 55.2889 291.736C54.3343 291.581 53.4442 291.189 52.7155 290.603C52.1221 290.127 51.6481 289.539 51.3261 288.879C51.0041 288.22 50.8417 287.504 50.8501 286.782C50.7714 285.092 50.6815 283.135 50.5692 280.952C50.1646 272.156 49.569 259.457 48.8386 243.77C48.6588 239.843 48.4715 235.723 48.2767 231.411C48.1756 229.269 48.0857 227.085 47.9846 224.86C47.9846 224.294 47.9059 223.758 47.9284 223.161C47.9726 222.576 48.1207 222.002 48.3666 221.461C48.8771 220.356 49.8016 219.454 50.9737 218.918C51.5626 218.649 52.1973 218.475 52.8504 218.403C53.5246 218.351 54.1427 218.403 54.7832 218.403H159.291C160.137 218.36 160.983 218.479 161.775 218.753C162.573 219.031 163.292 219.473 163.876 220.044C164.46 220.615 164.895 221.3 165.146 222.049C165.369 222.785 165.437 223.554 165.348 224.314L165.247 226.519C165.169 227.991 165.101 229.454 165.034 230.917C164.757 236.746 164.483 242.486 164.213 248.137C163.674 259.467 163.146 270.323 162.652 280.705C162.584 282.003 162.528 283.29 162.46 284.567C162.46 285.206 162.404 285.844 162.371 286.483C162.377 287.137 162.282 287.789 162.09 288.419C161.647 289.689 160.684 290.753 159.404 291.385C158.781 291.699 158.098 291.898 157.392 291.973C156.684 292.034 156.033 291.973 155.358 291.973H139.738H111.701L71.1 291.9H60.0648H57.188H56.2104H57.188H60.0648H71.1L111.701 291.828H139.738H155.358C156.021 291.828 156.718 291.828 157.347 291.828C158.37 291.706 159.328 291.303 160.096 290.673C160.864 290.042 161.406 289.214 161.651 288.296C161.831 287.699 161.918 287.081 161.91 286.462C161.91 285.834 161.91 285.195 162 284.557C162.056 283.269 162.112 281.982 162.18 280.684C162.663 270.302 163.18 259.416 163.708 248.117C163.977 242.473 164.251 236.732 164.528 230.896C164.596 229.433 164.663 227.971 164.742 226.508L164.843 224.294C164.931 223.583 164.87 222.862 164.663 222.172C164.437 221.492 164.046 220.868 163.519 220.347C162.991 219.826 162.341 219.421 161.618 219.165C160.879 218.912 160.09 218.804 159.303 218.845H156.864H83.1241H54.7495C54.1202 218.845 53.4572 218.845 52.8616 218.845C52.2552 218.908 51.6656 219.069 51.1198 219.319C50.0321 219.818 49.1722 220.653 48.6925 221.678C48.4679 222.18 48.3313 222.712 48.288 223.254C48.288 223.789 48.288 224.366 48.288 224.912C48.3891 227.137 48.479 229.33 48.5689 231.473C48.7599 235.747 48.9397 239.867 49.1083 243.832C49.7713 259.519 50.3107 272.218 50.6815 281.014C50.7714 283.208 50.8501 285.134 50.9175 286.843C50.9037 287.552 51.056 288.256 51.3643 288.906C51.6725 289.556 52.1295 290.138 52.7043 290.613C53.4166 291.194 54.2859 291.588 55.2215 291.756C55.907 291.797 56.2441 291.767 56.2328 291.797Z" fill="#263238"/>
<path d="M100.865 256.017C100.865 257.08 101.18 258.12 101.771 259.004C102.362 259.888 103.202 260.577 104.184 260.984C105.167 261.391 106.248 261.498 107.291 261.29C108.334 261.083 109.292 260.571 110.044 259.819C110.796 259.067 111.308 258.109 111.515 257.066C111.723 256.023 111.616 254.942 111.209 253.959C110.802 252.977 110.113 252.137 109.229 251.546C108.345 250.955 107.305 250.64 106.242 250.64C104.816 250.64 103.448 251.207 102.44 252.215C101.431 253.223 100.865 254.591 100.865 256.017Z" fill="white"/>
</svg>
