<svg width="35" height="35" viewBox="0 0 35 35" fill="none" xmlns="http://www.w3.org/2000/svg">
<path d="M17.5 2.1875C9.04395 2.1875 2.1875 9.04395 2.1875 17.5C2.1875 25.9561 9.04395 32.8125 17.5 32.8125C25.9561 32.8125 32.8125 25.9561 32.8125 17.5C32.8125 9.04395 25.9561 2.1875 17.5 2.1875ZM23.584 21.1572H21.981C21.6323 21.1572 21.3008 20.9897 21.0957 20.7061L17.5 15.7363L13.9043 20.7061C13.6992 20.9897 13.3711 21.1572 13.019 21.1572H11.416C11.1938 21.1572 11.064 20.9043 11.1938 20.7231L17.2778 12.3149C17.3872 12.1646 17.6094 12.1646 17.7188 12.3149L23.8027 20.7231C23.936 20.9043 23.8062 21.1572 23.584 21.1572Z" fill="#DB643E"/>
</svg>
