<svg width="234" height="232" viewBox="0 0 234 232" fill="none" xmlns="http://www.w3.org/2000/svg">
<path d="M56.81 43.7C56.6577 50.6019 57.9692 57.4577 60.658 63.8161C63.3469 70.1746 67.3521 75.8913 72.41 80.5899C74.73 73.8633 77.0633 67.1333 79.41 60.3999" fill="#263238"/>
<path d="M109.36 3.53C103.36 0.259996 96.1501 -0.209998 89.4601 1.13C82.7701 2.47 76.5401 5.49 70.6401 8.91C67.3301 10.82 64.0301 12.91 61.6401 15.91C57.2901 21.37 53.0001 30.35 52.5801 37.32C52.2401 42.96 54.4001 57.07 56.7801 62.18C58.9701 66.88 69.2001 70.46 74.2501 71.62L120.59 17.73C119.752 14.7375 118.327 11.9412 116.399 9.50361C114.472 7.06599 112.079 5.03551 109.36 3.53Z" fill="#263238"/>
<path d="M117.35 10.8L106.24 8.80005C112.31 23.26 113.96 56.3301 117.43 71.6301C121.53 65.6901 131.04 47.6301 130.53 40.3901C130.02 33.1501 130.55 9.57005 117.35 10.8Z" fill="#263238"/>
<path d="M64.68 34.87C64.8835 30.809 66.3843 26.9204 68.9619 23.7758C71.5395 20.6312 75.058 18.3964 79 17.4L104.58 10.87C115.63 9.67998 123.02 23.28 123.74 34.37C124.54 46.7 125.04 59.71 123.6 68.91C120.7 87.42 106.53 89.8 106.53 89.8C106.53 89.8 106.53 98.6 106.53 104.01L97.97 139.44L70.38 101.34L64.67 35.09C64.61 34.78 64.65 35.29 64.68 34.87Z" fill="#FFBE9D"/>
<path d="M118.14 48.35C118.148 48.9684 117.914 49.5656 117.488 50.014C117.062 50.4624 116.478 50.7265 115.86 50.7499C115.559 50.7744 115.255 50.7385 114.968 50.6441C114.681 50.5498 114.415 50.3989 114.187 50.2005C113.959 50.0021 113.772 49.76 113.639 49.4886C113.505 49.2172 113.428 48.9219 113.41 48.6199C113.399 48.0008 113.632 47.4021 114.059 46.9532C114.485 46.5042 115.071 46.2408 115.69 46.2199C115.992 46.1941 116.296 46.2291 116.584 46.3229C116.871 46.4167 117.138 46.5674 117.366 46.7661C117.595 46.9648 117.781 47.2074 117.914 47.4795C118.047 47.7515 118.124 48.0476 118.14 48.35Z" fill="#263238"/>
<path d="M120.92 41.62C120.63 41.93 118.83 40.62 116.28 40.62C113.73 40.62 111.85 41.91 111.58 41.62C111.44 41.48 111.74 40.9199 112.58 40.3299C113.68 39.5563 114.995 39.1471 116.34 39.16C117.667 39.1518 118.963 39.5649 120.04 40.34C120.8 40.92 121.07 41.48 120.92 41.62Z" fill="#263238"/>
<path d="M95.89 48.3501C95.8983 48.9686 95.6645 49.5657 95.2385 50.0141C94.8125 50.4626 94.2281 50.7267 93.61 50.7501C93.3083 50.776 93.0045 50.741 92.7165 50.6472C92.4286 50.5533 92.1625 50.4026 91.934 50.2039C91.7054 50.0052 91.5191 49.7627 91.3862 49.4906C91.2532 49.2185 91.1763 48.9225 91.16 48.6201C91.1492 48.0009 91.3821 47.4023 91.8087 46.9533C92.2352 46.5043 92.8211 46.241 93.44 46.2201C93.7415 46.1956 94.0448 46.2316 94.3321 46.3259C94.6194 46.4203 94.885 46.5711 95.1132 46.7695C95.3415 46.968 95.5278 47.21 95.6612 47.4814C95.7946 47.7529 95.8724 48.0482 95.89 48.3501Z" fill="#263238"/>
<path d="M96.68 41.62C96.38 41.93 94.58 40.62 92.03 40.62C89.48 40.62 87.61 41.91 87.33 41.62C87.2 41.48 87.49 40.92 88.33 40.33C89.4295 39.5552 90.745 39.1459 92.09 39.16C93.4171 39.1519 94.7126 39.565 95.79 40.34C96.55 40.92 96.82 41.48 96.68 41.62Z" fill="#263238"/>
<path d="M104.66 61.67C104.66 61.53 106.23 61.25 108.8 60.91C109.46 60.84 110.07 60.71 110.18 60.27C110.233 59.5968 110.08 58.9236 109.74 58.34C109.127 56.76 108.48 55.0933 107.8 53.34C105.11 46.28 103.16 40.47 103.44 40.34C103.72 40.21 106.14 45.88 108.84 52.94C109.48 54.68 110.11 56.34 110.69 57.94C111.104 58.7221 111.228 59.6253 111.04 60.49C110.951 60.7282 110.809 60.9425 110.623 61.1161C110.437 61.2896 110.214 61.4176 109.97 61.49C109.608 61.5902 109.235 61.644 108.86 61.65C106.27 61.8 104.67 61.82 104.66 61.67Z" fill="#263238"/>
<path d="M82 83.22C82 83.22 88 95.93 106.53 94.15V89.8C97.9021 89.918 89.4106 87.6402 82 83.22Z" fill="#EB996E"/>
<path d="M95.8801 32.4C95.6301 33.09 93.0801 32.77 90.0801 33.14C87.0801 33.51 84.6701 34.32 84.2701 33.7C84.0901 33.41 84.5101 32.75 85.4901 32.08C86.7797 31.2335 88.2551 30.712 89.7901 30.56C91.3233 30.3712 92.8794 30.5495 94.3301 31.08C95.4301 31.52 96.0001 32.07 95.8801 32.4Z" fill="#263238"/>
<path d="M120.09 33.81C119.64 34.39 117.88 33.81 115.77 33.81C113.66 33.81 111.86 34.21 111.45 33.6C111.27 33.31 111.55 32.7299 112.33 32.1799C113.383 31.5105 114.613 31.1719 115.861 31.2075C117.108 31.2432 118.317 31.6515 119.33 32.38C120 32.93 120.29 33.53 120.09 33.81Z" fill="#263238"/>
<path d="M118.67 17.48C117.54 14.7 114.49 13.02 111.49 12.87C108.464 12.87 105.502 13.7339 102.95 15.36C91.9501 21.73 86.2801 37.11 75.3901 43.7C72.7101 45.32 69.2301 43.83 66.9501 45.98C64.6701 48.13 63.2001 51.56 64.4601 54.42C62.8948 52.4751 61.6214 50.3123 60.6801 48C60.2135 46.8459 59.9997 45.6051 60.0532 44.3614C60.1067 43.1177 60.4261 41.8999 60.9901 40.79C61.9301 39.16 63.5901 37.91 64.0501 36.09C64.4501 34.48 63.8101 32.8 63.8801 31.14C64.0673 29.4548 64.6497 27.8376 65.5801 26.42C69.8401 18.88 75.7101 12.06 83.2601 7.82002C88.1916 4.97135 93.8058 3.51939 99.5001 3.62001C105.214 3.75404 110.691 5.9285 114.94 9.75001C117.38 12.02 119.94 14.37 118.67 17.45" fill="#263238"/>
<path d="M67.22 48.27C67.02 47.74 57.37 44.27 57.22 54.52C57.09 64.52 67.15 62.5201 67.22 62.2301C67.29 61.9401 67.22 48.27 67.22 48.27Z" fill="#FFBE9D"/>
<path d="M64.1602 58.4299C64.1602 58.4299 63.9802 58.5499 63.6902 58.6799C63.2733 58.8489 62.807 58.8489 62.3902 58.6799C61.3902 58.2899 60.4702 56.6099 60.3902 54.8099C60.371 53.9554 60.5454 53.1076 60.9002 52.3299C60.9995 52.0116 61.1769 51.7232 61.4162 51.4909C61.6555 51.2586 61.949 51.0898 62.2701 50.9999C62.4677 50.9557 62.6745 50.9801 62.8563 51.0692C63.0381 51.1583 63.1841 51.3067 63.2701 51.4899C63.4001 51.7699 63.3301 51.9699 63.3801 51.9799C63.4301 51.9899 63.6001 51.8199 63.5201 51.4099C63.4695 51.1625 63.3354 50.9401 63.1402 50.7799C63.0004 50.67 62.8394 50.5902 62.6673 50.5454C62.4952 50.5007 62.3158 50.492 62.1402 50.5199C61.73 50.5942 61.3461 50.7732 61.0255 51.0395C60.7049 51.3058 60.4585 51.6504 60.3101 52.0399C59.8814 52.8995 59.6654 53.8495 59.6802 54.8099C59.7302 56.8099 60.7402 58.7099 62.1802 59.1399C62.4468 59.2215 62.7285 59.2413 63.0039 59.198C63.2794 59.1547 63.5414 59.0494 63.7701 58.8899C64.1401 58.6699 64.1902 58.4499 64.1602 58.4299Z" fill="#EB996E"/>
<path d="M63.25 43.15C63.4649 43.0629 63.6695 42.9522 63.86 42.82C64.24 42.57 64.86 42.25 65.53 41.75C67.4912 40.3148 69.2946 38.6756 70.91 36.8599C73.2598 34.1364 75.4533 31.2818 77.48 28.31C79.9352 24.6747 82.688 21.2496 85.71 18.07C87.3187 16.4844 89.096 15.0794 91.01 13.88C92.8077 12.7845 94.7318 11.9115 96.74 11.28C100.147 10.1892 103.731 9.75482 107.3 9.99996C109.708 10.1453 112.086 10.6128 114.37 11.39C115.19 11.64 115.79 11.91 116.22 12.07C116.426 12.1742 116.644 12.2515 116.87 12.3C116.67 12.1837 116.463 12.0801 116.25 11.99C115.658 11.6991 115.051 11.442 114.43 11.22C112.143 10.3786 109.75 9.86028 107.32 9.67996C103.708 9.39624 100.075 9.81044 96.62 10.9C94.5737 11.5316 92.6124 12.4115 90.78 13.52C88.8319 14.7332 87.0242 16.1586 85.39 17.77C82.3447 20.9631 79.5842 24.4162 77.14 28.09C75.1346 31.0603 72.9715 33.9211 70.66 36.66C69.0831 38.4959 67.3278 40.1708 65.42 41.66C64.74 42.18 64.17 42.52 63.81 42.79C63.45 43.06 63.25 43.14 63.25 43.15Z" fill="#455A64"/>
<path d="M63 60.19C62.4997 60.0962 61.9824 60.1967 61.5537 60.4711C61.1249 60.7455 60.8169 61.173 60.6923 61.6666C60.5678 62.1601 60.6362 62.6826 60.8836 63.1276C61.1309 63.5725 61.5386 63.9063 62.0235 64.0611C62.5085 64.2159 63.0342 64.1799 63.4935 63.9605C63.9529 63.7411 64.3113 63.3549 64.4957 62.8804C64.6801 62.4059 64.6767 61.879 64.4861 61.407C64.2956 60.935 63.9322 60.5534 63.47 60.34" fill="white"/>
<path d="M63.49 60.3401C63.9201 60.6841 64.2343 61.1518 64.39 61.6801C64.4588 61.9521 64.4592 62.2369 64.3911 62.5091C64.3231 62.7813 64.1887 63.0324 64 63.2401C63.7748 63.5015 63.4773 63.6905 63.145 63.7833C62.8127 63.8761 62.4603 63.8686 62.1322 63.7617C61.8042 63.6549 61.515 63.4534 61.3011 63.1826C61.0872 62.9119 60.9581 62.584 60.93 62.2401C60.8966 61.9607 60.933 61.6775 61.036 61.4157C61.1389 61.1539 61.3053 60.9217 61.52 60.7401C61.951 60.403 62.474 60.2043 63.02 60.1701C63.02 60.1701 62.87 60.0701 62.56 60.0601C62.1077 60.0637 61.6689 60.2146 61.31 60.4901C61.0345 60.6967 60.817 60.971 60.6786 61.2863C60.5402 61.6017 60.4856 61.9474 60.52 62.2901C60.5444 62.7205 60.6988 63.1334 60.9629 63.4742C61.2269 63.815 61.5881 64.0676 61.9988 64.1988C62.4095 64.3299 62.8503 64.3333 63.263 64.2085C63.6757 64.0838 64.0408 63.8367 64.31 63.5001C64.4926 63.2825 64.6282 63.0296 64.7083 62.7572C64.7884 62.4848 64.8114 62.1987 64.7757 61.917C64.74 61.6353 64.6465 61.364 64.5009 61.1202C64.3554 60.8763 64.161 60.6652 63.93 60.5001C63.67 60.3401 63.5 60.3101 63.49 60.3401Z" fill="#263238"/>
<path d="M65.7601 46C65.6001 48.72 65.4801 51.6 66.7601 54C68.0401 56.4 71.1801 58.07 73.5501 56.71C75.4801 55.61 76.0601 53.14 76.3901 50.94C77.3301 44.59 77.7601 38.18 78.7601 31.84L65.7601 46Z" fill="#263238"/>
<path d="M116.22 12.74C116.22 12.8 115.34 12.57 113.74 12.52C111.485 12.4843 109.245 12.8955 107.15 13.73C105.7 14.2843 104.316 14.9952 103.02 15.85C101.536 16.8506 100.114 17.9393 98.7602 19.11C95.6279 21.7663 92.8247 24.7878 90.4102 28.11C89.1502 29.89 88.0302 31.72 86.8102 33.41C85.661 35.0611 84.3181 36.5685 82.8102 37.9C80.2285 40.0931 77.4033 41.9822 74.3902 43.53C71.8402 44.88 69.7102 45.83 68.2402 46.53L66.5302 47.25C66.3365 47.3478 66.1317 47.4217 65.9202 47.47C66.0957 47.3394 66.2873 47.2318 66.4902 47.15L68.1502 46.33C69.5902 45.62 71.6902 44.62 74.1502 43.24C77.1042 41.6514 79.8771 39.7469 82.4202 37.56C83.8837 36.2423 85.1891 34.759 86.3102 33.14C87.5002 31.47 88.6202 29.64 89.9002 27.84C92.3335 24.4808 95.1753 21.4374 98.3602 18.78C99.7422 17.6054 101.195 16.5167 102.71 15.52C104.043 14.6671 105.464 13.9629 106.95 13.42C109.099 12.6015 111.394 12.2405 113.69 12.36C114.312 12.404 114.93 12.4908 115.54 12.62C115.771 12.6298 116 12.6702 116.22 12.74Z" fill="#455A64"/>
<path d="M65.4802 39.82C65.212 40.0517 64.9165 40.2498 64.6002 40.41L62.0802 41.89L61.2302 42.38C60.8969 42.5767 60.5252 42.6995 60.1402 42.74C59.905 42.7677 59.6676 42.711 59.4702 42.58C59.3605 42.5065 59.2691 42.4088 59.2032 42.2943C59.1373 42.1799 59.0986 42.0518 59.0902 41.92C59.116 41.4622 59.2799 41.0229 59.5602 40.66L62.4902 36L62.8902 36.36C60.9339 37.7918 58.5406 38.4988 56.1202 38.36C55.8105 38.354 55.5035 38.3 55.2102 38.2C55.0414 38.15 54.8853 38.0642 54.7525 37.9486C54.6196 37.833 54.5131 37.6903 54.4402 37.53C54.3845 37.3621 54.3709 37.1832 54.4005 37.0088C54.4302 36.8344 54.5022 36.67 54.6102 36.53C54.7796 36.3053 54.9705 36.0976 55.1802 35.91C56.4932 34.6383 57.633 33.1993 58.5702 31.63C59.3975 30.139 60.1193 28.5919 60.7302 27C60.6859 27.4593 60.5782 27.9102 60.4102 28.34C60.0296 29.5383 59.5269 30.6943 58.9102 31.79C58.0014 33.4242 56.867 34.9223 55.5402 36.24C55.1702 36.59 54.8002 37 54.9402 37.31C55.0802 37.62 55.6302 37.78 56.1502 37.78C57.2889 37.8402 58.4293 37.7015 59.5202 37.37C60.5981 37.0439 61.6126 36.5367 62.5202 35.87L63.7102 35L62.9202 36.24C61.8502 37.9 60.8402 39.46 59.9202 40.89C59.6872 41.1772 59.5383 41.5233 59.4902 41.89C59.4973 41.9575 59.5184 42.0228 59.552 42.0818C59.5857 42.1407 59.6312 42.192 59.6857 42.2325C59.7403 42.2729 59.8026 42.3016 59.8688 42.3166C59.935 42.3317 60.0036 42.3328 60.0702 42.32C60.708 42.1879 61.3153 41.9368 61.8602 41.58L64.4602 40.24C64.7815 40.0582 65.1241 39.9172 65.4802 39.82Z" fill="#455A64"/>
<path d="M95 66.3799C95.1842 65.6209 95.6301 64.9512 96.2593 64.4885C96.8885 64.0258 97.6606 63.7996 98.44 63.8499C99.0089 63.9206 99.5514 64.1311 100.019 64.4627C100.487 64.7942 100.865 65.2365 101.12 65.7499C101.367 66.2684 101.507 66.8311 101.533 67.4047C101.559 67.9784 101.469 68.5514 101.27 69.0899L101.22 69.3199C100.689 69.8934 99.9936 70.2886 99.2292 70.4515C98.4648 70.6144 97.6687 70.537 96.95 70.2299C96.2449 69.8943 95.671 69.3343 95.3182 68.6376C94.9653 67.9409 94.8534 67.1469 95 66.3799Z" fill="#EB996E"/>
<path d="M103 69.3799C103 68.9899 100.42 69.1099 98.4802 66.9999C96.5402 64.8899 96.6802 62.1099 96.3202 62.1099C96.1602 62.1099 95.8502 62.7499 95.8802 63.9099C95.9283 65.4256 96.513 66.8751 97.5302 67.9999C98.507 69.0746 99.8613 69.7302 101.31 69.8299C102.42 69.8699 103 69.5499 103 69.3799Z" fill="#263238"/>
<path d="M52.9002 98.59L70.6802 96.01L106.24 101.27L116.22 104.8L114.45 126.63L80.2602 132.92L57.1902 126.09L48.4702 113.25L52.9002 98.59Z" fill="#FFBE9D"/>
<path d="M41.7001 100.68L56.5801 97.1699C56.5801 97.1699 67.0901 129.69 93.0501 128.29C114.21 127.15 114.45 103.53 114.45 103.53L129.7 108.41C129.7 108.41 135.53 147.52 129.08 175.23C127.57 181.7 125.55 190.43 125.55 190.43L127.61 230.91L14.8501 231.09L41.7001 100.68Z" fill="#FF725E"/>
<g opacity="0.3">
<path opacity="0.3" d="M85.9 223.06C80.42 222.92 75.35 223.38 69.9 223.25C63.32 223.09 56.69 222.93 50.19 224C45.31 224.8 40.57 226.29 35.7 227.06C29.05 228.06 21.95 227.73 16.03 224.53L17 219L39.47 213.59L85.9 223.06Z" fill="black"/>
</g>
<path d="M142.43 117.53C137.27 110.86 128.7 108.09 128.7 108.09L122.93 158.32L133.86 231.45L169.64 231.28C169.64 231.28 149.9 127.18 142.43 117.53Z" fill="#FF725E"/>
<path d="M43.4401 100.31C43.4401 100.31 19.3501 102.24 10.7101 141.7C6.80011 159.55 1.86011 180.47 0.440106 194.53C-0.599894 204.72 5.00011 220.69 15.1101 222L27.8901 223.72C30.3964 224.083 32.9477 223.988 35.4201 223.44C43.5001 221.59 44.3201 216.05 45.7401 210.16L49.4701 198.39C51.4701 187.19 41.0801 185.1 35.3101 185.22L39.6101 134.1L43.4401 100.31Z" fill="#FF725E"/>
<path d="M131.68 136C131.732 136.18 131.769 136.364 131.79 136.55L132.03 138.14C132.08 138.49 132.14 138.87 132.2 139.29C132.26 139.71 132.29 140.17 132.34 140.67C132.44 141.67 132.56 142.78 132.61 144.03C132.784 146.95 132.804 149.878 132.67 152.8C132.494 156.382 132.137 159.954 131.6 163.5C131.05 167.27 130.35 170.84 129.65 174.07C128.95 177.3 128.24 180.18 127.65 182.61C127.06 185.04 126.53 186.98 126.16 188.33L125.73 189.88C125.689 190.061 125.632 190.239 125.56 190.41C125.571 190.223 125.605 190.039 125.66 189.86L126.02 188.29C126.35 186.89 126.82 184.94 127.39 182.54C127.96 180.14 128.64 177.22 129.31 173.99C129.98 170.76 130.68 167.21 131.23 163.44C131.78 159.67 132.17 156.08 132.32 152.79C132.47 149.5 132.49 146.53 132.32 144.04C132.32 142.79 132.18 141.67 132.1 140.68C132.1 140.19 132.03 139.73 132 139.31C131.97 138.89 131.9 138.51 131.86 138.16C131.79 137.49 131.74 136.96 131.69 136.56C131.673 136.374 131.67 136.187 131.68 136Z" fill="#263238"/>
<path d="M16.4202 199.05C16.4382 198.71 16.5022 198.373 16.6102 198.05C16.8448 197.161 17.1559 196.295 17.5402 195.46C18.8009 192.665 20.7677 190.246 23.2471 188.442C25.7264 186.637 28.6327 185.51 31.6802 185.17C32.5926 185.062 33.5126 185.032 34.4302 185.08C34.767 185.081 35.1025 185.122 35.4302 185.2C34.1868 185.215 32.9451 185.295 31.7102 185.44C28.7335 185.85 25.9044 186.99 23.4742 188.757C21.044 190.524 19.088 192.865 17.7802 195.57C17.2615 196.703 16.8074 197.865 16.4202 199.05Z" fill="#263238"/>
<path d="M22 179.39C22 179.39 22.21 179.34 22.59 179.33C23.1176 179.324 23.645 179.348 24.17 179.4C27.6901 179.775 31.0254 181.164 33.77 183.4C34.1871 183.729 34.5814 184.087 34.95 184.47C35.21 184.74 35.34 184.89 35.32 184.91C35.3 184.93 34.67 184.4 33.6 183.61C30.8094 181.564 27.5625 180.229 24.14 179.72C22.81 179.48 22 179.45 22 179.39Z" fill="#263238"/>
<path d="M46.92 128.29C46.8625 127.94 46.8424 127.584 46.86 127.23C46.86 126.55 46.86 125.57 46.73 124.37C46.509 121.224 45.973 118.109 45.13 115.07C44.2724 112.037 43.1098 109.099 41.66 106.3C41.1 105.23 40.66 104.37 40.28 103.79C40.0892 103.493 39.922 103.182 39.78 102.86C40.0181 103.121 40.2292 103.406 40.41 103.71C40.79 104.27 41.31 105.11 41.9 106.17C43.4324 108.956 44.6403 111.909 45.5 114.97C46.3496 118.031 46.8528 121.177 47 124.35C47 125.57 47 126.55 47 127.23C47.0105 127.585 46.9837 127.94 46.92 128.29Z" fill="#263238"/>
<path d="M93.05 164.11C93.05 164.11 93.05 164.26 92.94 164.53C92.8269 164.923 92.6934 165.311 92.54 165.69C92.0039 167.104 91.3342 168.463 90.54 169.75C88.5265 173.082 85.7846 175.915 82.52 178.037C79.2554 180.159 75.5529 181.513 71.69 182C69.4591 182.286 67.2009 182.286 64.97 182C63.4685 181.806 61.9886 181.472 60.55 181C60.1563 180.88 59.7692 180.74 59.39 180.58C59.2537 180.539 59.1228 180.482 59 180.41C59 180.41 59.57 180.57 60.59 180.86C62.0347 181.259 63.5096 181.54 65 181.7C69.9362 182.279 74.9353 181.444 79.4158 179.293C83.8963 177.142 87.6742 173.764 90.31 169.55C91.1147 168.274 91.8169 166.937 92.41 165.55C92.82 164.66 93 164.1 93.05 164.11Z" fill="#263238"/>
<path d="M42.29 219.63C42.29 219.63 41.87 220.14 40.97 220.88C39.6586 221.873 38.1578 222.588 36.56 222.98C34.1913 223.569 31.7452 223.785 29.31 223.62C26.56 223.42 23.52 223.1 20.37 222.62C17.4022 222.237 14.4785 221.567 11.64 220.62C10.4565 220.099 9.3735 219.375 8.44 218.48C7.6077 217.706 6.85402 216.852 6.19 215.93C5.22777 214.593 4.40355 213.163 3.73 211.66C3.5 211.12 3.32 210.66 3.22 210.42C3.15465 210.276 3.0812 210.136 3 210C3.01031 210.158 3.04751 210.314 3.11 210.46C3.2 210.76 3.36 211.19 3.57 211.74C4.21108 213.278 5.02641 214.738 6 216.09C6.66214 217.035 7.41578 217.913 8.25 218.71C9.20331 219.641 10.3137 220.396 11.53 220.94C14.3779 221.927 17.3202 222.618 20.31 223C23.48 223.47 26.51 223.78 29.31 224C31.7834 224.158 34.2661 223.912 36.66 223.27C38.2764 222.84 39.7807 222.066 41.07 221C41.4144 220.697 41.7292 220.362 42.01 220C42.1154 219.886 42.2092 219.762 42.29 219.63Z" fill="#263238"/>
<path d="M46.2602 140.87C46.1602 140.87 43.6202 150.7 40.5902 162.87C37.5602 175.04 35.1902 185 35.2902 185C35.3902 185 37.9402 175.17 40.9702 163C44.0002 150.83 46.3702 140.89 46.2602 140.87Z" fill="#263238"/>
<path d="M49.3302 196.51C49.4087 196.247 49.4491 195.974 49.4502 195.7C49.5323 194.956 49.5524 194.207 49.5102 193.46C49.4291 192.333 49.0532 191.246 48.4202 190.31C48.0674 189.747 47.655 189.224 47.1902 188.75C46.6725 188.26 46.0984 187.834 45.4802 187.48C43.2961 186.325 40.9272 185.56 38.4802 185.22C37.7452 185.106 37.0037 185.039 36.2602 185.02C35.9887 184.975 35.7117 184.975 35.4402 185.02C35.4402 185.08 36.6002 185.13 38.4402 185.45C40.8326 185.871 43.1463 186.657 45.3002 187.78C45.887 188.12 46.4309 188.53 46.9202 189C47.3684 189.455 47.7735 189.95 48.1302 190.48C48.7434 191.371 49.1218 192.403 49.2302 193.48C49.2981 194.215 49.3214 194.953 49.3002 195.69C49.2774 195.963 49.2875 196.239 49.3302 196.51Z" fill="#263238"/>
<g opacity="0.3">
<path opacity="0.3" d="M130.57 169.15C136.72 158.74 136.85 145.22 131.49 134.39C133.207 145.936 132.835 157.696 130.39 169.11" fill="black"/>
</g>
<path d="M98 195.15L97.78 195.26L98 195.15Z" fill="#FFBE9D"/>
<path d="M120.77 215.87C118.83 212.21 103.72 202.57 103.72 202.57L107.81 201.62L112.33 203.53C112.67 205.061 113.331 206.503 114.27 207.76C115.93 210.13 118.75 207.68 118.75 207.68L116.84 198.53L107.91 193.15C107.91 193.15 99.5 194.44 98.14 195.09L94.56 198.37C92.98 199.6 88.44 204.46 87.2 204.61C85.96 204.76 47 196 47 196C41.65 200.23 38.84 208.65 38 214.72C38 214.72 37 217.72 38.08 219.32L85.96 223.08L96.11 225.88C98.8278 227.006 101.613 227.961 104.45 228.74C107.82 229.45 110.1 228.36 110.19 226.5C110.28 224.64 107.66 224.43 107.66 224.43C105.422 223.62 103.24 222.662 101.13 221.56C99.5954 220.526 98.3329 219.136 97.45 217.51L101.07 217.95C101.07 217.95 108.76 223.28 111.65 224.85C114.54 226.42 115.11 223.54 115.35 222.67C115.59 221.8 106.71 213.11 106.71 213.11C106.71 213.11 115.14 218.31 116.66 219.63C118.18 220.95 120.43 221.33 120.91 220.45C121.39 219.57 122.7 219.53 120.77 215.87Z" fill="#FFBE9D"/>
<path d="M79.15 216.71C79.1186 216.514 79.1186 216.315 79.15 216.12C79.1223 215.891 79.1223 215.659 79.15 215.43C79.1829 215.119 79.2397 214.812 79.32 214.51C79.7997 212.783 80.6341 211.176 81.77 209.79C82.8707 208.395 84.1067 207.112 85.46 205.96C85.9909 205.45 86.5741 204.997 87.2 204.61C86.707 205.15 86.1828 205.661 85.63 206.14C84.3383 207.335 83.1414 208.629 82.05 210.01C80.9463 211.367 80.1022 212.917 79.56 214.58C79.19 215.87 79.22 216.72 79.15 216.71Z" fill="#EB996E"/>
<path d="M103.37 202.28C102.507 202.466 101.607 202.386 100.79 202.05C99.9374 201.827 99.1733 201.349 98.6001 200.68C98.6601 200.59 99.6001 201.28 100.9 201.68C102.2 202.08 103.37 202.17 103.37 202.28Z" fill="#EB996E"/>
<path d="M105.88 212.3C104.561 211.944 103.273 211.479 102.03 210.91C100.747 210.443 99.5055 209.868 98.3201 209.19C99.6413 209.541 100.93 210.006 102.17 210.58C103.454 211.044 104.696 211.62 105.88 212.3Z" fill="#EB996E"/>
<path d="M97.7801 217.41C97.0883 217.261 96.4168 217.029 95.7801 216.72C95.1067 216.519 94.4591 216.241 93.8501 215.89C94.5605 215.906 95.2593 216.073 95.9001 216.38C96.5919 216.588 97.2324 216.939 97.7801 217.41Z" fill="#EB996E"/>
<path d="M104.64 213C104.64 213.1 103.8 213.43 103.15 214.31C102.788 214.864 102.499 215.462 102.29 216.09C102.29 216.09 102.2 215.85 102.29 215.47C102.378 214.969 102.584 214.496 102.89 214.09C103.202 213.688 103.603 213.363 104.06 213.14C104.38 212.94 104.62 212.92 104.64 213Z" fill="#EB996E"/>
<path d="M108.19 207.37C108.19 207.47 107.57 207.82 107.14 208.59C106.919 209.079 106.735 209.584 106.59 210.1C106.485 209.821 106.452 209.52 106.494 209.224C106.536 208.929 106.652 208.649 106.83 208.41C107.34 207.53 108.17 207.28 108.19 207.37Z" fill="#EB996E"/>
<path d="M107 197.39C107 197.39 106.83 197.24 106.72 196.91C106.601 196.475 106.601 196.015 106.72 195.58C106.823 195.139 107.044 194.735 107.36 194.41C107.6 194.16 107.8 194.08 107.82 194.11C107.462 194.568 107.205 195.098 107.069 195.664C106.933 196.23 106.92 196.819 107.03 197.39H107Z" fill="#EB996E"/>
<path d="M37.59 220.67C37.6491 220.306 37.6726 219.938 37.66 219.57C37.66 219.22 37.66 218.78 37.66 218.28C37.66 217.78 37.66 217.21 37.78 216.58C38.0819 213.308 38.8011 210.089 39.92 207C40.5408 205.304 41.3 203.662 42.19 202.09C42.63 201.38 43.01 200.69 43.45 200.09L44.07 199.22L44.68 198.44C46.27 196.49 47.49 195.44 47.44 195.44C47.1318 195.642 46.8437 195.873 46.58 196.13C46.2278 196.405 45.8938 196.702 45.58 197.02C45.23 197.39 44.82 197.79 44.42 198.29L43.78 199.06C43.57 199.33 43.36 199.63 43.14 199.93C42.68 200.52 42.28 201.22 41.83 201.93C40.9151 203.527 40.139 205.2 39.51 206.93C38.3877 210.052 37.7144 213.318 37.51 216.63C37.45 217.27 37.51 217.84 37.44 218.35C37.37 218.86 37.44 219.28 37.44 219.64C37.4662 219.986 37.5163 220.331 37.59 220.67Z" fill="#263238"/>
<g opacity="0.3">
<path opacity="0.3" d="M21.16 186.45C25.6561 184.602 30.6046 184.153 35.36 185.16C31.2766 184.974 27.237 186.068 23.8055 188.289C20.3741 190.511 17.7221 193.748 16.22 197.55C15.87 198.47 15.22 199.55 14.22 199.41C13.22 199.27 13 198.14 13 197.22C13 192.44 16.75 188.3 21.16 186.45Z" fill="black"/>
</g>
<path d="M132 132.63C132.224 132.597 132.44 132.526 132.64 132.42C133.04 132.26 133.64 132 134.31 131.66C136.112 130.748 137.834 129.688 139.46 128.49C141.086 127.287 142.608 125.949 144.01 124.49C144.54 123.92 145.01 123.49 145.23 123.12C145.386 122.957 145.518 122.772 145.62 122.57C144.988 123.112 144.384 123.686 143.81 124.29C142.37 125.685 140.84 126.985 139.23 128.18C137.636 129.365 135.966 130.444 134.23 131.41C132.8 132.16 131.94 132.58 132 132.63Z" fill="white"/>
<path d="M46.5701 135.42L46.7601 135.55L47.3301 135.89C47.8201 136.19 48.5701 136.6 49.5501 137.12C52.3288 138.541 55.2102 139.751 58.1701 140.74C62.567 142.204 67.0797 143.295 71.6601 144C77.2636 144.835 82.9156 145.302 88.5801 145.4C94.5801 145.55 100.35 145.4 105.58 145.31C110.206 145.261 114.825 144.927 119.41 144.31C122.503 143.872 125.552 143.163 128.52 142.19C129.57 141.84 130.37 141.54 130.9 141.31L131.52 141.06L131.72 140.96C131.644 140.966 131.569 140.987 131.5 141.02L130.88 141.24C130.33 141.45 129.52 141.72 128.47 142.05C125.496 142.961 122.452 143.629 119.37 144.05C114.793 144.649 110.185 144.983 105.57 145.05C100.36 145.15 94.6201 145.25 88.5701 145.11C82.9203 145.007 77.2826 144.549 71.6901 143.74C67.1285 143.057 62.6303 142.004 58.2401 140.59C55.2866 139.595 52.4063 138.396 49.6201 137C48.6201 136.51 47.8701 136.12 47.3601 135.84L46.7801 135.53C46.6501 135.45 46.5801 135.41 46.5701 135.42Z" fill="white"/>
<path d="M131.71 161.76C132.022 161.721 132.33 161.654 132.63 161.56L135.09 160.89C137.16 160.3 140.02 159.47 143.17 158.53C146.32 157.59 149.17 156.71 151.22 156.06L153.64 155.27C153.946 155.19 154.241 155.076 154.52 154.93C154.208 154.968 153.9 155.035 153.6 155.13L151.14 155.8C149.06 156.39 146.21 157.22 143.06 158.16C139.91 159.1 137.06 159.98 135.01 160.63L132.58 161.42C132.277 161.495 131.984 161.61 131.71 161.76Z" fill="white"/>
<path d="M129.56 202.67C129.56 202.77 136.97 200.67 146.05 197.93C155.13 195.19 162.47 192.93 162.44 192.83C162.41 192.73 155.02 194.83 145.94 197.57C136.86 200.31 129.52 202.57 129.56 202.67Z" fill="white"/>
<path d="M22.6401 114.21C22.8863 114.452 23.1579 114.666 23.4501 114.85C23.9901 115.25 24.7901 115.8 25.7901 116.45C28.4024 118.124 31.1103 119.643 33.9001 121C36.6885 122.375 39.557 123.58 42.4901 124.61C43.6201 125.01 44.5401 125.3 45.1801 125.48C45.5055 125.595 45.84 125.682 46.1801 125.74C45.8614 125.573 45.5263 125.439 45.1801 125.34L42.5401 124.34C40.3101 123.49 37.2801 122.23 34.0201 120.63C30.7601 119.03 27.9101 117.4 25.8801 116.16L23.4901 114.67C23.218 114.497 22.9339 114.343 22.6401 114.21Z" fill="white"/>
<path d="M7.90015 156.24C8.28302 156.464 8.68451 156.655 9.10014 156.81C9.88014 157.16 11.0301 157.62 12.4701 158.15C19.9721 160.888 27.8513 162.453 35.8301 162.79C37.3601 162.86 38.6001 162.87 39.4501 162.85C39.8946 162.863 40.3394 162.839 40.7801 162.78C40.3395 162.72 39.8949 162.693 39.4501 162.7C38.6001 162.7 37.3701 162.62 35.8501 162.52C27.9141 162.03 20.0802 160.473 12.5601 157.89C11.1201 157.4 9.95014 156.98 9.16014 156.67C8.75066 156.498 8.32964 156.354 7.90015 156.24Z" fill="white"/>
<path d="M29.2 223.47C29.22 223.334 29.22 223.196 29.2 223.06C29.2 222.75 29.09 222.37 29.01 221.9C28.93 221.43 28.82 220.77 28.75 220.05C28.68 219.33 28.55 218.51 28.52 217.6C28.52 217.14 28.49 216.66 28.43 216.16C28.43 215.67 28.43 215.16 28.43 214.61C28.43 213.54 28.48 212.39 28.53 211.18C28.8824 205.954 30.1059 200.823 32.15 196C32.65 194.9 33.15 193.84 33.63 192.9C33.88 192.43 34.1 191.96 34.36 191.53L35.09 190.29C35.53 189.5 36.02 188.83 36.42 188.22C36.82 187.61 37.18 187.1 37.49 186.69L38.18 185.74C38.2709 185.633 38.3482 185.516 38.41 185.39C38.3025 185.479 38.2053 185.58 38.12 185.69L37.37 186.6C37.04 187 36.65 187.49 36.24 188.09C35.83 188.69 35.32 189.36 34.85 190.15L34.1 191.38C33.84 191.81 33.61 192.28 33.35 192.75C32.81 193.69 32.35 194.75 31.83 195.86C30.7819 198.283 29.9357 200.788 29.3 203.35C28.6983 205.921 28.307 208.536 28.13 211.17C28.13 212.39 28.01 213.54 28.06 214.62C28.06 215.16 28.06 215.69 28.06 216.19C28.06 216.69 28.13 217.19 28.17 217.63C28.17 218.55 28.36 219.37 28.46 220.09C28.5361 220.709 28.6462 221.323 28.79 221.93C28.89 222.4 28.97 222.78 29.04 223.09C29.0771 223.223 29.1308 223.351 29.2 223.47Z" fill="white"/>
<path d="M0.62023 200.8C0.67023 200.8 0.680229 200.2 0.850229 199.13C1.10565 197.627 1.59491 196.172 2.30023 194.82C3.35675 192.821 4.77392 191.034 6.48023 189.55C8.56898 187.731 10.9808 186.32 13.5902 185.39C16.2231 184.526 18.9698 184.058 21.7402 184C24.0066 183.936 26.2747 184.02 28.5302 184.25C30.4602 184.44 32.0202 184.63 33.1002 184.75L34.3502 184.89H34.7802C34.6466 184.834 34.5047 184.8 34.3602 184.79L33.1202 184.58C32.0502 184.41 30.4902 184.18 28.5602 183.96C26.2907 183.69 24.0053 183.577 21.7202 183.62C18.9127 183.657 16.1274 184.123 13.4602 185C10.8042 185.941 8.35567 187.387 6.25023 189.26C4.51774 190.776 3.09494 192.613 2.06023 194.67C1.36186 196.053 0.902064 197.544 0.700232 199.08C0.646354 199.495 0.619628 199.912 0.62023 200.33C0.605106 200.486 0.605106 200.644 0.62023 200.8Z" fill="white"/>
<path d="M80.2102 179.39L80.6302 179.46L81.8302 179.58L86.2702 179.95C90.0202 180.24 95.2002 180.6 100.93 180.89C106.66 181.18 111.85 181.38 115.62 181.42C117.5 181.42 119.02 181.42 120.07 181.42H121.28C121.419 181.444 121.561 181.444 121.7 181.42H121.28H120.07L115.62 181.31C111.87 181.2 106.68 180.98 100.95 180.68L86.2902 179.85L81.8402 179.6L80.6302 179.55C80.501 179.472 80.3587 179.418 80.2102 179.39Z" fill="white"/>
<g opacity="0.3">
<path opacity="0.3" d="M75.91 180.92C71.25 182.29 64.79 182.63 60.25 180.92C63.8 185.92 70.66 187.79 76.61 186.15C82.56 184.51 88.05 178.55 88.51 172.39C85.2768 176.45 80.8808 179.426 75.91 180.92Z" fill="black"/>
</g>
<path d="M38.1201 176.05L38.4901 176.15L39.5701 176.38C40.5001 176.57 41.8601 176.83 43.5701 177.12C46.9401 177.71 51.5701 178.44 56.7801 179.07C61.9901 179.7 66.6601 180.12 70.0701 180.36C71.7801 180.48 73.1601 180.56 74.0701 180.6H75.1701C75.2993 180.62 75.4309 180.62 75.5601 180.6L75.1801 180.54L74.0801 180.43L70.0801 180.07C66.6801 179.76 61.9901 179.3 56.8201 178.67C51.6501 178.04 46.9801 177.35 43.6101 176.83L39.6101 176.21L38.5201 176.05C38.2501 176 38.1201 176 38.1201 176.05Z" fill="white"/>
<g opacity="0.3">
<path opacity="0.3" d="M45.8702 143.11C47.0402 156.5 43.3902 169.79 39.7802 182.74C39.6161 183.548 39.2745 184.31 38.7802 184.97C38.5271 185.294 38.1767 185.528 37.7807 185.637C37.3847 185.747 36.9639 185.727 36.5802 185.58C35.4502 185.01 35.5802 183.37 35.9202 182.15L45.9202 143.66" fill="black"/>
</g>
<path d="M233.17 156.45L218 231.09H86.0001C85.3026 231.09 84.6336 230.813 84.1404 230.32C83.6472 229.827 83.3701 229.158 83.3701 228.46C83.3701 227.762 83.6469 227.092 84.1398 226.597C84.6328 226.102 85.3017 225.823 86.0001 225.82H112.57L126.66 156.41C126.791 155.762 127.141 155.179 127.65 154.758C128.16 154.338 128.799 154.105 129.46 154.1L230.32 153C230.75 152.994 231.175 153.085 231.565 153.265C231.954 153.445 232.299 153.711 232.572 154.042C232.846 154.373 233.041 154.761 233.145 155.178C233.248 155.595 233.257 156.029 233.17 156.45Z" fill="#E0E0E0"/>
<path d="M233.17 156.45C233.17 156.45 233.17 156.38 233.22 156.23C233.295 155.67 233.203 155.099 232.955 154.591C232.708 154.082 232.317 153.658 231.83 153.37C231.574 153.205 231.294 153.08 231 153C230.669 152.947 230.334 152.927 230 152.94H227.63H221.69L183.55 153.3L156.97 153.57L142.07 153.72L134.26 153.8H130.26C129.92 153.8 129.6 153.8 129.26 153.8C128.912 153.834 128.573 153.933 128.26 154.09C127.609 154.405 127.094 154.945 126.81 155.61C126.682 155.933 126.588 156.268 126.53 156.61L126.33 157.61C126.19 158.28 126.06 158.95 125.92 159.61C125.64 160.96 125.37 162.31 125.09 163.68C124.53 166.42 123.97 169.18 123.4 171.98C122.26 177.593 121.097 183.323 119.91 189.17L112.5 225.59L112.68 225.44H86.44C86.1055 225.423 85.77 225.443 85.44 225.5C84.7567 225.63 84.1459 226.009 83.7259 226.564C83.3059 227.118 83.1064 227.809 83.1661 228.502C83.2259 229.195 83.5405 229.841 84.0492 230.315C84.5579 230.79 85.2245 231.059 85.92 231.07H156H218H218.11V230.96C222.75 208.02 226.53 189.36 229.11 176.42C230.41 169.96 231.43 164.93 232.11 161.51C232.45 159.81 232.71 158.51 232.88 157.62C233.05 156.73 233.13 156.29 233.13 156.29L232.84 157.61C232.66 158.5 232.39 159.8 232.03 161.5C231.33 164.91 230.29 169.94 228.96 176.39L217.79 230.91L218 231H156H85.9C85.524 230.978 85.1564 230.879 84.82 230.71C84.5174 230.544 84.2531 230.317 84.0441 230.043C83.8351 229.768 83.6862 229.453 83.607 229.117C83.5278 228.782 83.5201 228.433 83.5843 228.094C83.6486 227.755 83.7834 227.434 83.98 227.15C84.3333 226.637 84.8703 226.279 85.48 226.15C85.8101 226.094 86.1459 226.077 86.48 226.1H112.76V225.96L120.14 189.54C121.327 183.687 122.49 177.957 123.63 172.35C124.197 169.55 124.757 166.783 125.31 164.05C125.59 162.68 125.86 161.32 126.14 159.97C126.27 159.3 126.41 158.62 126.54 157.97L126.75 156.97C126.795 156.628 126.879 156.293 127 155.97C127.261 155.379 127.721 154.898 128.3 154.61C128.583 154.463 128.892 154.371 129.21 154.34C129.52 154.34 129.87 154.34 130.21 154.34L134.21 154.29L142.02 154.2L156.91 154.03L183.5 153.72L221.63 153.25L227.57 153.17H229.94C230.274 153.156 230.61 153.176 230.94 153.23C231.522 153.356 232.051 153.659 232.454 154.097C232.857 154.536 233.114 155.089 233.19 155.68C233.212 155.937 233.206 156.195 233.17 156.45Z" fill="#263238"/>
<path d="M172.36 190.61C172.36 191.472 172.616 192.315 173.095 193.032C173.574 193.749 174.255 194.308 175.052 194.638C175.848 194.968 176.725 195.054 177.571 194.886C178.416 194.718 179.193 194.303 179.803 193.693C180.413 193.083 180.828 192.306 180.996 191.461C181.165 190.615 181.078 189.738 180.748 188.941C180.418 188.145 179.859 187.464 179.142 186.985C178.425 186.506 177.582 186.25 176.72 186.25C175.564 186.25 174.455 186.709 173.637 187.527C172.819 188.345 172.36 189.454 172.36 190.61Z" fill="white"/>
<path d="M233.05 157.06H232.6H226.13L207.26 157.15L145.01 157.59L136.01 157.66H133.79C133.412 157.65 133.034 157.673 132.66 157.73C132.282 157.812 131.92 157.957 131.59 158.16C130.936 158.58 130.462 159.229 130.26 159.98C130.09 160.71 129.97 161.4 129.82 162.11C128.71 167.73 127.63 173.16 126.61 178.32C124.56 188.65 122.72 197.96 121.18 205.78L117.55 224.3C117.13 226.47 116.81 228.17 116.55 229.3C116.45 229.867 116.37 230.307 116.31 230.62C116.26 230.91 116.24 231.06 116.24 231.06C116.24 231.06 116.24 230.92 116.35 230.62C116.46 230.32 116.5 229.88 116.62 229.32L117.62 224.32C118.51 219.94 119.78 213.63 121.36 205.83C122.94 198.03 124.79 188.71 126.86 178.39C127.86 173.22 128.98 167.8 130.1 162.18C130.25 161.48 130.38 160.76 130.53 160.08C130.712 159.414 131.137 158.84 131.72 158.47C132.024 158.275 132.364 158.143 132.72 158.08C133.071 158.029 133.426 158.009 133.78 158.02H136L145 157.95L207.25 157.4L226.12 157.19L231.25 157.12H232.59L233.05 157.06Z" fill="#263238"/>
<path d="M16.05 226.16H16.23L16.7401 226.21L18.7401 226.37C20.4601 226.51 22.9401 226.68 26.0201 226.86C32.16 227.22 40.67 227.59 50.02 227.75C59.37 227.91 67.94 227.82 74.09 227.66C77.17 227.58 79.66 227.5 81.3801 227.42L83.3801 227.32H83.9001H84.0701H83.3801H81.3801L74.09 227.44C67.93 227.53 59.42 227.57 50.03 227.44C40.64 227.31 32.14 226.95 26.03 226.66L18.75 226.29L16.75 226.2H16.05V226.16Z" fill="white"/>
</svg>
