<svg width="220" height="254" viewBox="0 0 220 254" fill="none" xmlns="http://www.w3.org/2000/svg">
<path d="M113.499 1.51202C111.323 1.20586 109.104 1.47601 107.065 2.29549C105.026 3.11497 103.238 4.45509 101.879 6.18202C100.353 5.84531 98.7616 5.95678 97.2972 6.50303C95.8328 7.04928 94.5575 8.00703 93.6246 9.26106C92.6918 10.5151 92.1412 12.0119 92.039 13.5715C91.9369 15.1311 92.2875 16.687 93.0488 18.052C91.9328 18.8463 91.0129 19.8849 90.359 21.0886C89.7052 22.2923 89.3347 23.6294 89.2759 24.9979C89.2171 26.3665 89.4713 27.7304 90.0195 28.9858C90.5676 30.2412 91.3951 31.3549 92.4388 32.242L123.229 9.42202C122.442 7.36669 121.129 5.55413 119.422 4.1659C117.714 2.77766 115.672 1.86248 113.499 1.51202Z" fill="#263238"/>
<path d="M92.2087 33.7021C93.2321 25.8716 97.1675 18.714 103.231 13.6548C109.295 8.59563 117.042 6.00614 124.929 6.40209L126.549 6.48208C144.019 8.37208 152.179 24.2721 149.799 41.6821L144.359 99.9121L144.069 102.742L103.229 108.842L104.029 93.9621C104.029 93.9621 87.3088 90.5121 87.9388 73.6521C88.2388 65.5121 90.2287 48.8021 92.2087 33.7021Z" fill="#AE7461"/>
<path d="M103.889 93.932C111.711 94.3238 119.482 92.4636 126.279 88.572C126.279 88.572 120.489 100.432 103.759 98.082L103.889 93.932Z" fill="#6F4439"/>
<path d="M96.699 49.2621C96.66 49.8886 96.867 50.5057 97.276 50.9819C97.685 51.4581 98.2637 51.756 98.889 51.8121C99.1905 51.8513 99.4967 51.8307 99.7902 51.7514C100.084 51.6721 100.359 51.5356 100.599 51.3498C100.84 51.164 101.041 50.9325 101.192 50.6686C101.343 50.4047 101.441 50.1137 101.479 49.8121C101.512 49.4948 101.481 49.1742 101.388 48.8691C101.295 48.564 101.143 48.2805 100.938 48.0354C100.734 47.7903 100.483 47.5885 100.2 47.442C99.9167 47.2954 99.6069 47.2071 99.289 47.1821C98.9812 47.1418 98.6686 47.1642 98.3697 47.2479C98.0709 47.3316 97.792 47.475 97.5501 47.6693C97.3081 47.8636 97.1079 48.1049 96.9616 48.3787C96.8154 48.6524 96.726 48.9529 96.699 49.2621Z" fill="#263238"/>
<path d="M95.4188 42.1221C95.6988 42.4521 97.5888 41.1921 100.179 41.3321C102.769 41.4721 104.599 42.8521 104.899 42.5521C105.039 42.4221 104.769 41.8421 103.969 41.1921C102.887 40.3603 101.573 39.885 100.209 39.8321C98.865 39.7538 97.531 40.1039 96.3988 40.8321C95.5788 41.4221 95.2788 41.9821 95.4188 42.1221Z" fill="#263238"/>
<path d="M120.789 51.1821C120.75 51.8076 120.957 52.4235 121.367 52.8981C121.776 53.3727 122.354 53.6685 122.979 53.7221C123.28 53.7613 123.587 53.7407 123.88 53.6614C124.173 53.5821 124.448 53.4456 124.689 53.2598C124.93 53.074 125.131 52.8425 125.282 52.5786C125.433 52.3148 125.531 52.0237 125.569 51.7221C125.605 51.0946 125.396 50.4775 124.985 50.0016C124.575 49.5257 123.995 49.2282 123.369 49.1721C123.067 49.1329 122.761 49.154 122.467 49.2341C122.174 49.3142 121.899 49.4516 121.659 49.6386C121.419 49.8255 121.219 50.0582 121.069 50.3231C120.92 50.5881 120.825 50.88 120.789 51.1821Z" fill="#263238"/>
<path d="M120.839 43.872C121.119 44.202 123.009 42.942 125.599 43.082C128.189 43.222 130.019 44.602 130.319 44.302C130.459 44.162 130.189 43.582 129.389 42.942C128.305 42.1124 126.993 41.6344 125.629 41.572C124.285 41.4938 122.951 41.8439 121.819 42.572C121.049 43.182 120.699 43.722 120.839 43.872Z" fill="#263238"/>
<path d="M110.489 62.602C110.489 62.452 108.919 62.092 106.329 61.602C105.669 61.502 105.049 61.342 104.959 60.882C104.94 60.1958 105.128 59.5196 105.499 58.942L107.699 54.012C110.769 47.012 113.029 41.182 112.749 41.012C112.469 40.842 109.749 46.492 106.669 53.522L104.549 58.522C104.062 59.3176 103.885 60.2641 104.049 61.182C104.132 61.4117 104.265 61.6203 104.438 61.7931C104.611 61.9659 104.819 62.0987 105.049 62.182C105.408 62.3025 105.781 62.3732 106.159 62.392C108.849 62.652 110.469 62.742 110.489 62.602Z" fill="#263238"/>
<path d="M118.049 64.7721C117.629 64.7721 117.479 67.5321 114.979 69.4121C112.479 71.2921 109.499 70.8221 109.459 71.2121C109.459 71.3921 110.099 71.7921 111.359 71.8921C113.003 71.9975 114.632 71.5195 115.959 70.5421C117.233 69.6009 118.093 68.2033 118.359 66.6421C118.489 65.4721 118.209 64.7621 118.049 64.7721Z" fill="#263238"/>
<path d="M120.669 33.692C120.889 34.412 123.499 34.202 126.509 34.692C129.519 35.182 131.949 36.162 132.379 35.552C132.579 35.252 132.179 34.552 131.229 33.842C129.952 32.9295 128.479 32.33 126.929 32.092C125.385 31.8261 123.801 31.9359 122.309 32.412C121.169 32.832 120.579 33.352 120.669 33.692Z" fill="#263238"/>
<path d="M96.7386 34.682C97.1686 35.292 98.9786 34.772 101.129 34.852C103.279 34.932 105.069 35.442 105.519 34.852C105.719 34.562 105.459 33.962 104.689 33.372C103.673 32.6149 102.445 32.1983 101.179 32.182C99.917 32.139 98.6732 32.4884 97.6186 33.182C96.8386 33.792 96.5586 34.382 96.7386 34.682Z" fill="#263238"/>
<path d="M94.2086 26.0621C94.2086 26.0621 99.2086 15.7321 104.389 13.5221C110.689 10.8521 113.009 17.7421 118.959 16.3921C124.909 15.0421 130.959 12.4721 136.699 17.3121C143.019 22.6021 139.769 25.9321 139.799 33.4221C139.939 63.8021 145.049 72.6521 147.329 58.4221C147.579 56.8721 151.979 55.8421 152.949 49.2721C154.209 40.7421 155.059 30.3621 153.449 24.1821C152.089 18.9821 149.349 15.2921 144.299 11.1321C136.299 4.56211 124.989 3.86211 117.229 4.26211C109.469 4.66211 94.1686 12.8221 94.2086 26.0621Z" fill="#263238"/>
<path d="M146.279 57.942C146.331 57.3255 146.507 56.7258 146.796 56.1792C147.086 55.6326 147.484 55.1503 147.965 54.7615C148.446 54.3728 149.001 54.0856 149.597 53.9172C150.192 53.7489 150.815 53.7029 151.429 53.782C154.559 54.242 157.969 56.192 157.429 62.672C156.489 74.172 145.139 70.862 145.149 70.522C145.159 70.182 145.839 62.752 146.279 57.942Z" fill="#AE7461"/>
<path d="M148.049 66.402C148.109 66.402 148.239 66.562 148.569 66.742C149.026 66.9865 149.56 67.0438 150.059 66.902C151.309 66.552 152.489 64.712 152.719 62.642C152.823 61.6563 152.711 60.6596 152.389 59.722C152.311 59.3542 152.144 59.0109 151.904 58.7217C151.663 58.4326 151.356 58.2062 151.009 58.062C150.783 57.9774 150.534 57.9773 150.308 58.0618C150.082 58.1464 149.894 58.3098 149.779 58.522C149.599 58.832 149.659 59.062 149.599 59.082C149.539 59.102 149.359 58.862 149.499 58.402C149.581 58.1187 149.762 57.874 150.009 57.712C150.345 57.5003 150.75 57.4285 151.139 57.512C151.609 57.647 152.035 57.9027 152.375 58.2536C152.716 58.6045 152.958 59.0383 153.079 59.512C153.493 60.5455 153.644 61.6657 153.519 62.772C153.249 65.092 151.889 67.162 150.189 67.502C149.873 67.5685 149.546 67.5625 149.232 67.4846C148.919 67.4067 148.627 67.2588 148.379 67.052C148.049 66.682 147.969 66.422 148.049 66.402Z" fill="#6F4439"/>
<path d="M150.619 38.4821C149.034 39.6397 147.184 40.3823 145.239 40.6421C143.239 40.7421 141.119 39.5121 140.889 37.5721C140.779 36.7021 141.039 35.7121 140.509 35.0121C139.979 34.3121 138.599 34.3721 137.509 34.4321C135.679 34.4843 133.886 33.9071 132.43 32.7969C130.974 31.6868 129.943 30.1108 129.509 28.3321C128.509 29.6721 126.379 29.5021 125.029 28.5321C123.679 27.5621 122.859 26.0521 121.829 24.7521C120.799 23.4521 119.319 22.2521 117.669 22.4021C116.749 22.4921 115.859 22.9921 114.939 22.8621C113.319 22.6421 112.619 20.6921 112.449 19.0621C112.279 17.4321 112.179 15.5321 110.849 14.5821C109.519 13.6321 107.929 14.0921 106.409 14.2421C104.889 14.3921 102.979 13.9421 102.669 12.4521C102.626 12.0545 102.664 11.6524 102.779 11.2694C102.894 10.8864 103.084 10.5304 103.339 10.2221C104.426 8.75644 105.98 7.70385 107.744 7.23689C109.508 6.76993 111.379 6.91632 113.049 7.65206C113.794 5.63401 115.105 3.87375 116.826 2.58247C118.546 1.29118 120.603 0.523685 122.749 0.372058C127.019 0.132058 130.999 -1.08794 132.859 2.77206C135.599 0.52206 139.789 3.47206 143.209 4.43206C144.916 4.92842 146.482 5.82126 147.778 7.03775C149.075 8.25425 150.065 9.75995 150.669 11.4321C152.214 11.0923 153.825 11.2182 155.298 11.7939C156.772 12.3696 158.042 13.3692 158.947 14.6664C159.853 15.9636 160.353 17.5001 160.385 19.0816C160.418 20.6632 159.981 22.2189 159.129 23.5521C161.299 24.9321 163.129 27.2521 163.019 29.8221C162.909 32.3921 160.309 34.8221 157.859 34.0321C158.256 35.061 158.256 36.2006 157.861 37.2299C157.465 38.2593 156.701 39.105 155.717 39.6032C154.733 40.1013 153.599 40.2164 152.536 39.9261C151.472 39.6359 150.553 38.9609 149.959 38.0321" fill="#263238"/>
<path d="M181.489 200.182L215.489 192.842C215.489 192.842 210.829 167.262 205.029 141.322C200.399 120.632 177.539 114.892 177.539 114.892L151.049 103.182L147.479 89.4321C132.919 96.6321 118.789 103.562 110.269 107.032L102.469 98.4121L99.1588 108.762L96.3688 109.052C96.3688 109.052 84.8388 112.552 83.6788 112.642C73.1288 113.482 59.3688 125.292 54.2188 137.642C52.0888 142.752 43.8388 173.312 37.7988 204.952C33.4188 227.842 30.8888 250.062 29.7988 253.072L63.7988 253.142L71.6389 204.952L73.9388 253.412L189.669 253.052L181.439 204.352L181.489 200.182Z" fill="#FF725E"/>
<path d="M66.5687 148.012C66.4687 148.012 67.4286 160.772 68.7186 176.492C70.0086 192.212 71.1387 204.952 71.2487 204.942C71.3587 204.932 70.3886 192.182 69.0986 176.462C67.8086 160.742 66.6787 148.002 66.5687 148.012Z" fill="#263238"/>
<path d="M151.049 103.612L116.639 120.892L110.229 106.892C110.229 106.892 121.749 101.892 132.229 96.3521C142.919 90.6521 147.079 89.4421 147.079 89.4421" fill="#E0E0E0"/>
<path d="M102.099 98.4221L109.899 107.032L102.869 119.572L98.7886 108.772" fill="#E0E0E0"/>
<path d="M184.939 119.682C184.999 119.752 183.859 120.682 182.249 122.292C178.049 126.632 175.137 132.054 173.839 137.952C173.349 140.202 173.229 141.632 173.139 141.632C173.092 141.3 173.092 140.964 173.139 140.632C173.189 139.713 173.299 138.797 173.469 137.892C174.569 131.844 177.551 126.297 181.989 122.042C182.648 121.4 183.35 120.802 184.089 120.252C184.34 120.018 184.627 119.825 184.939 119.682Z" fill="#263238"/>
<path d="M110.269 106.892C110.339 106.892 109.509 108.212 108.269 110.312C107.029 112.412 105.349 115.372 103.759 118.752C103.629 119.032 103.509 119.312 103.389 119.562L103.139 120.102L102.889 119.572C101.589 116.853 100.473 114.05 99.5486 111.182C99.2086 110.092 98.9587 109.182 98.8087 108.582C98.6973 108.26 98.6399 107.922 98.6387 107.582C98.7087 107.582 99.1386 108.892 99.9086 111.042C100.679 113.192 101.839 116.122 103.359 119.312H102.869L103.239 118.492C104.603 115.584 106.167 112.774 107.919 110.082C108.589 109.082 109.169 108.232 109.579 107.682C109.772 107.389 110.004 107.123 110.269 106.892Z" fill="#263238"/>
<path d="M148.049 105.182C147.883 105.235 147.723 105.302 147.569 105.382L146.239 106.012L141.389 108.382L125.389 116.332L116.609 120.752L116.849 120.842L112.169 110.782C111.599 109.582 111.169 108.622 110.799 107.922L110.429 107.162C110.39 107.073 110.339 106.989 110.279 106.912C110.297 107.01 110.331 107.105 110.379 107.192L110.699 107.962L111.979 110.872C113.109 113.382 114.689 116.872 116.529 120.982L116.609 121.142L116.769 121.062L125.559 116.672L141.469 108.622L146.269 106.142L147.569 105.452C147.74 105.383 147.901 105.292 148.049 105.182Z" fill="#263238"/>
<path d="M211.769 175.282C211.769 175.282 218.829 209.392 219.399 217.282C220.529 232.732 213.119 241.992 206.129 246.382C198.869 250.932 157.899 253.082 157.899 253.082L155.419 228.582L182.049 212.452L178.439 184.532L211.769 175.282Z" fill="#FF725E"/>
<path d="M181.899 211.512C181.893 211.325 181.876 211.138 181.849 210.952C181.789 210.552 181.719 210.022 181.619 209.352C181.409 207.922 181.109 205.922 180.739 203.472C179.949 198.472 178.879 191.632 177.689 184.082C175.349 169.312 173.689 158.672 173.349 156.672C173.331 156.858 173.331 157.046 173.349 157.232C173.349 157.612 173.439 158.152 173.519 158.842C173.689 160.242 173.969 162.252 174.329 164.742C175.049 169.742 176.099 176.572 177.329 184.142C178.559 191.712 179.649 198.562 180.489 203.512C180.899 205.952 181.249 207.952 181.489 209.372C181.609 210.032 181.709 210.562 181.779 210.962C181.801 211.149 181.841 211.333 181.899 211.512Z" fill="#263238"/>
<path d="M208.329 244.962C208.254 245.008 208.183 245.061 208.119 245.122C207.939 245.297 207.737 245.448 207.519 245.572C206.688 246.087 205.798 246.5 204.869 246.802C201.428 247.929 197.899 248.765 194.319 249.302C182.255 251.194 170.091 252.383 157.889 252.862L158.089 253.022C157.839 250.612 157.589 248.022 157.319 245.482C156.719 239.542 156.139 233.812 155.599 228.532L155.509 228.702L181.319 213.112L188.769 208.572L190.769 207.342L191.269 207.022L191.439 206.902C191.439 206.902 191.379 206.902 191.259 206.992L190.729 207.292L188.729 208.462L181.219 212.922L155.349 228.392L155.249 228.452V228.562C155.779 233.852 156.359 239.562 156.959 245.562C157.219 248.142 157.479 250.692 157.729 253.102V253.282H157.899C170.112 252.797 182.285 251.568 194.349 249.602C197.938 249.035 201.471 248.158 204.909 246.982C205.84 246.662 206.727 246.225 207.549 245.682C207.763 245.544 207.961 245.383 208.139 245.202C208.21 245.129 208.274 245.048 208.329 244.962Z" fill="#263238"/>
<g opacity="0.3">
<path opacity="0.3" d="M200.049 202.342C199.798 202.03 199.443 201.82 199.049 201.752C197.049 201.302 195.049 202.022 193.229 202.862C187.721 205.497 182.899 209.372 179.139 214.182L179.599 213.922C185.839 210.232 191.359 206.492 198.049 204.712C198.652 204.6 199.223 204.354 199.719 203.992C199.957 203.798 200.12 203.528 200.181 203.226C200.241 202.925 200.194 202.612 200.049 202.342Z" fill="black"/>
</g>
<path d="M155.789 230.072L152.339 230.392C152.339 230.392 151.889 225.392 151.109 223.452C150.329 221.512 148.869 215.512 148.869 215.512C148.869 215.512 133.439 209.022 133.099 209.022C132.759 209.022 117.669 213.182 117.669 213.182C117.669 213.182 118.009 217.312 123.149 217.542C126.226 217.678 129.309 217.416 132.319 216.762L137.129 218.552L127.509 219.162L110.629 229.282C110.629 229.282 110.739 232.282 117.339 230.732C123.939 229.182 127.339 226.372 127.339 226.372L139.749 228.182L126.619 228.802L116.779 233.722C116.779 233.722 116.859 237.802 120.889 236.792C124.919 235.782 127.619 235.182 127.619 235.182L139.359 236.572L129.409 237.122C129.409 237.122 122.699 237.302 123.039 239.122C123.379 240.942 128.299 242.472 128.299 242.472L135.299 243.712C135.299 243.712 135.559 246.842 136.789 247.842C138.019 248.842 139.919 250.252 141.039 250.272C142.159 250.292 157.919 251.132 157.919 251.132L155.789 230.072Z" fill="#AE7461"/>
<path d="M147.189 245.352C147.403 245.245 147.604 245.114 147.789 244.962C148.296 244.563 148.762 244.114 149.179 243.622C150.57 241.969 151.449 239.947 151.709 237.802C151.85 236.625 151.796 235.432 151.549 234.272C151.319 233.212 150.949 232.272 150.839 231.522C150.73 230.903 150.782 230.266 150.989 229.672C151.078 229.457 151.178 229.247 151.289 229.042C151.1 229.195 150.955 229.395 150.869 229.622C150.601 230.228 150.511 230.897 150.609 231.552C150.689 232.382 151.039 233.302 151.249 234.342C151.47 235.468 151.514 236.622 151.379 237.762C151.121 239.847 150.298 241.821 148.999 243.472C148.437 244.138 147.833 244.766 147.189 245.352Z" fill="#6F4439"/>
<path d="M145.289 244.182C143.585 243.955 141.868 243.838 140.149 243.832C138.437 243.724 136.72 243.724 135.009 243.832C136.709 244.059 138.423 244.176 140.139 244.182C141.854 244.29 143.574 244.29 145.289 244.182Z" fill="#6F4439"/>
<path d="M144.529 236.752C143.627 236.601 142.71 236.56 141.799 236.632C140.887 236.589 139.974 236.656 139.079 236.832C139.976 236.99 140.89 237.034 141.799 236.962C142.714 237.004 143.631 236.933 144.529 236.752Z" fill="#6F4439"/>
<path d="M145.049 219.502C145.049 219.402 143.339 219.692 141.249 219.502C139.159 219.312 137.549 218.692 137.519 218.792C138.664 219.393 139.927 219.734 141.219 219.792C142.501 219.972 143.808 219.873 145.049 219.502Z" fill="#6F4439"/>
<path d="M0.0487606 180.502L14.8288 253.062H143.129C143.809 253.062 144.461 252.793 144.943 252.313C145.424 251.833 145.696 251.182 145.699 250.502C145.699 249.821 145.428 249.167 144.946 248.685C144.464 248.203 143.81 247.932 143.129 247.932H117.309L103.599 180.452C103.473 179.825 103.134 179.259 102.641 178.852C102.148 178.444 101.529 178.218 100.889 178.212L2.83877 177.182C2.42375 177.176 2.01265 177.263 1.63522 177.436C1.25778 177.608 0.923424 177.863 0.656396 178.18C0.389368 178.498 0.196334 178.871 0.0912411 179.273C-0.0138515 179.674 -0.028361 180.094 0.0487606 180.502Z" fill="#E0E0E0"/>
<path d="M0.0489611 180.502C0.0442935 180.429 0.0442935 180.355 0.0489611 180.282C0.0157733 180.063 0.0157733 179.841 0.0489611 179.622C0.0965864 179.188 0.244162 178.77 0.480113 178.402C0.716065 178.035 1.03397 177.727 1.40895 177.502C1.67227 177.346 1.95944 177.235 2.25895 177.172C2.58823 177.108 2.92402 177.085 3.25895 177.102H5.56895L11.3389 177.152L48.4089 177.502L74.249 177.762L88.729 177.912L96.329 177.992H100.209C100.539 177.992 100.849 177.992 101.209 177.992C101.556 178.032 101.894 178.13 102.209 178.282C102.838 178.595 103.337 179.119 103.619 179.762C103.741 180.086 103.832 180.421 103.889 180.762L104.089 181.762C104.219 182.412 104.349 183.062 104.489 183.762C104.749 185.072 105.019 186.392 105.289 187.762C105.829 190.429 106.376 193.119 106.929 195.832C108.042 201.279 109.176 206.849 110.329 212.542C112.649 223.912 115.049 235.752 117.529 247.942L117.359 247.802H142.749C143.084 247.783 143.419 247.803 143.749 247.862C144.432 248.006 145.033 248.407 145.429 248.982C145.654 249.299 145.809 249.66 145.883 250.042C145.958 250.423 145.95 250.816 145.861 251.194C145.773 251.573 145.604 251.928 145.368 252.236C145.131 252.544 144.831 252.798 144.489 252.982C144.115 253.178 143.701 253.287 143.279 253.302H75.049H14.819H14.7089V253.192C10.1989 230.882 6.51897 212.742 3.96897 200.192L1.04896 185.572C0.718961 183.922 0.468961 182.652 0.298961 181.792C0.128961 180.932 0.0589708 180.502 0.0589708 180.502C0.0589708 180.502 0.15897 180.932 0.33897 181.782C0.51897 182.632 0.778948 183.902 1.12895 185.562C1.80895 188.882 2.81895 193.762 4.12895 200.042C6.70895 212.612 10.419 230.742 14.989 253.042L14.859 252.932H75.0889H143.229C143.596 252.916 143.955 252.817 144.279 252.642C144.571 252.478 144.824 252.255 145.024 251.986C145.223 251.718 145.364 251.411 145.437 251.084C145.509 250.758 145.512 250.419 145.445 250.092C145.379 249.764 145.244 249.454 145.049 249.182C144.705 248.677 144.184 248.32 143.589 248.182C143.281 248.134 142.97 248.118 142.659 248.132H117.159V247.992C114.679 235.802 112.279 223.992 109.969 212.592L106.589 195.882C106.042 193.149 105.496 190.455 104.949 187.802C104.679 186.472 104.409 185.152 104.149 183.802C104.019 183.152 103.879 182.492 103.749 181.802L103.549 180.802C103.505 180.486 103.421 180.177 103.299 179.882C103.052 179.308 102.609 178.84 102.049 178.562C101.771 178.422 101.469 178.333 101.159 178.302C100.859 178.302 100.519 178.302 100.159 178.302L96.2789 178.252L88.689 178.162L74.2089 178.002L48.369 177.692L11.299 177.242L5.51896 177.162H3.21897C2.88445 177.146 2.54913 177.166 2.21897 177.222C1.65034 177.34 1.13352 177.635 0.742107 178.064C0.350697 178.493 0.104632 179.035 0.0389513 179.612C-0.0011092 179.908 0.00226954 180.208 0.0489611 180.502Z" fill="#263238"/>
<path d="M59.1787 213.712C59.1787 214.551 58.93 215.371 58.4641 216.068C57.9983 216.765 57.3361 217.308 56.5613 217.629C55.7866 217.95 54.934 218.034 54.1115 217.871C53.2891 217.707 52.5336 217.303 51.9406 216.71C51.3476 216.117 50.9438 215.362 50.7802 214.539C50.6166 213.717 50.7006 212.864 51.0215 212.09C51.3424 211.315 51.8858 210.653 52.5831 210.187C53.2804 209.721 54.1002 209.472 54.9388 209.472C55.4959 209.471 56.0479 209.58 56.5629 209.792C57.0779 210.005 57.5458 210.317 57.9398 210.711C58.3338 211.105 58.6461 211.573 58.8587 212.088C59.0713 212.603 59.1801 213.155 59.1787 213.712Z" fill="white"/>
<path d="M0.188965 181.092H0.628937H6.90894L25.259 181.182L85.7689 181.612L94.5189 181.682H96.6689C97.037 181.671 97.4052 181.695 97.7689 181.752C98.124 181.833 98.4623 181.975 98.7689 182.172C99.4104 182.577 99.8749 183.209 100.069 183.942C100.229 184.652 100.349 185.322 100.499 186.012C101.579 191.472 102.629 196.752 103.619 201.772C105.619 211.772 107.399 220.862 108.899 228.462C110.399 236.062 111.589 242.202 112.419 246.462L113.419 251.362C113.519 251.912 113.599 252.362 113.649 252.632C113.699 252.902 113.719 253.072 113.719 253.072C113.719 253.072 113.719 252.922 113.619 252.642C113.519 252.362 113.459 251.922 113.349 251.372C113.109 250.242 112.769 248.602 112.349 246.492C111.489 242.232 110.249 236.092 108.709 228.492C107.169 220.892 105.379 211.852 103.359 201.812C102.359 196.812 101.359 191.522 100.209 186.062C100.079 185.382 99.949 184.672 99.799 184.062C99.6248 183.413 99.21 182.856 98.639 182.502C98.3595 182.32 98.0469 182.194 97.7189 182.132C97.389 182.073 97.0535 182.053 96.7189 182.072H94.569L85.819 182.002L25.299 181.472L6.95895 181.272L1.95895 181.202H0.668945L0.188965 181.092Z" fill="#263238"/>
</svg>
