<svg width="694" height="254" viewBox="0 0 694 254" fill="none" xmlns="http://www.w3.org/2000/svg">
<path d="M282.63 253.33C282.63 253.48 219.4 253.59 141.41 253.59C63.4199 253.59 0.179932 253.48 0.179932 253.33C0.179932 253.18 63.3999 253.07 141.41 253.07C219.42 253.07 282.63 253.19 282.63 253.33Z" fill="#263238"/>
<path d="M693.82 253C693.82 253.14 646.14 253.26 587.33 253.26C528.52 253.26 480.83 253.14 480.83 253C480.83 252.86 528.5 252.74 587.33 252.74C646.16 252.74 693.82 252.8 693.82 253Z" fill="#263238"/>
<path d="M587.499 1.51202C585.323 1.20586 583.104 1.47601 581.065 2.29549C579.026 3.11497 577.238 4.45509 575.879 6.18202C574.353 5.84531 572.762 5.95678 571.297 6.50303C569.833 7.04928 568.557 8.00703 567.625 9.26106C566.692 10.5151 566.141 12.0119 566.039 13.5715C565.937 15.1311 566.288 16.687 567.049 18.052C565.933 18.8463 565.013 19.8849 564.359 21.0886C563.705 22.2923 563.335 23.6294 563.276 24.9979C563.217 26.3665 563.471 27.7304 564.019 28.9858C564.568 30.2412 565.395 31.3549 566.439 32.242L597.229 9.42202C596.442 7.36669 595.129 5.55413 593.422 4.1659C591.714 2.77766 589.672 1.86248 587.499 1.51202V1.51202Z" fill="#263238"/>
<path d="M566.209 33.7021C567.232 25.8716 571.168 18.714 577.231 13.6548C583.295 8.59563 591.042 6.00614 598.929 6.40209L600.549 6.48208C618.019 8.37208 626.179 24.2721 623.799 41.6821L618.359 99.9121L618.069 102.742L577.229 108.842L578.029 93.9621C578.029 93.9621 561.309 90.5121 561.939 73.6521C562.239 65.5121 564.229 48.8021 566.209 33.7021Z" fill="#AE7461"/>
<path d="M577.889 93.932C585.711 94.3238 593.482 92.4636 600.279 88.572C600.279 88.572 594.489 100.432 577.759 98.082L577.889 93.932Z" fill="#6F4439"/>
<path d="M570.699 49.2621C570.66 49.8886 570.867 50.5057 571.276 50.9819C571.685 51.4581 572.264 51.756 572.889 51.8121C573.19 51.8513 573.497 51.8307 573.79 51.7514C574.084 51.6721 574.359 51.5356 574.599 51.3498C574.84 51.164 575.041 50.9325 575.192 50.6686C575.343 50.4047 575.441 50.1137 575.479 49.8121C575.512 49.4948 575.481 49.1742 575.388 48.8691C575.295 48.564 575.143 48.2805 574.938 48.0354C574.734 47.7903 574.483 47.5885 574.2 47.442C573.917 47.2954 573.607 47.2071 573.289 47.1821C572.981 47.1418 572.669 47.1642 572.37 47.2479C572.071 47.3316 571.792 47.475 571.55 47.6693C571.308 47.8636 571.108 48.1049 570.962 48.3787C570.815 48.6524 570.726 48.9529 570.699 49.2621V49.2621Z" fill="#263238"/>
<path d="M569.419 42.1221C569.699 42.4521 571.589 41.1921 574.179 41.3321C576.769 41.4721 578.599 42.8521 578.899 42.5521C579.039 42.4221 578.769 41.8421 577.969 41.1921C576.887 40.3603 575.573 39.885 574.209 39.8321C572.865 39.7538 571.531 40.1039 570.399 40.8321C569.579 41.4221 569.279 41.9821 569.419 42.1221Z" fill="#263238"/>
<path d="M594.789 51.1821C594.75 51.8076 594.957 52.4235 595.367 52.8981C595.776 53.3727 596.354 53.6685 596.979 53.7221C597.28 53.7613 597.587 53.7407 597.88 53.6614C598.173 53.5821 598.448 53.4456 598.689 53.2598C598.93 53.074 599.131 52.8425 599.282 52.5786C599.433 52.3148 599.531 52.0237 599.569 51.7221C599.605 51.0946 599.396 50.4775 598.985 50.0016C598.575 49.5257 597.995 49.2282 597.369 49.1721C597.067 49.1329 596.761 49.154 596.467 49.2341C596.174 49.3142 595.899 49.4516 595.659 49.6386C595.419 49.8255 595.219 50.0582 595.069 50.3231C594.92 50.5881 594.825 50.88 594.789 51.1821V51.1821Z" fill="#263238"/>
<path d="M594.839 43.872C595.119 44.202 597.009 42.942 599.599 43.082C602.189 43.222 604.019 44.602 604.319 44.302C604.459 44.162 604.189 43.582 603.389 42.942C602.305 42.1124 600.993 41.6344 599.629 41.572C598.285 41.4938 596.951 41.8439 595.819 42.572C595.049 43.182 594.699 43.722 594.839 43.872Z" fill="#263238"/>
<path d="M584.489 62.602C584.489 62.452 582.919 62.092 580.329 61.602C579.669 61.502 579.049 61.342 578.959 60.882C578.94 60.1958 579.128 59.5196 579.499 58.942L581.699 54.012C584.769 47.012 587.029 41.182 586.749 41.012C586.469 40.842 583.749 46.492 580.669 53.522L578.549 58.522C578.062 59.3176 577.885 60.2641 578.049 61.182C578.132 61.4117 578.265 61.6203 578.438 61.7931C578.611 61.9659 578.819 62.0987 579.049 62.182C579.408 62.3025 579.781 62.3732 580.159 62.392C582.849 62.652 584.469 62.742 584.489 62.602Z" fill="#263238"/>
<path d="M592.049 64.7721C591.629 64.7721 591.479 67.5321 588.979 69.4121C586.479 71.2921 583.499 70.8221 583.459 71.2121C583.459 71.3921 584.099 71.7921 585.359 71.8921C587.003 71.9975 588.632 71.5195 589.959 70.5421C591.233 69.6009 592.093 68.2033 592.359 66.6421C592.489 65.4721 592.209 64.7621 592.049 64.7721Z" fill="#263238"/>
<path d="M594.669 33.692C594.889 34.412 597.499 34.202 600.509 34.692C603.519 35.182 605.949 36.162 606.379 35.552C606.579 35.252 606.179 34.552 605.229 33.842C603.952 32.9295 602.479 32.33 600.929 32.092C599.385 31.8261 597.801 31.9359 596.309 32.412C595.169 32.832 594.579 33.352 594.669 33.692Z" fill="#263238"/>
<path d="M570.739 34.682C571.169 35.292 572.979 34.772 575.129 34.852C577.279 34.932 579.069 35.442 579.519 34.852C579.719 34.562 579.459 33.962 578.689 33.372C577.673 32.6149 576.445 32.1983 575.179 32.182C573.917 32.139 572.673 32.4884 571.619 33.182C570.839 33.792 570.559 34.382 570.739 34.682Z" fill="#263238"/>
<path d="M568.209 26.0621C568.209 26.0621 573.209 15.7321 578.389 13.5221C584.689 10.8521 587.009 17.7421 592.959 16.3921C598.909 15.0421 604.959 12.4721 610.699 17.3121C617.019 22.6021 613.769 25.9321 613.799 33.4221C613.939 63.8021 619.049 72.6521 621.329 58.4221C621.579 56.8721 625.979 55.8421 626.949 49.2721C628.209 40.7421 629.059 30.3621 627.449 24.1821C626.089 18.9821 623.349 15.2921 618.299 11.1321C610.299 4.56211 598.989 3.86211 591.229 4.26211C583.469 4.66211 568.169 12.8221 568.209 26.0621Z" fill="#263238"/>
<path d="M620.279 57.942C620.331 57.3255 620.507 56.7258 620.796 56.1792C621.086 55.6326 621.484 55.1503 621.965 54.7615C622.446 54.3728 623.001 54.0856 623.597 53.9172C624.192 53.7489 624.815 53.7029 625.429 53.782C628.559 54.242 631.969 56.192 631.429 62.672C630.489 74.172 619.139 70.862 619.149 70.522C619.159 70.182 619.839 62.752 620.279 57.942Z" fill="#AE7461"/>
<path d="M622.049 66.402C622.109 66.402 622.239 66.562 622.569 66.742C623.026 66.9864 623.56 67.0438 624.059 66.902C625.309 66.552 626.489 64.712 626.719 62.642C626.823 61.6563 626.711 60.6596 626.389 59.722C626.311 59.3542 626.144 59.0109 625.904 58.7217C625.663 58.4326 625.356 58.2062 625.009 58.062C624.783 57.9774 624.534 57.9773 624.308 58.0618C624.082 58.1464 623.894 58.3098 623.779 58.522C623.599 58.832 623.659 59.062 623.599 59.082C623.539 59.102 623.359 58.862 623.499 58.402C623.581 58.1187 623.762 57.874 624.009 57.712C624.345 57.5003 624.75 57.4285 625.139 57.512C625.609 57.647 626.035 57.9027 626.375 58.2536C626.716 58.6045 626.958 59.0383 627.079 59.512C627.493 60.5455 627.644 61.6657 627.519 62.772C627.249 65.092 625.889 67.162 624.189 67.502C623.873 67.5685 623.546 67.5625 623.232 67.4846C622.919 67.4067 622.627 67.2588 622.379 67.052C622.049 66.682 621.969 66.422 622.049 66.402Z" fill="#6F4439"/>
<path d="M624.619 38.4821C623.034 39.6397 621.184 40.3823 619.239 40.6421C617.239 40.7421 615.119 39.5121 614.889 37.5721C614.779 36.7021 615.039 35.7121 614.509 35.0121C613.979 34.3121 612.599 34.3721 611.509 34.4321C609.679 34.4843 607.886 33.9071 606.43 32.7969C604.974 31.6868 603.943 30.1108 603.509 28.3321C602.509 29.6721 600.379 29.5021 599.029 28.5321C597.679 27.5621 596.859 26.0521 595.829 24.7521C594.799 23.4521 593.319 22.2521 591.669 22.4021C590.749 22.4921 589.859 22.9921 588.939 22.8621C587.319 22.6421 586.619 20.6921 586.449 19.0621C586.279 17.4321 586.179 15.5321 584.849 14.5821C583.519 13.6321 581.929 14.0921 580.409 14.2421C578.889 14.3921 576.979 13.9421 576.669 12.4521C576.626 12.0545 576.664 11.6524 576.779 11.2694C576.894 10.8864 577.084 10.5304 577.339 10.2221C578.426 8.75644 579.98 7.70385 581.744 7.23689C583.508 6.76993 585.379 6.91632 587.049 7.65206C587.794 5.63401 589.105 3.87375 590.826 2.58247C592.546 1.29118 594.603 0.523685 596.749 0.372058C601.019 0.132058 604.999 -1.08794 606.859 2.77206C609.599 0.52206 613.789 3.47206 617.209 4.43206C618.916 4.92842 620.482 5.82126 621.778 7.03775C623.075 8.25425 624.065 9.75995 624.669 11.4321C626.214 11.0923 627.825 11.2182 629.298 11.7939C630.772 12.3696 632.042 13.3692 632.947 14.6664C633.852 15.9636 634.353 17.5001 634.385 19.0816C634.418 20.6632 633.981 22.2189 633.129 23.5521C635.299 24.9321 637.129 27.2521 637.019 29.8221C636.909 32.3921 634.309 34.8221 631.859 34.0321C632.256 35.061 632.256 36.2006 631.861 37.2299C631.465 38.2593 630.701 39.105 629.717 39.6032C628.733 40.1013 627.599 40.2164 626.536 39.9261C625.472 39.6359 624.553 38.9609 623.959 38.0321" fill="#263238"/>
<path d="M655.489 200.182L689.489 192.842C689.489 192.842 684.829 167.262 679.029 141.322C674.399 120.632 651.539 114.892 651.539 114.892L625.049 103.182L621.479 89.4321C606.919 96.6321 592.789 103.562 584.269 107.032L576.469 98.4121L573.159 108.762L570.369 109.052C570.369 109.052 558.839 112.552 557.679 112.642C547.129 113.482 533.369 125.292 528.219 137.642C526.089 142.752 517.839 173.312 511.799 204.952C507.419 227.842 504.889 250.062 503.799 253.072L537.799 253.142L545.639 204.952L547.939 253.412L663.669 253.052L655.439 204.352L655.489 200.182Z" fill="#FF725E"/>
<path d="M540.569 148.012C540.469 148.012 541.429 160.772 542.719 176.492C544.009 192.212 545.139 204.952 545.249 204.942C545.359 204.932 544.389 192.182 543.099 176.462C541.809 160.742 540.679 148.002 540.569 148.012Z" fill="#263238"/>
<path d="M625.049 103.612L590.639 120.892L584.229 106.892C584.229 106.892 595.749 101.892 606.229 96.3521C616.919 90.6521 621.079 89.4421 621.079 89.4421" fill="#E0E0E0"/>
<path d="M576.099 98.4221L583.899 107.032L576.869 119.572L572.789 108.772" fill="#E0E0E0"/>
<path d="M658.939 119.682C658.999 119.752 657.859 120.682 656.249 122.292C652.049 126.632 649.137 132.054 647.839 137.952C647.349 140.202 647.229 141.632 647.139 141.632C647.092 141.3 647.092 140.964 647.139 140.632C647.189 139.713 647.299 138.797 647.469 137.892C648.569 131.844 651.551 126.297 655.989 122.042C656.648 121.4 657.35 120.802 658.089 120.252C658.34 120.018 658.627 119.825 658.939 119.682V119.682Z" fill="#263238"/>
<path d="M584.269 106.892C584.339 106.892 583.509 108.212 582.269 110.312C581.029 112.412 579.349 115.372 577.759 118.752C577.629 119.032 577.509 119.312 577.389 119.562L577.139 120.102L576.889 119.572C575.589 116.853 574.473 114.05 573.549 111.182C573.209 110.092 572.959 109.182 572.809 108.582C572.697 108.26 572.64 107.922 572.639 107.582C572.709 107.582 573.139 108.892 573.909 111.042C574.679 113.192 575.839 116.122 577.359 119.312H576.869L577.239 118.492C578.603 115.584 580.167 112.774 581.919 110.082C582.589 109.082 583.169 108.232 583.579 107.682C583.772 107.389 584.004 107.123 584.269 106.892V106.892Z" fill="#263238"/>
<path d="M622.049 105.182C621.883 105.235 621.723 105.302 621.569 105.382L620.239 106.012L615.389 108.382L599.389 116.332L590.609 120.752L590.849 120.842L586.169 110.782C585.599 109.582 585.169 108.622 584.799 107.922L584.429 107.162C584.39 107.073 584.339 106.989 584.279 106.912C584.297 107.01 584.331 107.105 584.379 107.192L584.699 107.962L585.979 110.872C587.109 113.382 588.689 116.872 590.529 120.982L590.609 121.142L590.769 121.062L599.559 116.672L615.469 108.622L620.269 106.142L621.569 105.452C621.74 105.383 621.901 105.292 622.049 105.182V105.182Z" fill="#263238"/>
<path d="M685.769 175.282C685.769 175.282 692.829 209.392 693.399 217.282C694.529 232.732 687.119 241.992 680.129 246.382C672.869 250.932 631.899 253.082 631.899 253.082L629.419 228.582L656.049 212.452L652.439 184.532L685.769 175.282Z" fill="#FF725E"/>
<path d="M655.899 211.512C655.893 211.325 655.876 211.138 655.849 210.952C655.789 210.552 655.719 210.022 655.619 209.352C655.409 207.922 655.109 205.922 654.739 203.472C653.949 198.472 652.879 191.632 651.689 184.082C649.349 169.312 647.689 158.672 647.349 156.672C647.331 156.858 647.331 157.046 647.349 157.232C647.349 157.612 647.439 158.152 647.519 158.842C647.689 160.242 647.969 162.252 648.329 164.742C649.049 169.742 650.099 176.572 651.329 184.142C652.559 191.712 653.649 198.562 654.489 203.512C654.899 205.952 655.249 207.952 655.489 209.372C655.609 210.032 655.709 210.562 655.779 210.962C655.801 211.149 655.841 211.333 655.899 211.512V211.512Z" fill="#263238"/>
<path d="M682.329 244.962C682.254 245.008 682.183 245.061 682.119 245.122C681.939 245.297 681.737 245.448 681.519 245.572C680.688 246.087 679.798 246.5 678.869 246.802C675.428 247.929 671.899 248.765 668.319 249.302C656.255 251.194 644.091 252.383 631.889 252.862L632.089 253.022C631.839 250.612 631.589 248.022 631.319 245.482C630.719 239.542 630.139 233.812 629.599 228.532L629.509 228.702L655.319 213.112L662.769 208.572L664.769 207.342L665.269 207.022L665.439 206.902C665.439 206.902 665.379 206.902 665.259 206.992L664.729 207.292L662.729 208.462L655.219 212.922L629.349 228.392L629.249 228.452V228.562C629.779 233.852 630.359 239.562 630.959 245.562C631.219 248.142 631.479 250.692 631.729 253.102V253.282H631.899C644.112 252.797 656.285 251.568 668.349 249.602C671.938 249.035 675.471 248.158 678.909 246.982C679.84 246.662 680.727 246.225 681.549 245.682C681.763 245.544 681.961 245.383 682.139 245.202C682.21 245.129 682.274 245.048 682.329 244.962V244.962Z" fill="#263238"/>
<g opacity="0.3">
<path opacity="0.3" d="M674.049 202.342C673.798 202.03 673.443 201.82 673.049 201.752C671.049 201.302 669.049 202.022 667.229 202.862C661.721 205.497 656.899 209.372 653.139 214.182L653.599 213.922C659.839 210.232 665.359 206.492 672.049 204.712C672.652 204.6 673.223 204.354 673.719 203.992C673.957 203.798 674.12 203.528 674.181 203.226C674.241 202.925 674.194 202.612 674.049 202.342Z" fill="black"/>
</g>
<path d="M629.789 230.072L626.339 230.392C626.339 230.392 625.889 225.392 625.109 223.452C624.329 221.512 622.869 215.512 622.869 215.512C622.869 215.512 607.439 209.022 607.099 209.022C606.759 209.022 591.669 213.182 591.669 213.182C591.669 213.182 592.009 217.312 597.149 217.542C600.226 217.678 603.309 217.416 606.319 216.762L611.129 218.552L601.509 219.162L584.629 229.282C584.629 229.282 584.739 232.282 591.339 230.732C597.939 229.182 601.339 226.372 601.339 226.372L613.749 228.182L600.619 228.802L590.779 233.722C590.779 233.722 590.859 237.802 594.889 236.792C598.919 235.782 601.619 235.182 601.619 235.182L613.359 236.572L603.409 237.122C603.409 237.122 596.699 237.302 597.039 239.122C597.379 240.942 602.299 242.472 602.299 242.472L609.299 243.712C609.299 243.712 609.559 246.842 610.789 247.842C612.019 248.842 613.919 250.252 615.039 250.272C616.159 250.292 631.919 251.132 631.919 251.132L629.789 230.072Z" fill="#AE7461"/>
<path d="M621.189 245.352C621.403 245.245 621.604 245.114 621.789 244.962C622.296 244.563 622.762 244.114 623.179 243.622C624.57 241.969 625.449 239.947 625.709 237.802C625.85 236.625 625.796 235.432 625.549 234.272C625.319 233.212 624.949 232.272 624.839 231.522C624.73 230.903 624.782 230.266 624.989 229.672C625.078 229.457 625.178 229.247 625.289 229.042C625.1 229.195 624.955 229.395 624.869 229.622C624.601 230.228 624.511 230.897 624.609 231.552C624.689 232.382 625.039 233.302 625.249 234.342C625.47 235.468 625.514 236.622 625.379 237.762C625.121 239.847 624.298 241.821 622.999 243.472C622.437 244.138 621.833 244.766 621.189 245.352V245.352Z" fill="#6F4439"/>
<path d="M619.289 244.182C617.585 243.955 615.868 243.838 614.149 243.832C612.437 243.724 610.72 243.724 609.009 243.832C610.709 244.059 612.423 244.176 614.139 244.182C615.854 244.29 617.574 244.29 619.289 244.182V244.182Z" fill="#6F4439"/>
<path d="M618.529 236.752C617.627 236.601 616.71 236.56 615.799 236.632C614.887 236.589 613.974 236.656 613.079 236.832C613.976 236.99 614.89 237.034 615.799 236.962C616.714 237.004 617.631 236.933 618.529 236.752V236.752Z" fill="#6F4439"/>
<path d="M619.049 219.502C619.049 219.402 617.339 219.692 615.249 219.502C613.159 219.312 611.549 218.692 611.519 218.792C612.664 219.393 613.927 219.734 615.219 219.792C616.501 219.972 617.808 219.873 619.049 219.502V219.502Z" fill="#6F4439"/>
<path d="M474.049 180.502L488.829 253.062H617.129C617.809 253.062 618.461 252.793 618.943 252.313C619.424 251.833 619.696 251.182 619.699 250.502V250.502C619.699 249.821 619.428 249.167 618.946 248.685C618.464 248.203 617.81 247.932 617.129 247.932H591.309L577.599 180.452C577.473 179.825 577.134 179.259 576.641 178.852C576.148 178.444 575.529 178.218 574.889 178.212L476.839 177.182C476.424 177.176 476.013 177.263 475.635 177.436C475.258 177.608 474.923 177.863 474.656 178.18C474.389 178.498 474.196 178.871 474.091 179.273C473.986 179.674 473.972 180.094 474.049 180.502V180.502Z" fill="#E0E0E0"/>
<path d="M474.049 180.502C474.044 180.429 474.044 180.355 474.049 180.282C474.016 180.063 474.016 179.841 474.049 179.622C474.097 179.188 474.244 178.77 474.48 178.402C474.716 178.035 475.034 177.727 475.409 177.502C475.672 177.346 475.959 177.235 476.259 177.172C476.588 177.108 476.924 177.085 477.259 177.102H479.569L485.339 177.152L522.409 177.502L548.249 177.762L562.729 177.912L570.329 177.992H574.209C574.539 177.992 574.849 177.992 575.209 177.992C575.556 178.032 575.894 178.13 576.209 178.282C576.838 178.595 577.337 179.119 577.619 179.762C577.741 180.086 577.832 180.421 577.889 180.762L578.089 181.762C578.219 182.412 578.349 183.062 578.489 183.762C578.749 185.072 579.019 186.392 579.289 187.762C579.829 190.429 580.376 193.119 580.929 195.832C582.042 201.279 583.176 206.849 584.329 212.542C586.649 223.912 589.049 235.752 591.529 247.942L591.359 247.802H616.749C617.084 247.783 617.419 247.803 617.749 247.862C618.432 248.006 619.033 248.407 619.429 248.982C619.654 249.299 619.809 249.66 619.883 250.042C619.958 250.423 619.95 250.816 619.861 251.194C619.773 251.573 619.604 251.928 619.368 252.236C619.131 252.544 618.831 252.798 618.489 252.982C618.115 253.178 617.701 253.287 617.279 253.302H549.049H488.819H488.709V253.192C484.199 230.882 480.519 212.742 477.969 200.192L475.049 185.572C474.719 183.922 474.469 182.652 474.299 181.792C474.129 180.932 474.059 180.502 474.059 180.502C474.059 180.502 474.159 180.932 474.339 181.782C474.519 182.632 474.779 183.902 475.129 185.562C475.809 188.882 476.819 193.762 478.129 200.042C480.709 212.612 484.419 230.742 488.989 253.042L488.859 252.932H549.089H617.229C617.596 252.916 617.955 252.817 618.279 252.642C618.571 252.478 618.824 252.255 619.024 251.986C619.223 251.718 619.364 251.411 619.437 251.084C619.509 250.758 619.512 250.419 619.445 250.092C619.379 249.764 619.244 249.454 619.049 249.182C618.705 248.677 618.184 248.32 617.589 248.182C617.281 248.134 616.97 248.118 616.659 248.132H591.159V247.992C588.679 235.802 586.279 223.992 583.969 212.592L580.589 195.882C580.042 193.149 579.496 190.455 578.949 187.802C578.679 186.472 578.409 185.152 578.149 183.802C578.019 183.152 577.879 182.492 577.749 181.802L577.549 180.802C577.505 180.486 577.421 180.177 577.299 179.882C577.052 179.308 576.609 178.84 576.049 178.562C575.771 178.422 575.469 178.333 575.159 178.302C574.859 178.302 574.519 178.302 574.159 178.302L570.279 178.252L562.689 178.162L548.209 178.002L522.369 177.692L485.299 177.242L479.519 177.162H477.219C476.884 177.146 476.549 177.166 476.219 177.222C475.65 177.34 475.134 177.635 474.742 178.064C474.351 178.493 474.105 179.035 474.039 179.612C473.999 179.908 474.002 180.208 474.049 180.502V180.502Z" fill="#263238"/>
<path d="M533.179 213.712C533.179 214.551 532.93 215.371 532.464 216.068C531.998 216.765 531.336 217.308 530.561 217.629C529.787 217.95 528.934 218.034 528.112 217.871C527.289 217.707 526.534 217.303 525.941 216.71C525.348 216.117 524.944 215.362 524.78 214.539C524.617 213.717 524.701 212.864 525.022 212.09C525.342 211.315 525.886 210.653 526.583 210.187C527.28 209.721 528.1 209.472 528.939 209.472C529.496 209.471 530.048 209.58 530.563 209.792C531.078 210.005 531.546 210.317 531.94 210.711C532.334 211.105 532.646 211.573 532.859 212.088C533.071 212.603 533.18 213.155 533.179 213.712Z" fill="white"/>
<path d="M474.189 181.092H474.629H480.909L499.259 181.182L559.769 181.612L568.519 181.682H570.669C571.037 181.671 571.405 181.695 571.769 181.752C572.124 181.833 572.462 181.975 572.769 182.172C573.41 182.577 573.875 183.209 574.069 183.942C574.229 184.652 574.349 185.322 574.499 186.012C575.579 191.472 576.629 196.752 577.619 201.772C579.619 211.772 581.399 220.862 582.899 228.462C584.399 236.062 585.589 242.202 586.419 246.462L587.419 251.362C587.519 251.912 587.599 252.362 587.649 252.632C587.699 252.902 587.719 253.072 587.719 253.072C587.719 253.072 587.719 252.922 587.619 252.642C587.519 252.362 587.459 251.922 587.349 251.372C587.109 250.242 586.769 248.602 586.349 246.492C585.489 242.232 584.249 236.092 582.709 228.492C581.169 220.892 579.379 211.852 577.359 201.812C576.359 196.812 575.359 191.522 574.209 186.062C574.079 185.382 573.949 184.672 573.799 184.062C573.625 183.413 573.21 182.856 572.639 182.502C572.359 182.32 572.047 182.194 571.719 182.132C571.389 182.073 571.053 182.053 570.719 182.072H568.569L559.819 182.002L499.299 181.472L480.959 181.272L475.959 181.202H474.669L474.189 181.092Z" fill="#263238"/>
<path d="M65.81 65.7C65.6577 72.6019 66.9692 79.4577 69.658 85.8161C72.3469 92.1746 76.3521 97.8913 81.41 102.59C83.73 95.8633 86.0633 89.1333 88.41 82.3999" fill="#263238"/>
<path d="M118.36 25.53C112.36 22.26 105.15 21.79 98.4601 23.13C91.7701 24.47 85.5401 27.49 79.6401 30.91C76.3301 32.82 73.0301 34.91 70.6401 37.91C66.2901 43.37 62.0001 52.35 61.5801 59.32C61.2401 64.96 63.4001 79.07 65.7801 84.18C67.9701 88.88 78.2001 92.46 83.2501 93.62L129.59 39.73C128.752 36.7375 127.327 33.9412 125.399 31.5036C123.472 29.066 121.079 27.0355 118.36 25.53V25.53Z" fill="#263238"/>
<path d="M126.35 32.8L115.24 30.8C121.31 45.26 122.96 78.3301 126.43 93.6301C130.53 87.6901 140.04 69.6301 139.53 62.3901C139.02 55.1501 139.55 31.57 126.35 32.8Z" fill="#263238"/>
<path d="M73.68 56.87C73.8835 52.809 75.3843 48.9204 77.9619 45.7758C80.5395 42.6312 84.058 40.3964 88 39.4L113.58 32.87C124.63 31.68 132.02 45.28 132.74 56.37C133.54 68.7 134.04 81.71 132.6 90.91C129.7 109.42 115.53 111.8 115.53 111.8C115.53 111.8 115.53 120.6 115.53 126.01L106.97 161.44L79.38 123.34L73.67 57.09C73.61 56.78 73.65 57.29 73.68 56.87Z" fill="#FFBE9D"/>
<path d="M127.14 70.35C127.148 70.9684 126.914 71.5656 126.488 72.014C126.062 72.4624 125.478 72.7265 124.86 72.7499C124.559 72.7744 124.255 72.7385 123.968 72.6441C123.681 72.5498 123.415 72.3989 123.187 72.2005C122.959 72.0021 122.772 71.76 122.639 71.4886C122.505 71.2172 122.428 70.9219 122.41 70.6199C122.399 70.0008 122.632 69.4021 123.059 68.9532C123.485 68.5042 124.071 68.2408 124.69 68.2199C124.992 68.1941 125.296 68.2291 125.584 68.3229C125.871 68.4167 126.138 68.5674 126.366 68.7661C126.595 68.9648 126.781 69.2074 126.914 69.4795C127.047 69.7516 127.124 70.0476 127.14 70.35Z" fill="#263238"/>
<path d="M129.92 63.62C129.63 63.93 127.83 62.62 125.28 62.62C122.73 62.62 120.85 63.91 120.58 63.62C120.44 63.48 120.74 62.9199 121.58 62.3299C122.68 61.5563 123.995 61.1471 125.34 61.16C126.667 61.1518 127.963 61.5649 129.04 62.34C129.8 62.92 130.07 63.48 129.92 63.62Z" fill="#263238"/>
<path d="M104.89 70.3501C104.898 70.9686 104.664 71.5657 104.238 72.0141C103.812 72.4626 103.228 72.7267 102.61 72.7501C102.308 72.776 102.004 72.741 101.717 72.6472C101.429 72.5533 101.162 72.4026 100.934 72.2039C100.705 72.0052 100.519 71.7627 100.386 71.4906C100.253 71.2185 100.176 70.9225 100.16 70.6201C100.149 70.0009 100.382 69.4023 100.809 68.9533C101.235 68.5043 101.821 68.241 102.44 68.2201C102.741 68.1956 103.045 68.2316 103.332 68.3259C103.619 68.4203 103.885 68.5711 104.113 68.7695C104.341 68.968 104.528 69.21 104.661 69.4814C104.795 69.7529 104.872 70.0482 104.89 70.3501Z" fill="#263238"/>
<path d="M105.68 63.62C105.38 63.93 103.58 62.62 101.03 62.62C98.48 62.62 96.61 63.91 96.33 63.62C96.2 63.48 96.49 62.92 97.33 62.33C98.4295 61.5552 99.745 61.1459 101.09 61.16C102.417 61.1519 103.713 61.565 104.79 62.34C105.55 62.92 105.82 63.48 105.68 63.62Z" fill="#263238"/>
<path d="M113.66 83.67C113.66 83.53 115.23 83.25 117.8 82.91C118.46 82.84 119.07 82.71 119.18 82.27C119.233 81.5968 119.08 80.9236 118.74 80.34C118.127 78.76 117.48 77.0933 116.8 75.34C114.11 68.28 112.16 62.47 112.44 62.34C112.72 62.21 115.14 67.88 117.84 74.94C118.48 76.68 119.11 78.34 119.69 79.94C120.104 80.7221 120.228 81.6253 120.04 82.49C119.951 82.7282 119.809 82.9425 119.623 83.1161C119.437 83.2896 119.214 83.4176 118.97 83.49C118.608 83.5902 118.235 83.644 117.86 83.65C115.27 83.8 113.67 83.82 113.66 83.67Z" fill="#263238"/>
<path d="M91 105.22C91 105.22 97 117.93 115.53 116.15V111.8C106.902 111.918 98.4106 109.64 91 105.22V105.22Z" fill="#EB996E"/>
<path d="M104.88 54.4C104.63 55.09 102.08 54.77 99.0801 55.14C96.0801 55.51 93.6701 56.32 93.2701 55.7C93.0901 55.41 93.5101 54.75 94.4901 54.08C95.7797 53.2335 97.2551 52.712 98.7901 52.56C100.323 52.3712 101.879 52.5495 103.33 53.08C104.43 53.52 105 54.07 104.88 54.4Z" fill="#263238"/>
<path d="M129.09 55.81C128.64 56.39 126.88 55.81 124.77 55.81C122.66 55.81 120.86 56.21 120.45 55.6C120.27 55.31 120.55 54.7299 121.33 54.1799C122.383 53.5105 123.613 53.1719 124.861 53.2075C126.108 53.2432 127.317 53.6515 128.33 54.38C129 54.93 129.29 55.53 129.09 55.81Z" fill="#263238"/>
<path d="M127.67 39.48C126.54 36.7 123.49 35.02 120.49 34.87C117.464 34.87 114.502 35.7339 111.95 37.36C100.95 43.73 95.2801 59.11 84.3901 65.7C81.7101 67.32 78.2301 65.83 75.9501 67.98C73.6701 70.13 72.2001 73.56 73.4601 76.42C71.8948 74.4751 70.6214 72.3123 69.6801 70C69.2135 68.8459 68.9997 67.6051 69.0532 66.3614C69.1067 65.1177 69.4261 63.8999 69.9901 62.79C70.9301 61.16 72.5901 59.91 73.0501 58.09C73.4501 56.48 72.8101 54.8 72.8801 53.14C73.0673 51.4548 73.6497 49.8376 74.5801 48.42C78.8401 40.88 84.7101 34.06 92.2601 29.82C97.1916 26.9714 102.806 25.5194 108.5 25.62C114.214 25.754 119.691 27.9285 123.94 31.75C126.38 34.02 128.94 36.37 127.67 39.45" fill="#263238"/>
<path d="M76.22 70.27C76.02 69.74 66.37 66.27 66.22 76.52C66.09 86.52 76.15 84.5201 76.22 84.2301C76.29 83.9401 76.22 70.27 76.22 70.27Z" fill="#FFBE9D"/>
<path d="M73.1602 80.4299C73.1602 80.4299 72.9802 80.5499 72.6902 80.6799C72.2733 80.8489 71.807 80.8489 71.3902 80.6799C70.3902 80.2899 69.4702 78.6099 69.3902 76.8099C69.371 75.9554 69.5454 75.1076 69.9002 74.3299C69.9995 74.0116 70.1769 73.7232 70.4162 73.4909C70.6555 73.2586 70.949 73.0898 71.2701 72.9999C71.4677 72.9557 71.6745 72.9801 71.8563 73.0692C72.0381 73.1583 72.1841 73.3067 72.2701 73.4899C72.4001 73.7699 72.3301 73.9699 72.3801 73.9799C72.4301 73.9899 72.6001 73.8199 72.5201 73.4099C72.4695 73.1625 72.3354 72.9401 72.1402 72.7799C72.0004 72.67 71.8394 72.5902 71.6673 72.5454C71.4952 72.5007 71.3158 72.492 71.1402 72.5199C70.73 72.5942 70.3461 72.7732 70.0255 73.0395C69.7049 73.3058 69.4585 73.6504 69.3101 74.0399C68.8814 74.8995 68.6654 75.8495 68.6802 76.8099C68.7302 78.8099 69.7402 80.7099 71.1802 81.1399C71.4468 81.2215 71.7285 81.2413 72.0039 81.198C72.2794 81.1547 72.5414 81.0494 72.7701 80.8899C73.1401 80.6699 73.1902 80.4499 73.1602 80.4299Z" fill="#EB996E"/>
<path d="M72.25 65.15C72.4649 65.0629 72.6695 64.9522 72.86 64.82C73.24 64.57 73.86 64.25 74.53 63.75C76.4912 62.3148 78.2946 60.6756 79.91 58.8599C82.2598 56.1364 84.4533 53.2818 86.48 50.31C88.9352 46.6747 91.688 43.2496 94.71 40.07C96.3187 38.4844 98.096 37.0794 100.01 35.88C101.808 34.7845 103.732 33.9115 105.74 33.28C109.147 32.1892 112.731 31.7548 116.3 32C118.708 32.1453 121.086 32.6128 123.37 33.39C124.19 33.64 124.79 33.91 125.22 34.07C125.426 34.1742 125.644 34.2515 125.87 34.3C125.67 34.1837 125.463 34.0801 125.25 33.99C124.658 33.6991 124.051 33.442 123.43 33.22C121.143 32.3786 118.75 31.8603 116.32 31.68C112.708 31.3962 109.075 31.8104 105.62 32.9C103.574 33.5316 101.612 34.4115 99.78 35.52C97.8319 36.7332 96.0242 38.1586 94.39 39.77C91.3447 42.9631 88.5842 46.4162 86.14 50.09C84.1346 53.0603 81.9715 55.9211 79.66 58.66C78.0831 60.4959 76.3278 62.1708 74.42 63.66C73.74 64.18 73.17 64.52 72.81 64.79C72.45 65.06 72.25 65.14 72.25 65.15Z" fill="#455A64"/>
<path d="M72 82.19C71.4997 82.0962 70.9824 82.1967 70.5537 82.4711C70.1249 82.7455 69.8169 83.173 69.6923 83.6666C69.5678 84.1601 69.6362 84.6826 69.8836 85.1276C70.1309 85.5725 70.5386 85.9063 71.0235 86.0611C71.5085 86.2159 72.0342 86.1799 72.4935 85.9605C72.9529 85.7411 73.3113 85.3549 73.4957 84.8804C73.6801 84.4059 73.6767 83.879 73.4861 83.407C73.2956 82.935 72.9322 82.5534 72.47 82.34" fill="white"/>
<path d="M72.49 82.3401C72.9201 82.6841 73.2343 83.1518 73.39 83.6801C73.4588 83.9521 73.4592 84.2369 73.3911 84.5091C73.3231 84.7813 73.1887 85.0324 73 85.2401C72.7748 85.5015 72.4773 85.6905 72.145 85.7833C71.8127 85.8761 71.4603 85.8686 71.1322 85.7617C70.8042 85.6549 70.515 85.4534 70.3011 85.1826C70.0872 84.9119 69.9581 84.584 69.93 84.2401C69.8966 83.9607 69.933 83.6775 70.036 83.4157C70.1389 83.1539 70.3053 82.9217 70.52 82.7401C70.951 82.403 71.474 82.2043 72.02 82.1701C72.02 82.1701 71.87 82.0701 71.56 82.0601C71.1077 82.0637 70.6689 82.2146 70.31 82.4901C70.0345 82.6967 69.817 82.971 69.6786 83.2863C69.5402 83.6017 69.4856 83.9474 69.52 84.2901C69.5444 84.7205 69.6988 85.1334 69.9629 85.4742C70.2269 85.815 70.5881 86.0676 70.9988 86.1988C71.4095 86.3299 71.8503 86.3333 72.263 86.2085C72.6757 86.0838 73.0408 85.8367 73.31 85.5001C73.4926 85.2825 73.6282 85.0296 73.7083 84.7572C73.7884 84.4848 73.8114 84.1987 73.7757 83.917C73.74 83.6353 73.6465 83.364 73.5009 83.1202C73.3554 82.8763 73.161 82.6652 72.93 82.5001C72.67 82.3401 72.5 82.3101 72.49 82.3401Z" fill="#263238"/>
<path d="M74.7601 68C74.6001 70.72 74.4801 73.6 75.7601 76C77.0401 78.4 80.1801 80.07 82.5501 78.71C84.4801 77.61 85.0601 75.14 85.3901 72.94C86.3301 66.59 86.7601 60.18 87.7601 53.84L74.7601 68Z" fill="#263238"/>
<path d="M125.22 34.74C125.22 34.8 124.34 34.57 122.74 34.52C120.485 34.4843 118.245 34.8955 116.15 35.73C114.7 36.2843 113.316 36.9952 112.02 37.85C110.536 38.8506 109.114 39.9393 107.76 41.11C104.628 43.7663 101.825 46.7878 99.4102 50.11C98.1502 51.89 97.0302 53.72 95.8102 55.41C94.661 57.0611 93.3181 58.5685 91.8102 59.9C89.2285 62.0931 86.4033 63.9822 83.3902 65.53C80.8402 66.88 78.7102 67.83 77.2402 68.53L75.5302 69.25C75.3365 69.3478 75.1317 69.4217 74.9202 69.47C75.0957 69.3394 75.2873 69.2318 75.4902 69.15L77.1502 68.33C78.5902 67.62 80.6902 66.62 83.1502 65.24C86.1042 63.6514 88.8771 61.7469 91.4202 59.56C92.8837 58.2423 94.1891 56.759 95.3102 55.14C96.5002 53.47 97.6202 51.64 98.9002 49.84C101.333 46.4808 104.175 43.4374 107.36 40.78C108.742 39.6054 110.195 38.5167 111.71 37.52C113.043 36.6671 114.464 35.9629 115.95 35.42C118.099 34.6015 120.394 34.2405 122.69 34.36C123.312 34.404 123.93 34.4908 124.54 34.62C124.771 34.6298 125 34.6702 125.22 34.74Z" fill="#455A64"/>
<path d="M74.4802 61.82C74.212 62.0517 73.9165 62.2498 73.6002 62.41L71.0802 63.89L70.2302 64.38C69.8969 64.5767 69.5252 64.6995 69.1402 64.74C68.905 64.7677 68.6676 64.711 68.4702 64.58C68.3605 64.5065 68.2691 64.4088 68.2032 64.2943C68.1373 64.1799 68.0986 64.0518 68.0902 63.92C68.116 63.4622 68.2799 63.0229 68.5602 62.66L71.4902 58L71.8902 58.36C69.9339 59.7918 67.5406 60.4988 65.1202 60.36C64.8105 60.354 64.5035 60.3 64.2102 60.2C64.0414 60.15 63.8853 60.0642 63.7525 59.9486C63.6196 59.8331 63.5131 59.6903 63.4402 59.53C63.3845 59.3621 63.3709 59.1832 63.4005 59.0088C63.4302 58.8344 63.5022 58.67 63.6102 58.53C63.7796 58.3053 63.9705 58.0976 64.1802 57.91C65.4932 56.6383 66.633 55.1993 67.5702 53.63C68.3975 52.139 69.1193 50.5919 69.7302 49C69.6859 49.4593 69.5782 49.9102 69.4102 50.34C69.0296 51.5383 68.5269 52.6943 67.9102 53.79C67.0014 55.4242 65.867 56.9223 64.5402 58.24C64.1702 58.59 63.8002 59 63.9402 59.31C64.0802 59.62 64.6302 59.78 65.1502 59.78C66.2889 59.8402 67.4293 59.7015 68.5202 59.37C69.5981 59.0439 70.6126 58.5367 71.5202 57.87L72.7102 57L71.9202 58.24C70.8502 59.9 69.8402 61.46 68.9202 62.89C68.6872 63.1772 68.5383 63.5233 68.4902 63.89C68.4973 63.9575 68.5184 64.0228 68.552 64.0818C68.5857 64.1407 68.6312 64.192 68.6857 64.2325C68.7403 64.2729 68.8026 64.3016 68.8688 64.3166C68.935 64.3317 69.0036 64.3328 69.0702 64.32C69.708 64.1879 70.3153 63.9368 70.8602 63.58L73.4602 62.24C73.7815 62.0582 74.1241 61.9172 74.4802 61.82V61.82Z" fill="#455A64"/>
<path d="M104 88.3799C104.184 87.6209 104.63 86.9512 105.259 86.4885C105.888 86.0258 106.661 85.7996 107.44 85.8499C108.009 85.9206 108.551 86.1311 109.019 86.4627C109.487 86.7942 109.865 87.2365 110.12 87.7499C110.367 88.2684 110.507 88.8311 110.533 89.4047C110.559 89.9784 110.469 90.5514 110.27 91.0899L110.22 91.3199C109.689 91.8934 108.994 92.2886 108.229 92.4515C107.465 92.6144 106.669 92.537 105.95 92.2299C105.245 91.8943 104.671 91.3343 104.318 90.6376C103.965 89.9409 103.853 89.1469 104 88.3799V88.3799Z" fill="#EB996E"/>
<path d="M112 91.3799C112 90.9899 109.42 91.1099 107.48 88.9999C105.54 86.8899 105.68 84.1099 105.32 84.1099C105.16 84.1099 104.85 84.7499 104.88 85.9099C104.928 87.4256 105.513 88.8751 106.53 89.9999C107.507 91.0746 108.861 91.7302 110.31 91.8299C111.42 91.8699 112 91.5499 112 91.3799Z" fill="#263238"/>
<path d="M61.9002 120.59L79.6802 118.01L115.24 123.27L125.22 126.8L123.45 148.63L89.2602 154.92L66.1902 148.09L57.4702 135.25L61.9002 120.59Z" fill="#FFBE9D"/>
<path d="M50.7001 122.68L65.5801 119.17C65.5801 119.17 76.0901 151.69 102.05 150.29C123.21 149.15 123.45 125.53 123.45 125.53L138.7 130.41C138.7 130.41 144.53 169.52 138.08 197.23C136.57 203.7 134.55 212.43 134.55 212.43L136.61 252.91L23.8501 253.09L50.7001 122.68Z" fill="#FF725E"/>
<g opacity="0.3">
<path opacity="0.3" d="M94.9 245.06C89.42 244.92 84.35 245.38 78.9 245.25C72.32 245.09 65.69 244.93 59.19 246C54.31 246.8 49.57 248.29 44.7 249.06C38.05 250.06 30.95 249.73 25.03 246.53L26 241L48.47 235.59L94.9 245.06Z" fill="black"/>
</g>
<path d="M151.43 139.53C146.27 132.86 137.7 130.09 137.7 130.09L131.93 180.32L142.86 253.45L178.64 253.28C178.64 253.28 158.9 149.18 151.43 139.53Z" fill="#FF725E"/>
<path d="M52.4401 122.31C52.4401 122.31 28.3501 124.24 19.7101 163.7C15.8001 181.55 10.8601 202.47 9.44011 216.53C8.40011 226.72 14.0001 242.69 24.1101 244L36.8901 245.72C39.3964 246.083 41.9477 245.988 44.4201 245.44C52.5001 243.59 53.3201 238.05 54.7401 232.16L58.4701 220.39C60.4701 209.19 50.0801 207.1 44.3101 207.22L48.6101 156.1L52.4401 122.31Z" fill="#FF725E"/>
<path d="M140.68 158C140.732 158.18 140.769 158.364 140.79 158.55L141.03 160.14C141.08 160.49 141.14 160.87 141.2 161.29C141.26 161.71 141.29 162.17 141.34 162.67C141.44 163.67 141.56 164.78 141.61 166.03C141.784 168.95 141.804 171.878 141.67 174.8C141.494 178.382 141.137 181.954 140.6 185.5C140.05 189.27 139.35 192.84 138.65 196.07C137.95 199.3 137.24 202.18 136.65 204.61C136.06 207.04 135.53 208.98 135.16 210.33L134.73 211.88C134.689 212.061 134.632 212.239 134.56 212.41C134.571 212.223 134.605 212.039 134.66 211.86L135.02 210.29C135.35 208.89 135.82 206.94 136.39 204.54C136.96 202.14 137.64 199.22 138.31 195.99C138.98 192.76 139.68 189.21 140.23 185.44C140.78 181.67 141.17 178.08 141.32 174.79C141.47 171.5 141.49 168.53 141.32 166.04C141.32 164.79 141.18 163.67 141.1 162.68C141.1 162.19 141.03 161.73 141 161.31C140.97 160.89 140.9 160.51 140.86 160.16C140.79 159.49 140.74 158.96 140.69 158.56C140.673 158.374 140.67 158.187 140.68 158V158Z" fill="#263238"/>
<path d="M25.4202 221.05C25.4382 220.71 25.5022 220.373 25.6102 220.05C25.8448 219.161 26.1559 218.295 26.5402 217.46C27.8009 214.665 29.7677 212.246 32.2471 210.442C34.7264 208.637 37.6328 207.51 40.6802 207.17C41.5926 207.062 42.5126 207.032 43.4302 207.08C43.767 207.081 44.1025 207.122 44.4302 207.2C43.1868 207.215 41.9451 207.295 40.7102 207.44C37.7335 207.85 34.9044 208.99 32.4742 210.757C30.044 212.524 28.088 214.865 26.7802 217.57C26.2615 218.703 25.8074 219.865 25.4202 221.05V221.05Z" fill="#263238"/>
<path d="M31 201.39C31 201.39 31.21 201.34 31.59 201.33C32.1176 201.324 32.645 201.348 33.17 201.4C36.6901 201.775 40.0254 203.164 42.77 205.4C43.1871 205.729 43.5814 206.087 43.95 206.47C44.21 206.74 44.34 206.89 44.32 206.91C44.3 206.93 43.67 206.4 42.6 205.61C39.8094 203.564 36.5625 202.229 33.14 201.72C31.81 201.48 31 201.45 31 201.39Z" fill="#263238"/>
<path d="M55.92 150.29C55.8625 149.94 55.8424 149.584 55.86 149.23C55.86 148.55 55.86 147.57 55.73 146.37C55.509 143.224 54.973 140.109 54.13 137.07C53.2724 134.037 52.1098 131.099 50.66 128.3C50.1 127.23 49.66 126.37 49.28 125.79C49.0892 125.493 48.922 125.182 48.78 124.86C49.0181 125.121 49.2292 125.406 49.41 125.71C49.79 126.27 50.31 127.11 50.9 128.17C52.4324 130.956 53.6403 133.909 54.5 136.97C55.3496 140.031 55.8528 143.177 56 146.35C56 147.57 56 148.55 56 149.23C56.0105 149.585 55.9837 149.94 55.92 150.29V150.29Z" fill="#263238"/>
<path d="M102.05 186.11C102.05 186.11 102.05 186.26 101.94 186.53C101.827 186.923 101.693 187.311 101.54 187.69C101.004 189.104 100.334 190.463 99.54 191.75C97.5265 195.082 94.7846 197.915 91.52 200.037C88.2554 202.159 84.5529 203.513 80.69 204C78.4591 204.286 76.2009 204.286 73.97 204C72.4685 203.806 70.9886 203.472 69.55 203C69.1563 202.88 68.7692 202.74 68.39 202.58C68.2537 202.539 68.1228 202.482 68 202.41C68 202.41 68.57 202.57 69.59 202.86C71.0347 203.259 72.5096 203.54 74 203.7C78.9362 204.279 83.9353 203.444 88.4158 201.293C92.8963 199.142 96.6742 195.764 99.31 191.55C100.115 190.274 100.817 188.937 101.41 187.55C101.82 186.66 102 186.1 102.05 186.11Z" fill="#263238"/>
<path d="M51.29 241.63C51.29 241.63 50.87 242.14 49.97 242.88C48.6586 243.873 47.1578 244.588 45.56 244.98C43.1913 245.569 40.7452 245.785 38.31 245.62C35.56 245.42 32.52 245.1 29.37 244.62C26.4022 244.237 23.4785 243.567 20.64 242.62C19.4565 242.099 18.3735 241.375 17.44 240.48C16.6077 239.706 15.854 238.852 15.19 237.93C14.2278 236.593 13.4036 235.163 12.73 233.66C12.5 233.12 12.32 232.66 12.22 232.42C12.1547 232.276 12.0812 232.136 12 232C12.0103 232.158 12.0475 232.314 12.11 232.46C12.2 232.76 12.36 233.19 12.57 233.74C13.2111 235.278 14.0264 236.738 15 238.09C15.6621 239.035 16.4158 239.913 17.25 240.71C18.2033 241.641 19.3137 242.396 20.53 242.94C23.3779 243.927 26.3202 244.618 29.31 245C32.48 245.47 35.51 245.78 38.31 246C40.7834 246.158 43.2661 245.912 45.66 245.27C47.2764 244.84 48.7807 244.066 50.07 243C50.4144 242.697 50.7292 242.362 51.01 242C51.1154 241.886 51.2092 241.762 51.29 241.63V241.63Z" fill="#263238"/>
<path d="M55.2602 162.87C55.1602 162.87 52.6202 172.7 49.5902 184.87C46.5602 197.04 44.1902 207 44.2902 207C44.3902 207 46.9402 197.17 49.9702 185C53.0002 172.83 55.3702 162.89 55.2602 162.87Z" fill="#263238"/>
<path d="M58.3302 218.51C58.4087 218.247 58.4491 217.974 58.4502 217.7C58.5323 216.956 58.5524 216.207 58.5102 215.46C58.4291 214.333 58.0532 213.246 57.4202 212.31C57.0674 211.747 56.655 211.224 56.1902 210.75C55.6725 210.26 55.0984 209.834 54.4802 209.48C52.2961 208.325 49.9272 207.56 47.4802 207.22C46.7452 207.106 46.0037 207.039 45.2602 207.02C44.9887 206.975 44.7117 206.975 44.4402 207.02C44.4402 207.08 45.6002 207.13 47.4402 207.45C49.8326 207.871 52.1463 208.657 54.3002 209.78C54.887 210.12 55.4309 210.53 55.9202 211C56.3684 211.455 56.7735 211.95 57.1302 212.48C57.7434 213.371 58.1218 214.403 58.2302 215.48C58.2981 216.215 58.3214 216.953 58.3002 217.69C58.2774 217.963 58.2875 218.239 58.3302 218.51V218.51Z" fill="#263238"/>
<g opacity="0.3">
<path opacity="0.3" d="M139.57 191.15C145.72 180.74 145.85 167.22 140.49 156.39C142.207 167.936 141.835 179.696 139.39 191.11" fill="black"/>
</g>
<path d="M107 217.15L106.78 217.26L107 217.15Z" fill="#FFBE9D"/>
<path d="M129.77 237.87C127.83 234.21 112.72 224.57 112.72 224.57L116.81 223.62L121.33 225.53C121.67 227.061 122.331 228.503 123.27 229.76C124.93 232.13 127.75 229.68 127.75 229.68L125.84 220.53L116.91 215.15C116.91 215.15 108.5 216.44 107.14 217.09L103.56 220.37C101.98 221.6 97.44 226.46 96.2 226.61C94.96 226.76 56 218 56 218C50.65 222.23 47.84 230.65 47 236.72C47 236.72 46 239.72 47.08 241.32L94.96 245.08L105.11 247.88C107.828 249.006 110.613 249.961 113.45 250.74C116.82 251.45 119.1 250.36 119.19 248.5C119.28 246.64 116.66 246.43 116.66 246.43C114.422 245.62 112.24 244.662 110.13 243.56C108.595 242.526 107.333 241.136 106.45 239.51L110.07 239.95C110.07 239.95 117.76 245.28 120.65 246.85C123.54 248.42 124.11 245.54 124.35 244.67C124.59 243.8 115.71 235.11 115.71 235.11C115.71 235.11 124.14 240.31 125.66 241.63C127.18 242.95 129.43 243.33 129.91 242.45C130.39 241.57 131.7 241.53 129.77 237.87Z" fill="#FFBE9D"/>
<path d="M88.15 238.71C88.1186 238.514 88.1186 238.315 88.15 238.12C88.1223 237.891 88.1223 237.659 88.15 237.43C88.1829 237.119 88.2397 236.812 88.32 236.51C88.7997 234.783 89.6341 233.176 90.77 231.79C91.8707 230.395 93.1067 229.112 94.46 227.96C94.9909 227.45 95.5741 226.997 96.2 226.61C95.707 227.15 95.1828 227.661 94.63 228.14C93.3383 229.335 92.1414 230.629 91.05 232.01C89.9463 233.367 89.1022 234.917 88.56 236.58C88.19 237.87 88.22 238.72 88.15 238.71Z" fill="#EB996E"/>
<path d="M112.37 224.28C111.507 224.466 110.607 224.386 109.79 224.05C108.937 223.827 108.173 223.349 107.6 222.68C107.66 222.59 108.6 223.28 109.9 223.68C111.2 224.08 112.37 224.17 112.37 224.28Z" fill="#EB996E"/>
<path d="M114.88 234.3C113.561 233.944 112.273 233.479 111.03 232.91C109.747 232.443 108.506 231.868 107.32 231.19C108.641 231.541 109.93 232.006 111.17 232.58C112.454 233.044 113.696 233.62 114.88 234.3V234.3Z" fill="#EB996E"/>
<path d="M106.78 239.41C106.088 239.261 105.417 239.029 104.78 238.72C104.107 238.519 103.459 238.241 102.85 237.89C103.56 237.906 104.259 238.073 104.9 238.38C105.592 238.588 106.232 238.939 106.78 239.41V239.41Z" fill="#EB996E"/>
<path d="M113.64 235C113.64 235.1 112.8 235.43 112.15 236.31C111.788 236.864 111.499 237.462 111.29 238.09C111.29 238.09 111.2 237.85 111.29 237.47C111.378 236.969 111.584 236.496 111.89 236.09C112.202 235.688 112.603 235.363 113.06 235.14C113.38 234.94 113.62 234.92 113.64 235Z" fill="#EB996E"/>
<path d="M117.19 229.37C117.19 229.47 116.57 229.82 116.14 230.59C115.919 231.079 115.735 231.584 115.59 232.1C115.485 231.821 115.452 231.52 115.494 231.224C115.536 230.929 115.652 230.649 115.83 230.41C116.34 229.53 117.17 229.28 117.19 229.37Z" fill="#EB996E"/>
<path d="M116 219.39C116 219.39 115.83 219.24 115.72 218.91C115.601 218.475 115.601 218.015 115.72 217.58C115.823 217.139 116.044 216.735 116.36 216.41C116.6 216.16 116.8 216.08 116.82 216.11C116.462 216.568 116.205 217.098 116.069 217.664C115.933 218.23 115.92 218.819 116.03 219.39H116Z" fill="#EB996E"/>
<path d="M46.59 242.67C46.6491 242.306 46.6726 241.938 46.66 241.57C46.66 241.22 46.66 240.78 46.66 240.28C46.66 239.78 46.66 239.21 46.78 238.58C47.0819 235.308 47.8011 232.089 48.92 229C49.5408 227.304 50.3 225.662 51.19 224.09C51.63 223.38 52.01 222.69 52.45 222.09L53.07 221.22L53.68 220.44C55.27 218.49 56.49 217.44 56.44 217.44C56.1318 217.642 55.8437 217.873 55.58 218.13C55.2278 218.405 54.8938 218.702 54.58 219.02C54.23 219.39 53.82 219.79 53.42 220.29L52.78 221.06C52.57 221.33 52.36 221.63 52.14 221.93C51.68 222.52 51.28 223.22 50.83 223.93C49.9151 225.527 49.139 227.2 48.51 228.93C47.3877 232.052 46.7144 235.318 46.51 238.63C46.45 239.27 46.51 239.84 46.44 240.35C46.37 240.86 46.44 241.28 46.44 241.64C46.4662 241.986 46.5163 242.331 46.59 242.67V242.67Z" fill="#263238"/>
<g opacity="0.3">
<path opacity="0.3" d="M30.16 208.45C34.6561 206.602 39.6046 206.153 44.36 207.16V207.16C40.2766 206.974 36.237 208.068 32.8055 210.289C29.3741 212.511 26.7221 215.748 25.22 219.55C24.87 220.47 24.22 221.55 23.22 221.41C22.22 221.27 22 220.14 22 219.22C22 214.44 25.75 210.3 30.16 208.45Z" fill="black"/>
</g>
<path d="M141 154.63C141.224 154.597 141.44 154.526 141.64 154.42C142.04 154.26 142.64 154 143.31 153.66C145.112 152.748 146.834 151.688 148.46 150.49C150.086 149.287 151.608 147.949 153.01 146.49C153.54 145.92 154.01 145.49 154.23 145.12C154.386 144.957 154.518 144.772 154.62 144.57C153.988 145.112 153.384 145.686 152.81 146.29C151.37 147.685 149.84 148.985 148.23 150.18C146.636 151.365 144.966 152.444 143.23 153.41C141.8 154.16 140.94 154.58 141 154.63Z" fill="white"/>
<path d="M55.5701 157.42L55.7601 157.55L56.3301 157.89C56.8201 158.19 57.5701 158.6 58.5501 159.12C61.3288 160.541 64.2102 161.751 67.1701 162.74C71.567 164.204 76.0797 165.295 80.6601 166C86.2636 166.835 91.9156 167.302 97.5801 167.4C103.58 167.55 109.35 167.4 114.58 167.31C119.206 167.261 123.825 166.927 128.41 166.31C131.503 165.872 134.552 165.163 137.52 164.19C138.57 163.84 139.37 163.54 139.9 163.31L140.52 163.06L140.72 162.96C140.644 162.966 140.569 162.987 140.5 163.02L139.88 163.24C139.33 163.45 138.52 163.72 137.47 164.05C134.496 164.961 131.452 165.629 128.37 166.05C123.793 166.649 119.185 166.983 114.57 167.05C109.36 167.15 103.62 167.25 97.5701 167.11C91.9203 167.007 86.2825 166.549 80.6901 165.74C76.1286 165.057 71.6303 164.004 67.2401 162.59C64.2866 161.595 61.4063 160.396 58.6201 159C57.6201 158.51 56.8701 158.12 56.3601 157.84L55.7801 157.53C55.6501 157.45 55.5801 157.41 55.5701 157.42Z" fill="white"/>
<path d="M140.71 183.76C141.022 183.721 141.33 183.654 141.63 183.56L144.09 182.89C146.16 182.3 149.02 181.47 152.17 180.53C155.32 179.59 158.17 178.71 160.22 178.06L162.64 177.27C162.946 177.19 163.241 177.076 163.52 176.93C163.208 176.968 162.9 177.035 162.6 177.13L160.14 177.8C158.06 178.39 155.21 179.22 152.06 180.16C148.91 181.1 146.06 181.98 144.01 182.63L141.58 183.42C141.277 183.495 140.984 183.61 140.71 183.76V183.76Z" fill="white"/>
<path d="M138.56 224.67C138.56 224.77 145.97 222.67 155.05 219.93C164.13 217.19 171.47 214.93 171.44 214.83C171.41 214.73 164.02 216.83 154.94 219.57C145.86 222.31 138.52 224.57 138.56 224.67Z" fill="white"/>
<path d="M31.6401 136.21C31.8863 136.452 32.1579 136.666 32.4501 136.85C32.9901 137.25 33.7901 137.8 34.7901 138.45C37.4024 140.124 40.1103 141.643 42.9001 143C45.6885 144.375 48.557 145.58 51.4901 146.61C52.6201 147.01 53.5401 147.3 54.1801 147.48C54.5055 147.595 54.84 147.682 55.1801 147.74C54.8614 147.573 54.5263 147.439 54.1801 147.34L51.5401 146.34C49.3101 145.49 46.2801 144.23 43.0201 142.63C39.7601 141.03 36.9101 139.4 34.8801 138.16L32.4901 136.67C32.218 136.497 31.9339 136.343 31.6401 136.21Z" fill="white"/>
<path d="M16.9001 178.24C17.283 178.464 17.6845 178.655 18.1001 178.81C18.8801 179.16 20.0301 179.62 21.4701 180.15C28.9721 182.888 36.8513 184.453 44.8301 184.79C46.3601 184.86 47.6001 184.87 48.4501 184.85C48.8946 184.863 49.3394 184.839 49.7801 184.78C49.3395 184.72 48.8949 184.693 48.4501 184.7C47.6001 184.7 46.3701 184.62 44.8501 184.52C36.9141 184.03 29.0802 182.473 21.5601 179.89C20.1201 179.4 18.9501 178.98 18.1601 178.67C17.7507 178.498 17.3296 178.354 16.9001 178.24Z" fill="white"/>
<path d="M38.2 245.47C38.22 245.334 38.22 245.196 38.2 245.06C38.2 244.75 38.09 244.37 38.01 243.9C37.93 243.43 37.82 242.77 37.75 242.05C37.68 241.33 37.55 240.51 37.52 239.6C37.52 239.14 37.49 238.66 37.43 238.16C37.43 237.67 37.43 237.16 37.43 236.61C37.43 235.54 37.48 234.39 37.53 233.18C37.8824 227.954 39.1059 222.823 41.15 218C41.65 216.9 42.15 215.84 42.63 214.9C42.88 214.43 43.1 213.96 43.36 213.53L44.09 212.29C44.53 211.5 45.02 210.83 45.42 210.22C45.82 209.61 46.18 209.1 46.49 208.69L47.18 207.74C47.2709 207.633 47.3482 207.516 47.41 207.39C47.3025 207.479 47.2053 207.58 47.12 207.69L46.37 208.6C46.04 209 45.65 209.49 45.24 210.09C44.83 210.69 44.32 211.36 43.85 212.15L43.1 213.38C42.84 213.81 42.61 214.28 42.35 214.75C41.81 215.69 41.35 216.75 40.83 217.86C39.7819 220.283 38.9357 222.788 38.3 225.35C37.6983 227.921 37.307 230.536 37.13 233.17C37.13 234.39 37.01 235.54 37.06 236.62C37.06 237.16 37.06 237.69 37.06 238.19C37.06 238.69 37.13 239.19 37.17 239.63C37.17 240.55 37.36 241.37 37.46 242.09C37.5361 242.709 37.6462 243.323 37.79 243.93C37.89 244.4 37.97 244.78 38.04 245.09C38.0771 245.223 38.1308 245.351 38.2 245.47V245.47Z" fill="white"/>
<path d="M9.62023 222.8C9.67023 222.8 9.68023 222.2 9.85023 221.13C10.1056 219.627 10.5949 218.172 11.3002 216.82C12.3568 214.821 13.7739 213.034 15.4802 211.55C17.569 209.731 19.9808 208.32 22.5902 207.39C25.2231 206.526 27.9698 206.058 30.7402 206C33.0066 205.936 35.2747 206.02 37.5302 206.25C39.4602 206.44 41.0202 206.63 42.1002 206.75L43.3502 206.89H43.7802C43.6466 206.834 43.5047 206.8 43.3602 206.79L42.1202 206.58C41.0502 206.41 39.4902 206.18 37.5602 205.96C35.2907 205.69 33.0053 205.577 30.7202 205.62C27.9127 205.657 25.1274 206.123 22.4602 207C19.8042 207.941 17.3557 209.387 15.2502 211.26C13.5177 212.776 12.0949 214.613 11.0602 216.67C10.3619 218.053 9.90206 219.544 9.70023 221.08C9.64635 221.495 9.61963 221.912 9.62023 222.33C9.60511 222.486 9.60511 222.644 9.62023 222.8Z" fill="white"/>
<path d="M89.2102 201.39L89.6302 201.46L90.8302 201.58L95.2702 201.95C99.0202 202.24 104.2 202.6 109.93 202.89C115.66 203.18 120.85 203.38 124.62 203.42C126.5 203.42 128.02 203.42 129.07 203.42H130.28C130.419 203.444 130.561 203.444 130.7 203.42H130.28H129.07L124.62 203.31C120.87 203.2 115.68 202.98 109.95 202.68L95.2902 201.85L90.8402 201.6L89.6302 201.55C89.501 201.472 89.3587 201.418 89.2102 201.39V201.39Z" fill="white"/>
<g opacity="0.3">
<path opacity="0.3" d="M84.91 202.92C80.25 204.29 73.79 204.63 69.25 202.92C72.8 207.92 79.66 209.79 85.61 208.15C91.56 206.51 97.05 200.55 97.51 194.39C94.2768 198.45 89.8808 201.426 84.91 202.92V202.92Z" fill="black"/>
</g>
<path d="M47.1201 198.05L47.4901 198.15L48.5701 198.38C49.5001 198.57 50.8601 198.83 52.5701 199.12C55.9401 199.71 60.5701 200.44 65.7801 201.07C70.9901 201.7 75.6601 202.12 79.0701 202.36C80.7801 202.48 82.1601 202.56 83.0701 202.6H84.1701C84.2993 202.62 84.4309 202.62 84.5601 202.6L84.1801 202.54L83.0801 202.43L79.0801 202.07C75.6801 201.76 70.9901 201.3 65.8201 200.67C60.6501 200.04 55.9801 199.35 52.6101 198.83L48.6101 198.21L47.5201 198.05C47.2501 198 47.1201 198 47.1201 198.05Z" fill="white"/>
<g opacity="0.3">
<path opacity="0.3" d="M54.8702 165.11C56.0402 178.5 52.3902 191.79 48.7802 204.74C48.6161 205.548 48.2745 206.31 47.7802 206.97C47.5271 207.294 47.1767 207.528 46.7807 207.637C46.3847 207.747 45.9639 207.727 45.5802 207.58C44.4502 207.01 44.5802 205.37 44.9202 204.15L54.9202 165.66" fill="black"/>
</g>
<path d="M242.17 178.45L227 253.09H95.0001C94.3026 253.09 93.6336 252.813 93.1404 252.32C92.6472 251.827 92.3701 251.158 92.3701 250.46V250.46C92.3701 249.762 92.6469 249.092 93.1398 248.597C93.6328 248.102 94.3017 247.823 95.0001 247.82H121.57L135.66 178.41C135.791 177.762 136.141 177.179 136.65 176.758C137.16 176.338 137.799 176.105 138.46 176.1L239.32 175C239.75 174.994 240.175 175.085 240.565 175.265C240.954 175.445 241.299 175.711 241.572 176.042C241.846 176.373 242.041 176.761 242.145 177.178C242.248 177.595 242.257 178.029 242.17 178.45V178.45Z" fill="#E0E0E0"/>
<path d="M242.17 178.45C242.17 178.45 242.17 178.38 242.22 178.23C242.295 177.67 242.203 177.099 241.955 176.591C241.708 176.082 241.317 175.658 240.83 175.37C240.574 175.205 240.294 175.08 240 175C239.67 174.947 239.334 174.927 239 174.94H236.63H230.69L192.55 175.3L165.97 175.57L151.07 175.72L143.26 175.8H139.26C138.92 175.8 138.6 175.8 138.26 175.8C137.912 175.834 137.573 175.933 137.26 176.09C136.609 176.405 136.094 176.945 135.81 177.61C135.682 177.933 135.588 178.268 135.53 178.61L135.33 179.61C135.19 180.28 135.06 180.95 134.92 181.61C134.64 182.96 134.37 184.31 134.09 185.68C133.53 188.42 132.97 191.18 132.4 193.98C131.26 199.593 130.097 205.323 128.91 211.17L121.5 247.59L121.68 247.44H95.44C95.1055 247.423 94.77 247.443 94.44 247.5C93.7567 247.63 93.1459 248.009 92.7259 248.564C92.3059 249.118 92.1064 249.809 92.1661 250.502C92.2259 251.195 92.5405 251.841 93.0492 252.315C93.5579 252.79 94.2245 253.059 94.92 253.07H165H227H227.11V252.96C231.75 230.02 235.53 211.36 238.11 198.42C239.41 191.96 240.43 186.93 241.11 183.51C241.45 181.81 241.71 180.51 241.88 179.62C242.05 178.73 242.13 178.29 242.13 178.29L241.84 179.61C241.66 180.5 241.39 181.8 241.03 183.5C240.33 186.91 239.29 191.94 237.96 198.39L226.79 252.91L227 253H165H94.9C94.524 252.978 94.1564 252.879 93.82 252.71C93.5174 252.544 93.2531 252.317 93.0441 252.043C92.8351 251.768 92.6862 251.453 92.607 251.117C92.5278 250.782 92.5201 250.433 92.5843 250.094C92.6486 249.755 92.7834 249.434 92.98 249.15C93.3333 248.637 93.8703 248.279 94.48 248.15C94.8101 248.094 95.1459 248.077 95.48 248.1H121.76V247.96L129.14 211.54C130.327 205.687 131.49 199.957 132.63 194.35C133.197 191.55 133.757 188.783 134.31 186.05C134.59 184.68 134.86 183.32 135.14 181.97C135.27 181.3 135.41 180.62 135.54 179.97L135.75 178.97C135.795 178.628 135.879 178.293 136 177.97C136.261 177.379 136.721 176.898 137.3 176.61C137.583 176.463 137.892 176.371 138.21 176.34C138.52 176.34 138.87 176.34 139.21 176.34L143.21 176.29L151.02 176.2L165.91 176.03L192.5 175.72L230.63 175.25L236.57 175.17H238.94C239.274 175.156 239.61 175.176 239.94 175.23C240.522 175.356 241.051 175.659 241.454 176.097C241.857 176.536 242.114 177.089 242.19 177.68C242.212 177.937 242.206 178.195 242.17 178.45Z" fill="#263238"/>
<path d="M181.36 212.61C181.36 213.472 181.616 214.315 182.095 215.032C182.574 215.749 183.255 216.308 184.052 216.638C184.848 216.968 185.725 217.054 186.571 216.886C187.416 216.718 188.193 216.303 188.803 215.693C189.413 215.083 189.828 214.306 189.996 213.461C190.165 212.615 190.078 211.738 189.748 210.941C189.418 210.145 188.859 209.464 188.142 208.985C187.425 208.506 186.582 208.25 185.72 208.25C184.564 208.25 183.455 208.709 182.637 209.527C181.819 210.345 181.36 211.454 181.36 212.61V212.61Z" fill="white"/>
<path d="M242.05 179.06H241.6H235.13L216.26 179.15L154.01 179.59L145.01 179.66H142.79C142.412 179.65 142.034 179.673 141.66 179.73C141.282 179.812 140.92 179.957 140.59 180.16C139.936 180.58 139.462 181.229 139.26 181.98C139.09 182.71 138.97 183.4 138.82 184.11C137.71 189.73 136.63 195.16 135.61 200.32C133.56 210.65 131.72 219.96 130.18 227.78L126.55 246.3C126.13 248.47 125.81 250.17 125.55 251.3C125.45 251.867 125.37 252.307 125.31 252.62C125.26 252.91 125.24 253.06 125.24 253.06C125.24 253.06 125.24 252.92 125.35 252.62C125.46 252.32 125.5 251.88 125.62 251.32L126.62 246.32C127.51 241.94 128.78 235.63 130.36 227.83C131.94 220.03 133.79 210.71 135.86 200.39C136.86 195.22 137.98 189.8 139.1 184.18C139.25 183.48 139.38 182.76 139.53 182.08C139.712 181.414 140.137 180.84 140.72 180.47C141.024 180.275 141.364 180.143 141.72 180.08C142.071 180.029 142.426 180.009 142.78 180.02H145L154 179.95L216.25 179.4L235.12 179.19L240.25 179.12H241.59L242.05 179.06Z" fill="#263238"/>
<path d="M25.05 248.16H25.23L25.7401 248.21L27.7401 248.37C29.4601 248.51 31.9401 248.68 35.0201 248.86C41.16 249.22 49.67 249.59 59.02 249.75C68.37 249.91 76.94 249.82 83.09 249.66C86.17 249.58 88.6601 249.5 90.3801 249.42L92.3801 249.32H92.9001H93.0701H92.3801H90.3801L83.09 249.44C76.93 249.53 68.42 249.57 59.03 249.44C49.64 249.31 41.14 248.95 35.03 248.66L27.75 248.29L25.75 248.2H25.05V248.16Z" fill="white"/>
</svg>
