<svg width="16" height="16" viewBox="0 0 16 16" fill="none" xmlns="http://www.w3.org/2000/svg">
<path d="M4.64592 4.64598C4.69236 4.59941 4.74754 4.56247 4.80828 4.53727C4.86903 4.51206 4.93415 4.49908 4.99992 4.49908C5.06568 4.49908 5.13081 4.51206 5.19155 4.53727C5.2523 4.56247 5.30747 4.59941 5.35392 4.64598L7.99992 7.29298L10.6459 4.64598C10.6924 4.59949 10.7476 4.56261 10.8083 4.53745C10.8691 4.5123 10.9342 4.49935 10.9999 4.49935C11.0657 4.49935 11.1308 4.5123 11.1915 4.53745C11.2522 4.56261 11.3074 4.59949 11.3539 4.64598C11.4004 4.69247 11.4373 4.74766 11.4624 4.80839C11.4876 4.86913 11.5005 4.93423 11.5005 4.99998C11.5005 5.06572 11.4876 5.13082 11.4624 5.19156C11.4373 5.2523 11.4004 5.30749 11.3539 5.35398L8.70692 7.99998L11.3539 10.646C11.4004 10.6925 11.4373 10.7477 11.4624 10.8084C11.4876 10.8691 11.5005 10.9342 11.5005 11C11.5005 11.0657 11.4876 11.1308 11.4624 11.1916C11.4373 11.2523 11.4004 11.3075 11.3539 11.354C11.3074 11.4005 11.2522 11.4373 11.1915 11.4625C11.1308 11.4877 11.0657 11.5006 10.9999 11.5006C10.9342 11.5006 10.8691 11.4877 10.8083 11.4625C10.7476 11.4373 10.6924 11.4005 10.6459 11.354L7.99992 8.70698L5.35392 11.354C5.30743 11.4005 5.25224 11.4373 5.1915 11.4625C5.13076 11.4877 5.06566 11.5006 4.99992 11.5006C4.93417 11.5006 4.86907 11.4877 4.80833 11.4625C4.74759 11.4373 4.6924 11.4005 4.64592 11.354C4.59943 11.3075 4.56255 11.2523 4.53739 11.1916C4.51223 11.1308 4.49929 11.0657 4.49929 11C4.49929 10.9342 4.51223 10.8691 4.53739 10.8084C4.56255 10.7477 4.59943 10.6925 4.64592 10.646L7.29292 7.99998L4.64592 5.35398C4.59935 5.30753 4.56241 5.25236 4.5372 5.19161C4.512 5.13087 4.49902 5.06575 4.49902 4.99998C4.49902 4.93421 4.512 4.86909 4.5372 4.80834C4.56241 4.7476 4.59935 4.69242 4.64592 4.64598Z" fill="#8B8B8B"/>
</svg>
