<svg width="20" height="20" viewBox="0 0 20 20" fill="none" xmlns="http://www.w3.org/2000/svg">
<path d="M17.7216 17.4983H2.2774C2.13113 17.4983 1.98742 17.4598 1.86074 17.3867C1.73406 17.3135 1.62887 17.2083 1.55573 17.0817C1.48259 16.955 1.44409 16.8113 1.44409 16.665C1.44409 16.5187 1.4826 16.375 1.55574 16.2483L9.2774 2.91501C9.35066 2.78872 9.4558 2.6839 9.58231 2.61104C9.70882 2.53817 9.85225 2.49982 9.99824 2.49982C10.1442 2.49982 10.2877 2.53817 10.4142 2.61104C10.5407 2.6839 10.6458 2.78872 10.7191 2.91501L18.4416 16.2483C18.5147 16.375 18.5532 16.5186 18.5532 16.6648C18.5533 16.811 18.5148 16.9546 18.4418 17.0813C18.3687 17.208 18.2637 17.3132 18.1371 17.3864C18.0105 17.4596 17.8669 17.4982 17.7207 17.4983H17.7216ZM9.16657 13.3317V14.9983H10.8316V13.3317H9.16657V13.3317ZM9.16657 7.49834V11.665H10.8332V7.49834H9.16657Z" fill="#2D2D2D"/>
</svg>
